<?xml version="1.0" standalone="no"?><!DOCTYPE svg PUBLIC "-//W3C//DTD SVG 1.1//EN" "http://www.w3.org/Graphics/SVG/1.1/DTD/svg11.dtd" ><svg xmlns="http://www.w3.org/2000/svg"><metadata></metadata><defs><font id="Hanyi Alibaba-PuHuiTi-2-55-Regular v2.00" horiz-adv-x="1085"><font-face font-family="Alibaba PuHuiTi 2.0 55 Regular" font-weight="400" font-stretch="normal" units-per-em="1000" panose-1="0 2 6 0 4 1 1 1 1 1" ascent="1060" descent="-340" x-height="1" bbox="-76 -204 1000 893" underline-thickness="50" underline-position="-75" unicode-range="U+0020-ff5e" /><missing-glyph horiz-adv-x="575" d="M80 742 l415 0 l0 -742 l-415 0 l0 742 ZM426 66 l0 611 l-276 0 l0 -611 l276 0 Z" /><glyph glyph-name="space" unicode=" " d="" /><glyph glyph-name="exclam" unicode="!" d="M130 694 l98 0 l-15 -492 l-68 0 l-15 492 ZM178 -6 q-17 0 -29 2 q-12 2 -19.5 9 q-7.5 7 -11 19 q-3.5 12 -3.5 33 q0 20 3.5 32.5 q3.5 12.5 11 19 q7.5 6.5 19.5 9 q12 2.5 29 2.5 q34 0 49 -11.5 q15 -11.5 15 -51.5 q0 -41 -15 -52 q-15 -11 -49 -11 Z" /><glyph glyph-name="quotedbl" unicode="&quot;" d="M77 760 l100 0 l-23 -296 l-54 0 l-23 296 ZM228 760 l100 0 l-22 -296 l-55 0 l-23 296 Z" /><glyph glyph-name="numbersign" unicode="#" d="M482 441 l-38 -179 l138 0 l0 -70 l-153 0 l-40 -192 l-81 0 l40 192 l-161 0 l-40 -192 l-81 0 l40 192 l-88 0 l0 70 l103 0 l38 179 l-141 0 l0 70 l156 0 l38 183 l81 0 l-38 -183 l161 0 l38 183 l81 0 l-38 -183 l85 0 l0 -70 l-100 0 ZM401 441 l-161 0 l-38 -179 l161 0 l38 179 Z" /><glyph glyph-name="dollar" unicode="$" d="M499 200 q0 -92 -45.5 -137 q-45.5 -45 -143.5 -53 l0 -148 l-63 0 l0 147 q-59 2 -109.5 8.5 q-50.5 6.5 -74.5 15.5 l0 78 q29 -11 78 -18.5 q49 -7.5 106 -9.5 l0 251 q-49 13 -82 26.5 q-33 13.5 -53.5 33.5 q-20.5 20 -29 49.5 q-8.5 29.5 -8.5 73.5 q0 81 42 126 q42 45 131 51 l0 93 l63 0 l0 -93 q22 -1 45.5 -3.5 q23.5 -2.5 44 -5.5 q20.5 -3 37.5 -6.5 q17 -3.5 28 -7.5 l0 -74 q-25 9 -68 16 q-43 7 -87 9 l0 -227 q48 -12 84 -27.5 q36 -15.5 59 -38 q23 -22.5 34.5 -54 q11.5 -31.5 11.5 -75.5 ZM153 517 q0 -21 3 -36.5 q3 -15.5 13 -28 q10 -12.5 28.5 -22.5 q18.5 -10 49.5 -19 l0 211 q-50 -3 -72 -24.5 q-22 -21.5 -22 -80.5 ZM310 85 q57 5 83.5 29 q26.5 24 26.5 79 q0 28 -5 47 q-5 19 -17 33 q-12 14 -33.5 24 q-21.5 10 -54.5 20 l0 -232 Z" /><glyph glyph-name="percent" unicode="%" d="M210 323 q-33 0 -59 9 q-26 9 -44.5 30.5 q-18.5 21.5 -28.5 58 q-10 36.5 -10 92.5 q0 55 10 92 q10 37 28.5 59 q18.5 22 44.5 31 q26 9 59 9 q33 0 59 -9 q26 -9 44.5 -31 q18.5 -22 28.5 -59 q10 -37 10 -92 q0 -56 -10 -92.5 q-10 -36.5 -28.5 -58 q-18.5 -21.5 -44.5 -30.5 q-26 -9 -59 -9 ZM570 694 l67 0 l-389 -694 l-66 0 l388 694 ZM210 375 q21 0 35.5 6.5 q14.5 6.5 23.5 22 q9 15.5 13 42 q4 26.5 4 67.5 q0 40 -4 66.5 q-4 26.5 -13 42 q-9 15.5 -23.5 21.5 q-14.5 6 -35.5 6 q-21 0 -35 -6 q-14 -6 -23 -21.5 q-9 -15.5 -13 -42 q-4 -26.5 -4 -66.5 q0 -41 4 -67.5 q4 -26.5 13 -42 q9 -15.5 23 -22 q14 -6.5 35 -6.5 ZM611 -10 q-33 0 -59 9 q-26 9 -45 30.5 q-19 21.5 -29 58 q-10 36.5 -10 92.5 q0 55 10 92 q10 37 29 59 q19 22 45 31 q26 9 59 9 q33 0 59 -9 q26 -9 44.5 -31 q18.5 -22 28.5 -59 q10 -37 10 -92 q0 -56 -10 -92.5 q-10 -36.5 -28.5 -58 q-18.5 -21.5 -44.5 -30.5 q-26 -9 -59 -9 ZM611 42 q21 0 35.5 6.5 q14.5 6.5 23.5 22 q9 15.5 12.5 42 q3.5 26.5 3.5 67.5 q0 40 -3.5 66.5 q-3.5 26.5 -12.5 42 q-9 15.5 -23.5 21.5 q-14.5 6 -35.5 6 q-21 0 -35 -6 q-14 -6 -23 -21.5 q-9 -15.5 -13 -42 q-4 -26.5 -4 -66.5 q0 -41 4 -67.5 q4 -26.5 13 -42 q9 -15.5 23 -22 q14 -6.5 35 -6.5 Z" /><glyph glyph-name="ampersand" unicode="&amp;" d="M514 129 q24 -26 51.5 -39.5 q27.5 -13.5 74.5 -13.5 l0 -76 q-36 0 -62.5 2.5 q-26.5 2.5 -48 10 q-21.5 7.5 -40 21 q-18.5 13.5 -37.5 34.5 q-50 -42 -98.5 -60 q-48.5 -18 -100.5 -18 q-48 0 -87.5 13.5 q-39.5 13.5 -67.5 38.5 q-28 25 -43.5 60 q-15.5 35 -15.5 77 q0 61 34.5 113 q34.5 52 120.5 99 q-16 22 -26.5 41.5 q-10.5 19.5 -16.5 37 q-6 17.5 -8 34.5 q-2 17 -2 36 q0 37 13 67 q13 30 36 51.5 q23 21.5 54 33.5 q31 12 68 12 q38 0 67.5 -12 q29.5 -12 49.5 -32 q20 -20 30.5 -47 q10.5 -27 10.5 -58 q0 -62 -38.5 -104 q-38.5 -42 -116.5 -80 l146 -179 q28 42 42.5 85 q14.5 43 17.5 83 l87 0 q-9 -64 -29.5 -121 q-20.5 -57 -64.5 -110 ZM310 630 q-34 0 -56.5 -24 q-22.5 -24 -22.5 -62 q0 -28 8.5 -55 q8.5 -27 31.5 -61 q57 27 84 54 q27 27 27 69 q0 35 -19 57 q-19 22 -53 22 ZM130 189 q0 -57 37 -89.5 q37 -32.5 97 -32.5 q39 0 72 13.5 q33 13.5 69 45.5 l-166 207 q-60 -35 -84.5 -70 q-24.5 -35 -24.5 -74 Z" /><glyph glyph-name="quotesingle" unicode="&#39;" d="M77 760 l100 0 l-23 -296 l-54 0 l-23 296 Z" /><glyph glyph-name="parenleft" unicode="(" d="M223 -200 q-78 112 -118 229.5 q-40 117.5 -40 244.5 q0 134 41.5 253 q41.5 119 119.5 233 l82 0 q-82 -128 -119.5 -243.5 q-37.5 -115.5 -37.5 -235.5 q0 -124 37.5 -241.5 q37.5 -117.5 116.5 -239.5 l-82 0 Z" /><glyph glyph-name="parenright" unicode=")" d="M50 -200 q82 128 119.5 243.5 q37.5 115.5 37.5 235.5 q0 124 -37.5 241.5 q-37.5 117.5 -115.5 239.5 l82 0 q78 -112 118 -229.5 q40 -117.5 40 -244.5 q0 -134 -41.5 -253 q-41.5 -119 -119.5 -233 l-83 0 Z" /><glyph glyph-name="asterisk" unicode="*" d="M75 458 l89 105 l-134 31 l27 82 l126 -53 l-11 137 l86 0 l-11 -137 l126 53 l27 -82 l-134 -31 l90 -105 l-69 -50 l-72 118 l-71 -118 l-69 50 Z" /><glyph glyph-name="plus" unicode="+" d="M517 258 l-199 0 l0 -199 l-85 0 l0 199 l-198 0 l0 85 l198 0 l0 198 l85 0 l0 -198 l199 0 l0 -85 Z" /><glyph glyph-name="comma" unicode="," d="M38 -136 q20 31 37.5 65.5 q17.5 34.5 30 69 q12.5 34.5 19.5 67.5 q7 33 7 61 l83 0 q0 -32 -10 -68.5 q-10 -36.5 -25 -71.5 q-15 -35 -34 -67 q-19 -32 -37 -56 l-71 0 Z" /><glyph glyph-name="hyphen" unicode="-" d="M72 343 l295 0 l0 -72 l-295 0 l0 72 Z" /><glyph glyph-name="period" unicode="." d="M151 -6 q-35 0 -49.5 11 q-14.5 11 -14.5 53 q0 40 14.5 51 q14.5 11 49.5 11 q34 0 49 -11 q15 -11 15 -51 q0 -42 -15 -53 q-15 -11 -49 -11 Z" /><glyph glyph-name="slash" unicode="/" d="M346 724 l77 0 l-269 -754 l-77 0 l269 754 Z" /><glyph glyph-name="zero" unicode="0" d="M287 -10 q-52 0 -95 15.5 q-43 15.5 -74 55.5 q-31 40 -48 109.5 q-17 69.5 -17 176.5 q0 107 17 176 q17 69 48 109.5 q31 40.5 74 56 q43 15.5 95 15.5 q52 0 95.5 -15.5 q43.5 -15.5 74.5 -56 q31 -40.5 48 -109.5 q17 -69 17 -176 q0 -107 -17 -176.5 q-17 -69.5 -48 -109.5 q-31 -40 -74.5 -55.5 q-43.5 -15.5 -95.5 -15.5 ZM287 65 q37 0 64 12.5 q27 12.5 45 44.5 q18 32 26.5 86.5 q8.5 54.5 8.5 138.5 q0 83 -8.5 137.5 q-8.5 54.5 -26.5 86.5 q-18 32 -45 44.5 q-27 12.5 -64 12.5 q-36 0 -63 -12.5 q-27 -12.5 -44.5 -44.5 q-17.5 -32 -26 -86.5 q-8.5 -54.5 -8.5 -137.5 q0 -84 8.5 -138.5 q8.5 -54.5 26 -86.5 q17.5 -32 44.5 -44.5 q27 -12.5 63 -12.5 Z" /><glyph glyph-name="one" unicode="1" d="M273 612 l-172 -33 l0 73 l203 42 l59 0 l0 -694 l-90 0 l0 612 Z" /><glyph glyph-name="two" unicode="2" d="M57 95 q111 87 178 148 q67 61 104 107 q37 46 49 82.5 q12 36.5 12 73.5 q0 37 -13.5 61 q-13.5 24 -34.5 38 q-21 14 -47.5 19 q-26.5 5 -51.5 5 q-33 0 -70 -3.5 q-37 -3.5 -78 -14.5 l0 77 q35 8 74.5 12 q39.5 4 83.5 4 q51 0 92 -11 q41 -11 70.5 -35 q29.5 -24 45 -62 q15.5 -38 15.5 -91 q0 -47 -14 -88.5 q-14 -41.5 -47 -86 q-33 -44.5 -89 -96 q-56 -51.5 -140 -118.5 l-40 -31 l0 -9 l358 0 l0 -76 l-457 0 l0 95 Z" /><glyph glyph-name="three" unicode="3" d="M226 -10 q-42 0 -81.5 3 q-39.5 3 -74.5 10 l0 79 q40 -10 77.5 -13.5 q37.5 -3.5 77.5 -3.5 q39 0 72.5 6 q33.5 6 57.5 21 q24 15 38 39.5 q14 24.5 14 60.5 q0 74 -50 103 q-50 29 -149 29 l-55 0 l0 69 l54 0 q91 0 138 33.5 q47 33.5 47 90.5 q0 61 -36.5 87 q-36.5 26 -111.5 26 q-30 0 -69 -5 q-39 -5 -72 -15 l0 74 q26 8 65.5 14 q39.5 6 79.5 6 q112 0 169.5 -43 q57.5 -43 57.5 -139 q0 -68 -33 -104.5 q-33 -36.5 -90 -53.5 l0 -6 q74 -13 107.5 -55.5 q33.5 -42.5 33.5 -111.5 q0 -96 -64.5 -148.5 q-64.5 -52.5 -202.5 -52.5 Z" /><glyph glyph-name="four" unicode="4" d="M529 171 l-82 0 l0 -171 l-84 0 l0 171 l-328 0 l0 97 l304 426 l108 0 l0 -447 l82 0 l0 -76 ZM363 247 l0 355 l-6 0 l-246 -349 l0 -6 l252 0 Z" /><glyph glyph-name="five" unicode="5" d="M229 -10 q-42 0 -75.5 3 q-33.5 3 -67.5 10 l0 79 q39 -10 70.5 -13.5 q31.5 -3.5 71.5 -3.5 q43 0 78.5 7.5 q35.5 7.5 60.5 25 q25 17.5 39 46 q14 28.5 14 71.5 q0 78 -45.5 113.5 q-45.5 35.5 -153.5 35.5 q-28 0 -64 -4.5 q-36 -4.5 -69 -10.5 l47 345 l324 0 l0 -78 l-256 0 l-29 -190 q19 3 38 4.5 q19 1.5 43 1.5 q121 0 186 -50 q65 -50 65 -161 q0 -62 -19.5 -105.5 q-19.5 -43.5 -55.5 -71.5 q-36 -28 -87.5 -41 q-51.5 -13 -114.5 -13 Z" /><glyph glyph-name="six" unicode="6" d="M287 -10 q-48 0 -89.5 13.5 q-41.5 13.5 -73 45.5 q-31.5 32 -49.5 85.5 q-18 53.5 -18 134.5 q0 97 21.5 177 q21.5 80 66.5 137.5 q45 57.5 115.5 89 q70.5 31.5 168.5 31.5 l-1 -76 q-64 0 -114 -18 q-50 -18 -85 -49.5 q-35 -31.5 -55 -74 q-20 -42.5 -24 -91.5 l3 0 q20 20 59 38.5 q39 18.5 90 18.5 q97 0 154 -55 q57 -55 57 -169 q0 -51 -13.5 -94.5 q-13.5 -43.5 -41 -75.5 q-27.5 -32 -70.5 -50 q-43 -18 -101 -18 ZM286 65 q71 0 108 40.5 q37 40.5 37 122.5 q0 78 -37 116.5 q-37 38.5 -96 38.5 q-81 0 -118 -38.5 q-37 -38.5 -37 -100.5 q0 -179 143 -179 Z" /><glyph glyph-name="seven" unicode="7" d="M435 616 l-381 0 l0 78 l458 0 l0 -88 l-285 -606 l-92 0 l300 616 Z" /><glyph glyph-name="eight" unicode="8" d="M287 -10 q-112 0 -174.5 47 q-62.5 47 -62.5 147 q0 40 11 69.5 q11 29.5 28.5 50 q17.5 20.5 39.5 33 q22 12.5 44 20.5 l0 4 q-44 20 -72 56.5 q-28 36.5 -28 101.5 q0 41 12.5 75 q12.5 34 38.5 58.5 q26 24.5 66.5 38 q40.5 13.5 96.5 13.5 q56 0 96.5 -13.5 q40.5 -13.5 66.5 -38 q26 -24.5 38.5 -58.5 q12.5 -34 12.5 -75 q0 -63 -24.5 -100.5 q-24.5 -37.5 -75.5 -57.5 l0 -4 q25 -8 47.5 -20.5 q22.5 -12.5 39.5 -33.5 q17 -21 26.5 -50.5 q9.5 -29.5 9.5 -69.5 q0 -100 -62 -146.5 q-62 -46.5 -175 -46.5 ZM287 390 q37 0 62.5 9.5 q25.5 9.5 41 26.5 q15.5 17 22.5 39 q7 22 7 48 q0 57 -33 88 q-33 31 -100 31 q-133 0 -133 -119 q0 -26 6 -48 q6 -22 21.5 -39 q15.5 -17 41 -26.5 q25.5 -9.5 64.5 -9.5 ZM287 63 q82 0 118 33.5 q36 33.5 36 90.5 q0 71 -38 104 q-38 33 -116 33 q-78 0 -115.5 -33 q-37.5 -33 -37.5 -104 q0 -57 35.5 -90.5 q35.5 -33.5 117.5 -33.5 Z" /><glyph glyph-name="nine" unicode="9" d="M144 63 q66 0 115.5 18 q49.5 18 84 50 q34.5 32 54 75 q19.5 43 24.5 93 l-4 0 q-19 -21 -58 -39 q-39 -18 -90 -18 q-48 0 -87.5 13 q-39.5 13 -67 39.5 q-27.5 26.5 -43 68 q-15.5 41.5 -15.5 98.5 q0 51 13.5 95.5 q13.5 44.5 41.5 77 q28 32.5 71 51.5 q43 19 101 19 q48 0 89.5 -14 q41.5 -14 72.5 -47 q31 -33 49 -87 q18 -54 18 -134 q0 -97 -21 -177 q-21 -80 -66 -137 q-45 -57 -115 -88.5 q-70 -31.5 -168 -31.5 l1 75 ZM273 310 q81 0 118.5 37.5 q37.5 37.5 37.5 100.5 q0 88 -37 135 q-37 47 -108 47 q-71 0 -107 -43.5 q-36 -43.5 -36 -125.5 q0 -78 37 -114.5 q37 -36.5 95 -36.5 Z" /><glyph glyph-name="colon" unicode=":" d="M189 420 q-35 0 -49.5 11 q-14.5 11 -14.5 52 q0 41 14.5 52 q14.5 11 49.5 11 q34 0 49 -11 q15 -11 15 -52 q0 -41 -15 -52 q-15 -11 -49 -11 ZM189 -6 q-35 0 -49.5 11 q-14.5 11 -14.5 53 q0 40 14.5 51 q14.5 11 49.5 11 q34 0 49 -11 q15 -11 15 -51 q0 -42 -15 -53 q-15 -11 -49 -11 Z" /><glyph glyph-name="semicolon" unicode=";" d="M189 420 q-35 0 -49.5 11 q-14.5 11 -14.5 52 q0 41 14.5 52 q14.5 11 49.5 11 q34 0 49 -11 q15 -11 15 -52 q0 -41 -15 -52 q-15 -11 -49 -11 ZM66 -136 q20 31 37 65.5 q17 34.5 30 69 q13 34.5 20 67.5 q7 33 7 61 l82 0 q0 -32 -10 -68.5 q-10 -36.5 -25 -71.5 q-15 -35 -34 -67 q-19 -32 -37 -56 l-70 0 Z" /><glyph glyph-name="less" unicode="&lt;" d="M517 470 l-418 -170 l418 -170 l0 -85 l-482 196 l0 118 l482 196 l0 -85 Z" /><glyph glyph-name="equal" unicode="=" d="M35 461 l482 0 l0 -85 l-482 0 l0 85 ZM35 225 l482 0 l0 -85 l-482 0 l0 85 Z" /><glyph glyph-name="greater" unicode="&gt;" d="M517 359 l0 -118 l-482 -196 l0 85 l418 170 l-418 170 l0 85 l482 -196 Z" /><glyph glyph-name="question" unicode="?" d="M152 243 q0 19 4 36 q4 17 14 34 q10 17 27.5 35.5 q17.5 18.5 44.5 40.5 q23 18 37.5 32 q14.5 14 22.5 28.5 q8 14.5 11 30.5 q3 16 3 38 q0 31 -6.5 51.5 q-6.5 20.5 -21.5 32 q-15 11.5 -40 16 q-25 4.5 -62 4.5 q-35 0 -75 -5.5 q-40 -5.5 -69 -16.5 l0 80 q24 8 62.5 15 q38.5 7 90.5 7 q54 0 94 -8 q40 -8 67 -28 q27 -20 40 -54 q13 -34 13 -85 q0 -41 -7 -68.5 q-7 -27.5 -20 -48 q-13 -20.5 -31.5 -36.5 q-18.5 -16 -42.5 -33 q-22 -16 -37 -29.5 q-15 -13.5 -24 -26 q-9 -12.5 -12.5 -26 q-3.5 -13.5 -3.5 -30.5 l0 -30 l-79 0 l0 44 ZM192 -6 q-17 0 -29 2 q-12 2 -19.5 9 q-7.5 7 -11 19 q-3.5 12 -3.5 33 q0 20 3.5 32.5 q3.5 12.5 11 19 q7.5 6.5 19.5 9 q12 2.5 29 2.5 q34 0 49 -11.5 q15 -11.5 15 -51.5 q0 -41 -15 -52 q-15 -11 -49 -11 Z" /><glyph glyph-name="at" unicode="@" d="M454 -110 q-98 0 -172.5 26 q-74.5 26 -124.5 75 q-50 49 -75.5 118 q-25.5 69 -25.5 156 q0 99 34 180 q34 81 92.5 138 q58.5 57 136 88.5 q77.5 31.5 165.5 31.5 q165 0 255.5 -83.5 q90.5 -83.5 90.5 -238.5 q0 -63 -13.5 -116 q-13.5 -53 -38 -91 q-24.5 -38 -59 -59.5 q-34.5 -21.5 -76.5 -21.5 q-69 0 -102 61 q-30 -33 -65 -48 q-35 -15 -83 -15 q-69 0 -105.5 40 q-36.5 40 -36.5 109 q0 63 17.5 111.5 q17.5 48.5 46.5 81.5 q29 33 66.5 50 q37.5 17 77.5 17 q38 0 64.5 -14 q26.5 -14 41.5 -40 l9 49 l73 0 l-41 -208 q-9 -45 -9 -65 q0 -28 14.5 -45.5 q14.5 -17.5 37.5 -17.5 q23 0 42 15.5 q19 15.5 33 44 q14 28.5 21.5 68.5 q7.5 40 7.5 89 q0 130 -71.5 194 q-71.5 64 -198.5 64 q-73 0 -136.5 -26 q-63.5 -26 -111 -74 q-47.5 -48 -74.5 -116 q-27 -68 -27 -152 q0 -152 80.5 -229 q80.5 -77 247.5 -77 q111 0 219 33 l0 -67 q-114 -36 -227 -36 ZM406 159 q54 0 86 37.5 q32 37.5 43 101.5 q2 12 3.5 23.5 q1.5 11.5 1.5 19.5 q0 21 -3 38.5 q-3 17.5 -12 30 q-9 12.5 -25 19 q-16 6.5 -42 6.5 q-32 0 -56 -17.5 q-24 -17.5 -40.5 -45.5 q-16.5 -28 -24.5 -63 q-8 -35 -8 -70 q0 -15 3.5 -29.5 q3.5 -14.5 12 -25.5 q8.5 -11 23.5 -18 q15 -7 38 -7 Z" /><glyph glyph-name="A" unicode="A" d="M486 207 l-307 0 l-76 -207 l-92 0 l263 694 l120 0 l262 -694 l-95 0 l-75 207 ZM457 287 l-117 323 l-12 0 l-119 -323 l248 0 Z" /><glyph glyph-name="B" unicode="B" d="M92 694 l200 0 q68 0 113 -11 q45 -11 71.5 -34 q26.5 -23 37.5 -57.5 q11 -34.5 11 -81.5 q0 -54 -23 -92 q-23 -38 -78 -55 l0 -4 q35 -7 59 -21.5 q24 -14.5 38.5 -35.5 q14.5 -21 20.5 -47 q6 -26 6 -57 q0 -47 -11 -84 q-11 -37 -38 -62.5 q-27 -25.5 -72.5 -38.5 q-45.5 -13 -114.5 -13 l-220 0 l0 694 ZM250 390 q50 0 85.5 5 q35.5 5 58 18 q22.5 13 33 35.5 q10.5 22.5 10.5 56.5 q0 38 -10.5 60.5 q-10.5 22.5 -33 34 q-22.5 11.5 -58 15 q-35.5 3.5 -85.5 3.5 l-68 0 l0 -228 l68 0 ZM275 77 q53 0 88.5 5 q35.5 5 56.5 18.5 q21 13.5 29.5 37.5 q8.5 24 8.5 61 q0 32 -9 54.5 q-9 22.5 -30 37 q-21 14.5 -56 21.5 q-35 7 -88 7 l-93 0 l0 -242 l93 0 Z" /><glyph glyph-name="C" unicode="C" d="M388 -10 q-72 0 -130 15 q-58 15 -99.5 54.5 q-41.5 39.5 -64 109 q-22.5 69.5 -22.5 178.5 q0 100 23 168.5 q23 68.5 65 110.5 q42 42 102.5 60 q60.5 18 135.5 18 q48 0 83.5 -5 q35.5 -5 66.5 -15 l0 -83 q-30 11 -66 17.5 q-36 6.5 -82 6.5 q-59 0 -103 -14 q-44 -14 -73 -46.5 q-29 -32.5 -43.5 -85 q-14.5 -52.5 -14.5 -130.5 q0 -83 13.5 -136.5 q13.5 -53.5 41 -85 q27.5 -31.5 70 -44 q42.5 -12.5 100.5 -12.5 q49 0 87 6.5 q38 6.5 78 20.5 l0 -78 q-29 -13 -72 -21.5 q-43 -8.5 -96 -8.5 Z" /><glyph glyph-name="D" unicode="D" d="M292 694 q75 0 136.5 -13.5 q61.5 -13.5 105.5 -51.5 q44 -38 68.5 -106 q24.5 -68 24.5 -176 q0 -101 -24.5 -167.5 q-24.5 -66.5 -68.5 -106.5 q-44 -40 -105.5 -56.5 q-61.5 -16.5 -136.5 -16.5 l-200 0 l0 694 l200 0 ZM290 79 q54 0 99 12.5 q45 12.5 77.5 43 q32.5 30.5 50 82.5 q17.5 52 17.5 130 q0 83 -18.5 135.5 q-18.5 52.5 -51 82 q-32.5 29.5 -77 40.5 q-44.5 11 -97.5 11 l-108 0 l0 -537 l108 0 Z" /><glyph glyph-name="E" unicode="E" d="M503 81 l0 -81 l-411 0 l0 694 l386 0 l0 -80 l-296 0 l0 -215 l276 0 l0 -76 l-276 0 l0 -242 l321 0 Z" /><glyph glyph-name="F" unicode="F" d="M182 614 l0 -225 l276 0 l0 -80 l-276 0 l0 -309 l-90 0 l0 694 l386 0 l0 -80 l-296 0 Z" /><glyph glyph-name="G" unicode="G" d="M397 -10 q-76 0 -136 15 q-60 15 -102 54.5 q-42 39.5 -64.5 109 q-22.5 69.5 -22.5 178.5 q0 100 23 168.5 q23 68.5 66 110.5 q43 42 105.5 60 q62.5 18 140.5 18 q24 0 49.5 -2 q25.5 -2 49.5 -5.5 q24 -3.5 45.5 -8.5 q21.5 -5 36.5 -11 l0 -80 q-35 14 -79.5 21 q-44.5 7 -97.5 7 q-58 0 -103.5 -12 q-45.5 -12 -77 -43 q-31.5 -31 -48 -85 q-16.5 -54 -16.5 -138 q0 -89 15.5 -143.5 q15.5 -54.5 46.5 -84.5 q31 -30 75.5 -40.5 q44.5 -10.5 103.5 -10.5 q24 0 56.5 3 q32.5 3 56.5 10 l0 215 l-139 0 l0 76 l225 0 l0 -353 q-38 -12 -90.5 -20.5 q-52.5 -8.5 -118.5 -8.5 Z" /><glyph glyph-name="H" unicode="H" d="M616 694 l0 -694 l-91 0 l0 336 l-343 0 l0 -336 l-90 0 l0 694 l90 0 l0 -283 l343 0 l0 283 l91 0 Z" /><glyph glyph-name="I" unicode="I" d="M92 694 l90 0 l0 -694 l-90 0 l0 694 Z" /><glyph glyph-name="J" unicode="J" d="M-6 -181 q-15 0 -35.5 1.5 q-20.5 1.5 -34.5 4.5 l0 80 q12 -2 27 -4.5 q15 -2.5 40 -2.5 q55 0 78.5 35 q23.5 35 23.5 92 l0 669 l90 0 l0 -678 q0 -91 -46 -144 q-46 -53 -143 -53 Z" /><glyph glyph-name="K" unicode="K" d="M595 0 l-116 0 l-248 326 l-49 0 l0 -326 l-90 0 l0 694 l90 0 l0 -289 l49 0 l243 289 l112 0 l-284 -323 l293 -371 Z" /><glyph glyph-name="L" unicode="L" d="M483 81 l0 -81 l-391 0 l0 694 l90 0 l0 -613 l301 0 Z" /><glyph glyph-name="M" unicode="M" d="M92 694 l144 0 l177 -447 l6 0 l177 447 l142 0 l0 -694 l-90 0 l0 603 l-6 0 l-178 -446 l-98 0 l-180 446 l-6 0 l0 -603 l-88 0 l0 694 Z" /><glyph glyph-name="N" unicode="N" d="M92 694 l141 0 l316 -576 l6 0 l0 576 l90 0 l0 -694 l-119 0 l-340 611 l-6 0 l0 -611 l-88 0 l0 694 Z" /><glyph glyph-name="O" unicode="O" d="M371 -10 q-74 0 -129.5 16.5 q-55.5 16.5 -93.5 57 q-38 40.5 -57 109.5 q-19 69 -19 174 q0 105 19 173.5 q19 68.5 57 109.5 q38 41 93.5 57.5 q55.5 16.5 129.5 16.5 q74 0 130 -16.5 q56 -16.5 93.5 -57.5 q37.5 -41 56.5 -109.5 q19 -68.5 19 -173.5 q0 -105 -19 -174 q-19 -69 -56.5 -109.5 q-37.5 -40.5 -93.5 -57 q-56 -16.5 -130 -16.5 ZM371 67 q64 0 104 16 q40 16 62.5 50 q22.5 34 31 87 q8.5 53 8.5 127 q0 72 -8.5 125 q-8.5 53 -31 87.5 q-22.5 34.5 -62.5 51.5 q-40 17 -104 17 q-63 0 -103 -17 q-40 -17 -62.5 -51.5 q-22.5 -34.5 -31 -87.5 q-8.5 -53 -8.5 -125 q0 -74 8.5 -127 q8.5 -53 31 -87 q22.5 -34 62.5 -50 q40 -16 103 -16 Z" /><glyph glyph-name="P" unicode="P" d="M92 694 l193 0 q73 0 122 -13 q49 -13 78.5 -40 q29.5 -27 41.5 -69 q12 -42 12 -100 q0 -61 -14.5 -104 q-14.5 -43 -45 -70 q-30.5 -27 -79 -39.5 q-48.5 -12.5 -115.5 -12.5 l-103 0 l0 -246 l-90 0 l0 694 ZM277 321 q48 0 81 7 q33 7 52.5 24.5 q19.5 17.5 28 46.5 q8.5 29 8.5 73 q0 40 -8.5 67.5 q-8.5 27.5 -28 44.5 q-19.5 17 -52.5 24.5 q-33 7.5 -81 7.5 l-95 0 l0 -295 l95 0 Z" /><glyph glyph-name="Q" unicode="Q" d="M670 347 q0 -87 -13 -149 q-13 -62 -39 -103 q-26 -41 -64 -64.5 q-38 -23.5 -89 -32.5 l115 -143 l-107 0 l-97 135 l-5 0 q-74 0 -129.5 16.5 q-55.5 16.5 -93.5 57 q-38 40.5 -57 109.5 q-19 69 -19 174 q0 105 19 173.5 q19 68.5 57 109.5 q38 41 93.5 57.5 q55.5 16.5 129.5 16.5 q74 0 130 -16.5 q56 -16.5 93.5 -57.5 q37.5 -41 56.5 -109.5 q19 -68.5 19 -173.5 ZM371 67 q64 0 104 16 q40 16 62.5 50 q22.5 34 31 87 q8.5 53 8.5 127 q0 72 -8.5 125 q-8.5 53 -31 87.5 q-22.5 34.5 -62.5 51.5 q-40 17 -104 17 q-63 0 -103 -17 q-40 -17 -62.5 -51.5 q-22.5 -34.5 -31 -87.5 q-8.5 -53 -8.5 -125 q0 -74 8.5 -127 q8.5 -53 31 -87 q22.5 -34 62.5 -50 q40 -16 103 -16 Z" /><glyph glyph-name="R" unicode="R" d="M493 0 l-191 280 q-8 -1 -16.5 -1 q-8.5 0 -17.5 0 l-86 0 l0 -279 l-90 0 l0 694 l176 0 q73 0 123.5 -10.5 q50.5 -10.5 82 -34.5 q31.5 -24 45.5 -63.5 q14 -39.5 14 -96.5 q0 -90 -35 -136.5 q-35 -46.5 -107 -62.5 l208 -290 l-106 0 ZM260 354 q48 0 82.5 4.5 q34.5 4.5 56.5 18.5 q22 14 32.5 41 q10.5 27 10.5 71 q0 39 -10.5 64 q-10.5 25 -32.5 39 q-22 14 -56.5 19 q-34.5 5 -82.5 5 l-78 0 l0 -262 l78 0 Z" /><glyph glyph-name="S" unicode="S" d="M263 -10 q-32 0 -63.5 2.5 q-31.5 2.5 -59 6.5 q-27.5 4 -49 8.5 q-21.5 4.5 -34.5 9.5 l0 83 q15 -6 38 -11.5 q23 -5.5 50 -10 q27 -4.5 57 -7 q30 -2.5 61 -2.5 q78 0 118 26 q40 26 40 91 q0 32 -6.5 53.5 q-6.5 21.5 -24.5 36.5 q-18 15 -49 26 q-31 11 -80 23 q-53 13 -90 27 q-37 14 -60 35.5 q-23 21.5 -33.5 52.5 q-10.5 31 -10.5 77 q0 95 56.5 141.5 q56.5 46.5 174.5 46.5 q25 0 50.5 -2 q25.5 -2 49 -5.5 q23.5 -3.5 43 -8 q19.5 -4.5 31.5 -9.5 l0 -82 q-30 11 -78 19.5 q-48 8.5 -95 8.5 q-36 0 -63 -4.5 q-27 -4.5 -45 -16.5 q-18 -12 -26.5 -33 q-8.5 -21 -8.5 -55 q0 -24 4.5 -41.5 q4.5 -17.5 19.5 -30.5 q15 -13 43 -23.5 q28 -10.5 75 -21.5 q58 -14 98.5 -29.5 q40.5 -15.5 65.5 -39.5 q25 -24 36 -58.5 q11 -34.5 11 -85.5 q0 -102 -62.5 -149.5 q-62.5 -47.5 -183.5 -47.5 Z" /><glyph glyph-name="T" unicode="T" d="M511 614 l-202 0 l0 -614 l-90 0 l0 614 l-203 0 l0 80 l495 0 l0 -80 Z" /><glyph glyph-name="U" unicode="U" d="M350 -10 q-131 0 -196 53.5 q-65 53.5 -65 180.5 l0 470 l89 0 l0 -450 q0 -50 9 -83.5 q9 -33.5 29.5 -53.5 q20.5 -20 53.5 -29 q33 -9 81 -9 q50 0 83.5 9 q33.5 9 53.5 29 q20 20 28 53.5 q8 33.5 8 83.5 l0 450 l89 0 l0 -470 q0 -123 -66 -178.5 q-66 -55.5 -197 -55.5 Z" /><glyph glyph-name="V" unicode="V" d="M16 694 l96 0 l195 -599 l6 0 l198 599 l91 0 l-239 -694 l-112 0 l-235 694 Z" /><glyph glyph-name="W" unicode="W" d="M26 694 l94 0 l130 -589 l6 0 l141 508 l108 0 l141 -508 l6 0 l129 589 l91 0 l-165 -694 l-114 0 l-141 514 l-6 0 l-144 -514 l-114 0 l-162 694 Z" /><glyph glyph-name="X" unicode="X" d="M251 353 l-209 341 l105 0 l165 -285 l6 0 l176 285 l98 0 l-217 -335 l225 -359 l-105 0 l-178 298 l-6 0 l-187 -298 l-101 0 l228 353 Z" /><glyph glyph-name="Y" unicode="Y" d="M251 298 l-245 396 l104 0 l187 -314 l6 0 l186 314 l99 0 l-247 -395 l0 -299 l-90 0 l0 298 Z" /><glyph glyph-name="Z" unicode="Z" d="M58 92 l399 516 l-1 6 l-378 0 l0 80 l482 0 l0 -86 l-405 -521 l0 -6 l428 0 l0 -81 l-525 0 l0 92 Z" /><glyph glyph-name="bracketleft" unicode="[" d="M70 760 l189 0 l0 -74 l-102 0 l0 -812 l102 0 l0 -74 l-189 0 l0 960 Z" /><glyph glyph-name="backslash" unicode="\" d="M23 760 l81 0 l382 -860 l-81 0 l-382 860 Z" /><glyph glyph-name="bracketright" unicode="]" d="M34 -126 l103 0 l0 812 l-103 0 l0 74 l190 0 l0 -960 l-190 0 l0 74 Z" /><glyph glyph-name="asciicircum" unicode="^" d="M405 315 l-129 316 l-129 -316 l-85 0 l156 379 l118 0 l154 -379 l-85 0 Z" /><glyph glyph-name="underscore" unicode="_" d="M0 -134 l500 0 l0 -70 l-500 0 l0 70 Z" /><glyph glyph-name="a" unicode="a" d="M305 550 q64 0 105.5 -12.5 q41.5 -12.5 66 -34.5 q24.5 -22 34 -53 q9.5 -31 9.5 -67 l0 -383 l-73 0 l-13 82 q-12 -22 -32 -39 q-20 -17 -45.5 -29 q-25.5 -12 -55.5 -18 q-30 -6 -60 -6 q-97 0 -141.5 42 q-44.5 42 -44.5 119 q0 48 15.5 81 q15.5 33 43.5 53 q28 20 67.5 29 q39.5 9 87.5 9 l165 0 l0 45 q0 24 -5.5 44.5 q-5.5 20.5 -20 35 q-14.5 14.5 -40.5 22.5 q-26 8 -67 8 q-27 0 -58.5 -3 q-31.5 -3 -60.5 -9 l0 76 q30 4 62 6 q32 2 61 2 ZM249 62 q68 0 116 27.5 q48 27.5 69 75.5 l0 89 l-159 0 q-33 0 -58 -4 q-25 -4 -41 -15.5 q-16 -11.5 -24 -31.5 q-8 -20 -8 -51 q0 -45 24 -67.5 q24 -22.5 81 -22.5 Z" /><glyph glyph-name="b" unicode="b" d="M352 550 q68 0 111.5 -20.5 q43.5 -20.5 68 -57.5 q24.5 -37 34 -88.5 q9.5 -51.5 9.5 -113.5 q0 -56 -9.5 -106.5 q-9.5 -50.5 -34 -89 q-24.5 -38.5 -68 -61.5 q-43.5 -23 -111.5 -23 q-79 0 -118.5 28 q-39.5 28 -56.5 76 l-11 -94 l-75 0 l0 760 l86 0 l0 -317 q17 48 57 77.5 q40 29.5 118 29.5 ZM341 63 q48 0 76.5 17.5 q28.5 17.5 43.5 46.5 q15 29 19.5 66.5 q4.5 37.5 4.5 76.5 q0 42 -5 80 q-5 38 -20 66.5 q-15 28.5 -43.5 45 q-28.5 16.5 -75.5 16.5 q-49 0 -81 -14.5 q-32 -14.5 -51.5 -41.5 q-19.5 -27 -27.5 -65.5 q-8 -38.5 -8 -86.5 q0 -47 8 -85 q8 -38 27.5 -65 q19.5 -27 51.5 -42 q32 -15 81 -15 Z" /><glyph glyph-name="c" unicode="c" d="M309 -10 q-60 0 -106.5 13.5 q-46.5 13.5 -78.5 46 q-32 32.5 -48.5 86 q-16.5 53.5 -16.5 134.5 q0 81 16.5 134.5 q16.5 53.5 48.5 86 q32 32.5 78.5 46 q46.5 13.5 106.5 13.5 q45 0 81.5 -6 q36.5 -6 59.5 -14 l0 -79 q-30 11 -64 17.5 q-34 6.5 -76 6.5 q-45 0 -75 -10 q-30 -10 -49 -33.5 q-19 -23.5 -27 -63 q-8 -39.5 -8 -99.5 q0 -59 8 -98 q8 -39 27 -62.5 q19 -23.5 49.5 -33 q30.5 -9.5 75.5 -9.5 q38 0 75 5.5 q37 5.5 66 17.5 l0 -79 q-11 -4 -27.5 -7.5 q-16.5 -3.5 -36 -6.5 q-19.5 -3 -40 -4.5 q-20.5 -1.5 -39.5 -1.5 Z" /><glyph glyph-name="d" unicode="d" d="M545 760 l0 -760 l-73 0 l-13 89 q-16 -43 -59 -71 q-43 -28 -117 -28 q-67 0 -110.5 20.5 q-43.5 20.5 -68.5 57.5 q-25 37 -34.5 88.5 q-9.5 51.5 -9.5 113.5 q0 55 9.5 106 q9.5 51 34.5 89.5 q25 38.5 68.5 61.5 q43.5 23 110.5 23 q40 0 69 -7.5 q29 -7.5 50 -21 q21 -13.5 35 -32.5 q14 -19 22 -43 l0 314 l86 0 ZM296 63 q49 0 81 14 q32 14 51 41 q19 27 26.5 65.5 q7.5 38.5 7.5 86.5 q0 46 -7.5 84.5 q-7.5 38.5 -26.5 66 q-19 27.5 -51 42.5 q-32 15 -81 15 q-49 0 -77.5 -17.5 q-28.5 -17.5 -43.5 -47 q-15 -29.5 -19 -67 q-4 -37.5 -4 -76.5 q0 -42 4.5 -80 q4.5 -38 19.5 -66 q15 -28 43.5 -44.5 q28.5 -16.5 76.5 -16.5 Z" /><glyph glyph-name="e" unicode="e" d="M520 324 q0 -11 -1.5 -27.5 q-1.5 -16.5 -3.5 -35.5 l-366 -23 q0 -44 9 -76.5 q9 -32.5 29 -53.5 q20 -21 53 -31.5 q33 -10.5 82 -10.5 q45 0 91.5 10 q46.5 10 77.5 25 l0 -79 q-12 -6 -31 -12 q-19 -6 -43 -10.5 q-24 -4.5 -51.5 -7 q-27.5 -2.5 -56.5 -2.5 q-60 0 -106.5 13.5 q-46.5 13.5 -78.5 46 q-32 32.5 -48.5 86 q-16.5 53.5 -16.5 134.5 q0 81 16.5 134.5 q16.5 53.5 48 86 q31.5 32.5 77 46 q45.5 13.5 103.5 13.5 q69 0 111.5 -20.5 q42.5 -20.5 65.5 -53 q23 -32.5 31 -73 q8 -40.5 8 -79.5 ZM435 323 q0 31 -4 59.5 q-4 28.5 -17.5 50 q-13.5 21.5 -39.5 34 q-26 12.5 -70 12.5 q-47 0 -76.5 -12 q-29.5 -12 -46.5 -35 q-17 -23 -24 -56 q-7 -33 -8 -74 l286 21 Z" /><glyph glyph-name="f" unicode="f" d="M290 695 q-28 0 -46 -7 q-18 -7 -29 -24.5 q-11 -17.5 -16 -47.5 q-5 -30 -5 -76 l127 0 l0 -71 l-127 0 l0 -469 l-86 0 l0 469 l-90 0 l0 71 l90 0 l0 5 q0 70 13 113 q13 43 37 66.5 q24 23.5 57.5 31.5 q33.5 8 74.5 8 q15 0 30.5 -1.5 q15.5 -1.5 29.5 -3.5 l0 -69 q-25 5 -60 5 Z" /><glyph glyph-name="g" unicode="g" d="M545 540 l0 -502 q0 -112 -63.5 -175 q-63.5 -63 -200.5 -63 q-35 0 -70 4 q-35 4 -61 9 l0 73 q61 -12 132 -12 q90 0 133.5 40 q43.5 40 43.5 133 l0 54 q-17 -48 -57 -74.5 q-40 -26.5 -118 -26.5 q-68 0 -111 20 q-43 20 -68.5 56 q-25.5 36 -35 86.5 q-9.5 50.5 -9.5 112.5 q0 56 9.5 106 q9.5 50 35 87.5 q25.5 37.5 68.5 59.5 q43 22 111 22 q41 0 70.5 -8.5 q29.5 -8.5 50 -23 q20.5 -14.5 33.5 -35 q13 -20.5 21 -44.5 l0 101 l86 0 ZM296 72 q49 0 81 13.5 q32 13.5 51 39.5 q19 26 26.5 64 q7.5 38 7.5 86 q0 46 -7.5 84 q-7.5 38 -26.5 64 q-19 26 -51 40.5 q-32 14.5 -81 14.5 q-49 0 -77.5 -17 q-28.5 -17 -43.5 -45 q-15 -28 -19 -65 q-4 -37 -4 -76 q0 -42 4.5 -79 q4.5 -37 19.5 -64.5 q15 -27.5 43.5 -43.5 q28.5 -16 76.5 -16 Z" /><glyph glyph-name="h" unicode="h" d="M350 550 q53 0 88 -13 q35 -13 55.5 -36.5 q20.5 -23.5 29 -55.5 q8.5 -32 8.5 -71 l0 -374 l-86 0 l0 342 q0 31 -4 55.5 q-4 24.5 -15.5 41 q-11.5 16.5 -32 25.5 q-20.5 9 -52.5 9 q-26 0 -50.5 -3.5 q-24.5 -3.5 -46 -15 q-21.5 -11.5 -39 -32.5 q-17.5 -21 -28.5 -57 l0 -365 l-86 0 l0 760 l86 0 l0 -297 q12 26 31.5 43 q19.5 17 42.5 26.5 q23 9.5 48.5 13.5 q25.5 4 50.5 4 Z" /><glyph glyph-name="i" unicode="i" d="M135 639 q-29 0 -40.5 9 q-11.5 9 -11.5 42 q0 34 11.5 42.5 q11.5 8.5 40.5 8.5 q27 0 39 -8.5 q12 -8.5 12 -42.5 q0 -33 -12 -42 q-12 -9 -39 -9 ZM91 540 l86 0 l0 -540 l-86 0 l0 540 Z" /><glyph glyph-name="j" unicode="j" d="M135 639 q-29 0 -40.5 9 q-11.5 9 -11.5 42 q0 34 11.5 42.5 q11.5 8.5 40.5 8.5 q27 0 39 -8.5 q12 -8.5 12 -42.5 q0 -33 -12 -42 q-12 -9 -39 -9 ZM-7 -200 q-16 0 -31.5 1.5 q-15.5 1.5 -31.5 3.5 l0 71 q14 -2 32 -3.5 q18 -1.5 37 -1.5 q29 0 47 7 q18 7 28 24 q10 17 13.5 45 q3.5 28 3.5 69 l0 524 l86 0 l0 -533 q0 -65 -11.5 -105.5 q-11.5 -40.5 -34.5 -63 q-23 -22.5 -57.5 -30.5 q-34.5 -8 -80.5 -8 Z" /><glyph glyph-name="k" unicode="k" d="M514 0 l-111 0 l-197 252 l-29 0 l0 -252 l-86 0 l0 760 l86 0 l0 -441 l31 0 l187 221 l107 0 l-227 -251 l239 -289 Z" /><glyph glyph-name="l" unicode="l" d="M211 -6 q-60 0 -90 27 q-30 27 -30 88 l0 651 l86 0 l0 -629 q0 -41 12 -53 q12 -12 38 -12 q9 0 19.5 1 q10.5 1 21.5 4 l0 -71 q-12 -3 -25.5 -4.5 q-13.5 -1.5 -31.5 -1.5 Z" /><glyph glyph-name="m" unicode="m" d="M658 550 q47 0 80.5 -13 q33.5 -13 55 -36.5 q21.5 -23.5 31.5 -56 q10 -32.5 10 -71.5 l0 -373 l-86 0 l0 342 q0 63 -21.5 97 q-21.5 34 -82.5 34 q-24 0 -45.5 -4 q-21.5 -4 -39.5 -14.5 q-18 -10.5 -32 -29 q-14 -18.5 -23 -47.5 l0 -4 l0 -374 l-86 0 l0 342 q0 62 -20 96.5 q-20 34.5 -79 34.5 q-25 0 -47 -3.5 q-22 -3.5 -40 -14 q-18 -10.5 -32 -30 q-14 -19.5 -24 -50.5 l0 -375 l-86 0 l0 540 l86 0 l0 -71 q25 48 66 64.5 q41 16.5 90 16.5 q64 0 102 -23.5 q38 -23.5 55 -64.5 q12 26 30.5 43 q18.5 17 41 27 q22.5 10 47 14 q24.5 4 49.5 4 Z" /><glyph glyph-name="n" unicode="n" d="M350 550 q53 0 88 -13 q35 -13 55.5 -36.5 q20.5 -23.5 29 -55.5 q8.5 -32 8.5 -71 l0 -374 l-87 0 l0 342 q0 31 -4 55.5 q-4 24.5 -15.5 41 q-11.5 16.5 -31.5 25.5 q-20 9 -52 9 q-26 0 -50.5 -3.5 q-24.5 -3.5 -46 -15 q-21.5 -11.5 -39 -32.5 q-17.5 -21 -28.5 -57 l0 -365 l-86 0 l0 540 l86 0 l0 -77 q12 26 31.5 43 q19.5 17 42.5 26.5 q23 9.5 48.5 13.5 q25.5 4 50.5 4 Z" /><glyph glyph-name="o" unicode="o" d="M309 -10 q-60 0 -106.5 13.5 q-46.5 13.5 -78.5 46 q-32 32.5 -48.5 86 q-16.5 53.5 -16.5 134.5 q0 81 16.5 134.5 q16.5 53.5 48.5 86 q32 32.5 78.5 46 q46.5 13.5 106.5 13.5 q60 0 106.5 -13.5 q46.5 -13.5 78 -46 q31.5 -32.5 48 -86 q16.5 -53.5 16.5 -134.5 q0 -81 -16.5 -134.5 q-16.5 -53.5 -48 -86 q-31.5 -32.5 -78 -46 q-46.5 -13.5 -106.5 -13.5 ZM309 63 q46 0 76.5 10 q30.5 10 48.5 34 q18 24 25.5 64 q7.5 40 7.5 99 q0 59 -8 99 q-8 40 -26.5 64 q-18.5 24 -49 34.5 q-30.5 10.5 -74.5 10.5 q-45 0 -75.5 -10.5 q-30.5 -10.5 -49 -34.5 q-18.5 -24 -26 -64 q-7.5 -40 -7.5 -99 q0 -59 8 -99 q8 -40 27 -64 q19 -24 49 -34 q30 -10 74 -10 Z" /><glyph glyph-name="p" unicode="p" d="M352 550 q68 0 111.5 -20.5 q43.5 -20.5 68 -57.5 q24.5 -37 34 -88.5 q9.5 -51.5 9.5 -113.5 q0 -56 -9.5 -106.5 q-9.5 -50.5 -34 -89 q-24.5 -38.5 -68 -61.5 q-43.5 -23 -111.5 -23 q-79 0 -118.5 28 q-39.5 28 -56.5 76 l0 -294 l-86 0 l0 740 l86 0 l0 -97 q17 48 57 77.5 q40 29.5 118 29.5 ZM341 63 q48 0 76.5 17.5 q28.5 17.5 43.5 46.5 q15 29 19.5 66.5 q4.5 37.5 4.5 76.5 q0 43 -5 80.5 q-5 37.5 -20 66 q-15 28.5 -43.5 45 q-28.5 16.5 -75.5 16.5 q-49 0 -81 -14.5 q-32 -14.5 -51.5 -41.5 q-19.5 -27 -27.5 -65.5 q-8 -38.5 -8 -86.5 q0 -47 8 -85 q8 -38 27.5 -65 q19.5 -27 51.5 -42 q32 -15 81 -15 Z" /><glyph glyph-name="q" unicode="q" d="M546 540 l0 -740 l-86 0 l0 302 q-8 -25 -21.5 -45.5 q-13.5 -20.5 -34.5 -35.5 q-21 -15 -51 -23 q-30 -8 -70 -8 q-67 0 -110.5 20.5 q-43.5 20.5 -68.5 57.5 q-25 37 -34.5 88.5 q-9.5 51.5 -9.5 113.5 q0 55 9.5 106 q9.5 51 34.5 89.5 q25 38.5 68.5 61.5 q43.5 23 110.5 23 q40 0 70 -7.5 q30 -7.5 51 -21.5 q21 -14 34.5 -34 q13.5 -20 21.5 -44 l0 97 l86 0 ZM296 63 q49 0 81 14 q32 14 51 41 q19 27 26.5 65.5 q7.5 38.5 7.5 86.5 q0 46 -7.5 84.5 q-7.5 38.5 -26.5 66 q-19 27.5 -51 42.5 q-32 15 -81 15 q-49 0 -77.5 -17.5 q-28.5 -17.5 -43.5 -47 q-15 -29.5 -19 -67 q-4 -37.5 -4 -76.5 q0 -42 4.5 -80 q4.5 -38 19.5 -66 q15 -28 43.5 -44.5 q28.5 -16.5 76.5 -16.5 Z" /><glyph glyph-name="r" unicode="r" d="M359 550 l-3 -78 l-12 0 q-26 0 -51 -5 q-25 -5 -47 -18.5 q-22 -13.5 -40 -36.5 q-18 -23 -29 -59 l0 -353 l-86 0 l0 540 l86 0 l0 -98 q13 34 32 55 q19 21 42 33 q23 12 48.5 16 q25.5 4 49.5 4 l10 0 Z" /><glyph glyph-name="s" unicode="s" d="M216 -6 q-20 0 -42.5 1.5 q-22.5 1.5 -44.5 3.5 q-22 2 -40.5 5.5 q-18.5 3.5 -29.5 6.5 l0 74 q14 -4 33.5 -8 q19.5 -4 40.5 -7 q21 -3 42.5 -4.5 q21.5 -1.5 39.5 -1.5 q62 0 93.5 17.5 q31.5 17.5 31.5 65.5 q0 24 -4.5 39.5 q-4.5 15.5 -17.5 26 q-13 10.5 -36.5 18.5 q-23.5 8 -62.5 17 q-45 10 -74 23 q-29 13 -46 31 q-17 18 -24 43 q-7 25 -7 59 q0 66 48.5 106 q48.5 40 145.5 40 q39 0 77.5 -5 q38.5 -5 58.5 -13 l-6 -73 q-23 9 -57 15 q-34 6 -72 6 q-57 0 -85.5 -16 q-28.5 -16 -28.5 -62 q0 -21 4.5 -34 q4.5 -13 15.5 -22.5 q11 -9.5 31 -16 q20 -6.5 52 -13.5 q46 -11 78.5 -23.5 q32.5 -12.5 52.5 -31 q20 -18.5 29 -45.5 q9 -27 9 -66 q0 -81 -52.5 -118.5 q-52.5 -37.5 -152.5 -37.5 Z" /><glyph glyph-name="t" unicode="t" d="M259 66 q18 0 31.5 1.5 q13.5 1.5 27.5 4.5 l0 -73 q-16 -2 -30 -3.5 q-14 -1.5 -31 -1.5 q-45 0 -75.5 6.5 q-30.5 6.5 -50 25.5 q-19.5 19 -28 52.5 q-8.5 33.5 -8.5 86.5 l0 303 l-80 0 l0 72 l80 0 l0 128 l86 0 l0 -128 l134 0 l0 -72 l-134 0 l0 -298 q0 -32 3 -52 q3 -20 11.5 -31.5 q8.5 -11.5 23.5 -16 q15 -4.5 40 -4.5 Z" /><glyph glyph-name="u" unicode="u" d="M522 540 l0 -540 l-73 0 l-11 78 q-12 -27 -31 -44 q-19 -17 -41.5 -26.5 q-22.5 -9.5 -47.5 -13.5 q-25 -4 -50 -4 q-53 0 -88 13 q-35 13 -55.5 36 q-20.5 23 -29 55.5 q-8.5 32.5 -8.5 71.5 l0 374 l86 0 l0 -342 q0 -31 4 -55.5 q4 -24.5 15.5 -41.5 q11.5 -17 32 -26 q20.5 -9 52.5 -9 q25 0 49 3.5 q24 3.5 44.5 15 q20.5 11.5 37 32.5 q16.5 21 28.5 56 l0 367 l86 0 Z" /><glyph glyph-name="v" unicode="v" d="M10 540 l87 0 l164 -454 l6 0 l158 454 l91 0 l-202 -540 l-102 0 l-202 540 Z" /><glyph glyph-name="w" unicode="w" d="M22 540 l86 0 l114 -453 l6 0 l134 453 l102 0 l138 -453 l6 0 l114 453 l85 0 l-150 -540 l-107 0 l-134 443 l-6 0 l-135 -443 l-107 0 l-146 540 Z" /><glyph glyph-name="x" unicode="x" d="M200 275 l-175 265 l96 0 l136 -213 l6 0 l134 213 l95 0 l-174 -263 l184 -277 l-98 0 l-142 223 l-6 0 l-146 -223 l-96 0 l186 275 Z" /><glyph glyph-name="y" unicode="y" d="M67 -126 q70 0 104.5 31 q34.5 31 54.5 96 l-216 539 l93 0 l165 -448 l6 0 l156 448 l87 0 l-194 -522 q-19 -51 -39 -91 q-20 -40 -48.5 -68.5 q-28.5 -28.5 -68.5 -43.5 q-40 -15 -100 -15 l0 74 Z" /><glyph glyph-name="z" unicode="z" d="M44 70 l304 393 l0 6 l-280 0 l0 71 l385 0 l0 -65 l-306 -395 l0 -6 l323 0 l0 -74 l-426 0 l0 70 Z" /><glyph glyph-name="braceleft" unicode="{" d="M265 -200 q-152 0 -152 153 l0 226 q0 35 -13.5 48 q-13.5 13 -50.5 13 l0 80 q37 0 50.5 13 q13.5 13 13.5 48 l0 226 q0 153 152 153 l0 -80 q-38 0 -51.5 -14.5 q-13.5 -14.5 -13.5 -58.5 l0 -226 q0 -39 -12.5 -63 q-12.5 -24 -37.5 -38 q25 -14 37.5 -38 q12.5 -24 12.5 -63 l0 -226 q0 -44 13.5 -58.5 q13.5 -14.5 51.5 -14.5 l0 -80 Z" /><glyph glyph-name="bar" unicode="|" d="M50 760 l83 0 l0 -960 l-83 0 l0 960 Z" /><glyph glyph-name="braceright" unicode="}" d="M34 -120 q38 0 51.5 14.5 q13.5 14.5 13.5 58.5 l0 226 q0 39 12.5 63 q12.5 24 37.5 38 q-25 14 -37.5 38 q-12.5 24 -12.5 63 l0 226 q0 44 -13.5 58.5 q-13.5 14.5 -51.5 14.5 l0 80 q152 0 152 -153 l0 -226 q0 -35 14 -48 q14 -13 50 -13 l0 -80 q-36 0 -50 -13 q-14 -13 -14 -48 l0 -226 q0 -153 -152 -153 l0 80 Z" /><glyph glyph-name="asciitilde" unicode="~" d="M387 216 q-47 0 -79.5 17.5 q-32.5 17.5 -54.5 33.5 q-23 17 -41.5 27.5 q-18.5 10.5 -45.5 10.5 q-26 0 -41 -20 q-15 -20 -19 -64 l-78 6 q6 74 42 115.5 q36 41.5 96 41.5 q47 0 78.5 -17.5 q31.5 -17.5 54.5 -33.5 q12 -9 21.5 -16 q9.5 -7 19.5 -12 q10 -5 21.5 -7.5 q11.5 -2.5 25.5 -2.5 q25 0 40 20 q15 20 19 64 l78 -6 q-6 -74 -41.5 -115.5 q-35.5 -41.5 -95.5 -41.5 Z" /><glyph glyph-name="nonbreakingspace" unicode=" " d="" /><glyph glyph-name="registered" unicode="®" d="M203 708 q41 0 74 -12.5 q33 -12.5 56.5 -36 q23.5 -23.5 36 -56.5 q12.5 -33 12.5 -73 q0 -42 -13 -75.5 q-13 -33.5 -36.5 -57 q-23.5 -23.5 -56.5 -36.5 q-33 -13 -74 -13 q-84 0 -132 47.5 q-48 47.5 -48 131.5 q0 82 48 131.5 q48 49.5 133 49.5 ZM202 393 q64 0 98 36 q34 36 34 100 q0 64 -34 98.5 q-34 34.5 -98 34.5 q-63 0 -96.5 -36 q-33.5 -36 -33.5 -98 q0 -66 32.5 -100.5 q32.5 -34.5 97.5 -34.5 ZM284 561 q0 -45 -40 -57 l43 -74 l-58 0 l-34 68 l-16 0 l0 -68 l-50 0 l0 197 l77 0 q15 0 29 -2.5 q14 -2.5 25 -9.5 q11 -7 17.5 -20 q6.5 -13 6.5 -34 ZM179 534 l19 0 q13 0 24 3.5 q11 3.5 11 23.5 q0 18 -9 22 q-9 4 -26 4 l-19 0 l0 -53 Z" /><glyph glyph-name="degree" unicode="°" d="M181 380 q-33 0 -62.5 13 q-29.5 13 -51.5 35 q-22 22 -34.5 51.5 q-12.5 29.5 -12.5 62.5 q0 33 12.5 62.5 q12.5 29.5 34.5 51 q22 21.5 51.5 34.5 q29.5 13 62.5 13 q33 0 62.5 -13 q29.5 -13 51.5 -34.5 q22 -21.5 35 -51 q13 -29.5 13 -62.5 q0 -33 -13 -62.5 q-13 -29.5 -35 -51.5 q-22 -22 -51.5 -35 q-29.5 -13 -62.5 -13 ZM181 456 q36 0 61 25 q25 25 25 61 q0 35 -25 60 q-25 25 -61 25 q-18 0 -33.5 -6.5 q-15.5 -6.5 -27 -18 q-11.5 -11.5 -18.5 -27 q-7 -15.5 -7 -33.5 q0 -18 7 -33.5 q7 -15.5 18.5 -27.5 q11.5 -12 27 -18.5 q15.5 -6.5 33.5 -6.5 Z" /><glyph glyph-name="uni03BC" unicode="&#x3bc;" d="M522 540 l0 -540 l-73 0 l-11 78 q-12 -26 -31 -43 q-19 -17 -41.5 -27 q-22.5 -10 -47 -14 q-24.5 -4 -48.5 -4 q-35 0 -58.5 7 q-23.5 7 -38.5 21 l0 -218 l-86 0 l0 740 l86 0 l0 -342 q0 -31 4 -55.5 q4 -24.5 15.5 -41.5 q11.5 -17 32 -26 q20.5 -9 52.5 -9 q25 0 49 3.5 q24 3.5 44.5 15 q20.5 11.5 37 32.5 q16.5 21 28.5 56 l0 367 l86 0 Z" /><glyph glyph-name="periodcentered" unicode="·" d="M151 267 q-35 0 -49.5 11 q-14.5 11 -14.5 52 q0 41 14.5 52 q14.5 11 49.5 11 q34 0 49 -11 q15 -11 15 -52 q0 -41 -15 -52 q-15 -11 -49 -11 Z" /><glyph glyph-name="multiply" unicode="×" d="M452 67 l-176 176 l-176 -176 l-58 57 l176 177 l-175 175 l57 58 l176 -175 l175 175 l58 -58 l-175 -175 l176 -176 l-58 -58 Z" /><glyph glyph-name="Ucircumflex" unicode="Û" d="M296 893 l109 0 l135 -148 l-80 0 l-109 90 l-110 -90 l-80 0 l135 148 ZM350 -10 q-131 0 -196 53.5 q-65 53.5 -65 180.5 l0 470 l89 0 l0 -450 q0 -50 9 -83.5 q9 -33.5 29.5 -53.5 q20.5 -20 53.5 -29 q33 -9 81 -9 q50 0 83.5 9 q33.5 9 53.5 29 q20 20 28 53.5 q8 33.5 8 83.5 l0 450 l89 0 l0 -470 q0 -123 -66 -178.5 q-66 -55.5 -197 -55.5 Z" /><glyph glyph-name="eacute" unicode="é" d="M312 615 l-70 0 l84 138 l110 0 l-124 -138 ZM520 324 q0 -11 -1.5 -27.5 q-1.5 -16.5 -3.5 -35.5 l-366 -23 q0 -44 9 -76.5 q9 -32.5 29 -53.5 q20 -21 53 -31.5 q33 -10.5 82 -10.5 q45 0 91.5 10 q46.5 10 77.5 25 l0 -79 q-12 -6 -31 -12 q-19 -6 -43 -10.5 q-24 -4.5 -51.5 -7 q-27.5 -2.5 -56.5 -2.5 q-60 0 -106.5 13.5 q-46.5 13.5 -78.5 46 q-32 32.5 -48.5 86 q-16.5 53.5 -16.5 134.5 q0 81 16.5 134.5 q16.5 53.5 48 86 q31.5 32.5 77 46 q45.5 13.5 103.5 13.5 q69 0 111.5 -20.5 q42.5 -20.5 65.5 -53 q23 -32.5 31 -73 q8 -40.5 8 -79.5 ZM435 323 q0 31 -4 59.5 q-4 28.5 -17.5 50 q-13.5 21.5 -39.5 34 q-26 12.5 -70 12.5 q-47 0 -76.5 -12 q-29.5 -12 -46.5 -35 q-17 -23 -24 -56 q-7 -33 -8 -74 l286 21 Z" /><glyph glyph-name="tau" unicode="&#x3c4;" d="M241 468 l0 -298 q0 -32 2.5 -52 q2.5 -20 9.5 -31.5 q7 -11.5 19.5 -16 q12.5 -4.5 32.5 -4.5 q15 0 26.5 1.5 q11.5 1.5 22.5 4.5 l0 -73 q-13 -2 -24.5 -3.5 q-11.5 -1.5 -26.5 -1.5 q-39 0 -67 7 q-28 7 -46 26 q-18 19 -26.5 52.5 q-8.5 33.5 -8.5 86.5 l0 302 l-150 0 l0 72 l410 0 l0 -72 l-174 0 Z" /><glyph glyph-name="endash" unicode="&#x2013;" d="M70 341 l355 0 l0 -68 l-355 0 l0 68 Z" /><glyph glyph-name="uni2015" unicode="&#x2015;" d="M70 341 l545 0 l0 -68 l-545 0 l0 68 Z" /><glyph glyph-name="bullet" unicode="&#x2022;" d="M154 198 q-31 0 -52 4 q-21 4 -34.5 15.5 q-13.5 11.5 -19.5 33.5 q-6 22 -6 58 q0 36 6 57.5 q6 21.5 19.5 33.5 q13.5 12 34.5 15.5 q21 3.5 52 3.5 q30 0 51 -3.5 q21 -3.5 34.5 -15.5 q13.5 -12 19.5 -33.5 q6 -21.5 6 -57.5 q0 -36 -6 -58 q-6 -22 -19.5 -33.5 q-13.5 -11.5 -34.5 -15.5 q-21 -4 -51 -4 Z" /><glyph glyph-name="trademark" unicode="&#x2122;" d="M341 625 l-123 0 l0 -343 l-84 0 l0 343 l-123 0 l0 73 l330 0 l0 -73 ZM851 697 l0 -416 l-83 0 l0 334 l-4 0 l-94 -253 l-86 0 l-94 253 l-3 0 l0 -334 l-82 0 l0 416 l132 0 l90 -239 l4 0 l91 239 l129 0 Z" /><glyph glyph-name="uni03A9" unicode="&#x3a9;" d="M82 71 l124 0 q-30 32 -54.5 66 q-24.5 34 -42 73 q-17.5 39 -27 83 q-9.5 44 -9.5 97 q0 161 75 237.5 q75 76.5 223 76.5 q149 0 223.5 -76.5 q74.5 -76.5 74.5 -237.5 q0 -53 -9.5 -97 q-9.5 -44 -27 -83 q-17.5 -39 -42 -73 q-24.5 -34 -54.5 -66 l125 0 l0 -71 l-226 0 l0 65 q40 42 67.5 80 q27.5 38 44 76 q16.5 38 23.5 77 q7 39 7 81 q0 51 -8.5 96.5 q-8.5 45.5 -31 79.5 q-22.5 34 -62.5 53.5 q-40 19.5 -104 19.5 q-63 0 -103 -19.5 q-40 -19.5 -62.5 -53.5 q-22.5 -34 -31 -79.5 q-8.5 -45.5 -8.5 -96.5 q0 -42 7 -81 q7 -39 23 -77 q16 -38 43 -76 q27 -38 68 -80 l0 -65 l-225 0 l0 71 Z" /><glyph glyph-name="notequal" unicode="&#x2260;" d="M384 376 l-105 -151 l238 0 l0 -85 l-287 0 l-60 -87 l-111 0 l60 87 l-84 0 l0 85 l133 0 l105 151 l-238 0 l0 85 l287 0 l60 86 l111 0 l-60 -86 l84 0 l0 -85 l-133 0 Z" /><glyph glyph-name="greaterequal" unicode="&#x2265;" d="M517 427 l0 -135 l-482 -176 l0 85 l437 159 l-437 159 l0 85 l482 -177 ZM35 77 l482 0 l0 -78 l-482 0 l0 78 Z" /><glyph glyph-name="uniFF11" unicode="&#xff11;" d="M533 612 l-172 -33 l0 73 l203 42 l59 0 l0 -694 l-90 0 l0 612 Z" /><glyph glyph-name="uniFF12" unicode="&#xff12;" d="M607 506 q0 68 -42.5 95.5 q-42.5 27.5 -104.5 27.5 q-79 0 -148 -18 l0 77 q68 16 158 16 q106 0 164.5 -48 q58.5 -48 58.5 -151 q0 -64 -26 -118 q-26 -54 -87 -116.5 q-61 -62.5 -177 -154.5 l-40 -31 l0 -9 l358 0 l0 -76 l-457 0 l0 95 q145 114 218.5 186 q73.5 72 99 121.5 q25.5 49.5 25.5 103.5 Z" /><glyph glyph-name="uniFF13" unicode="&#xff13;" d="M281 3 l0 79 q69 -17 155 -17 q182 0 182 127 q0 72 -48.5 102 q-48.5 30 -150.5 30 l-55 0 l0 69 l54 0 q89 0 137 33 q48 33 48 91 q0 60 -36 86.5 q-36 26.5 -112 26.5 q-31 0 -70 -5.5 q-39 -5.5 -71 -14.5 l0 74 q26 9 66.5 14.5 q40.5 5.5 78.5 5.5 q114 0 170.5 -44 q56.5 -44 56.5 -138 q0 -65 -31.5 -102.5 q-31.5 -37.5 -91.5 -55.5 l0 -6 q141 -24 141 -167 q0 -98 -66 -149.5 q-66 -51.5 -201 -51.5 q-90 0 -156 13 Z" /><glyph glyph-name="ellipsis" unicode="&#x2026;" d="M843 58 q0 39 13.5 50.5 q13.5 11.5 50.5 11.5 q37 0 50.5 -11.5 q13.5 -11.5 13.5 -50.5 q0 -40 -13.5 -52 q-13.5 -12 -50.5 -12 q-25 0 -38.5 4.5 q-13.5 4.5 -19.5 18 q-6 13.5 -6 41.5 ZM178 120 q37 0 50.5 -11.5 q13.5 -11.5 13.5 -50.5 q0 -40 -13.5 -52 q-13.5 -12 -50.5 -12 q-25 0 -38 4.5 q-13 4.5 -19 18 q-6 13.5 -6 41.5 q0 39 13 50.5 q13 11.5 50 11.5 ZM544 120 q37 0 50.5 -11.5 q13.5 -11.5 13.5 -50.5 q0 -40 -13.5 -52 q-13.5 -12 -50.5 -12 q-25 0 -38.5 4.5 q-13.5 4.5 -19.5 18 q-6 13.5 -6 41.5 q0 39 13.5 50.5 q13.5 11.5 50.5 11.5 Z" /><glyph glyph-name="uniFF1A" unicode="&#xff1a;" d="M187 483 q0 40 13.5 51.5 q13.5 11.5 50.5 11.5 q37 0 50.5 -12 q13.5 -12 13.5 -51 q0 -39 -13.5 -51 q-13.5 -12 -50.5 -12 q-37 0 -50.5 11.5 q-13.5 11.5 -13.5 51.5 ZM251 120 q37 0 50.5 -11.5 q13.5 -11.5 13.5 -50.5 q0 -40 -13.5 -52 q-13.5 -12 -50.5 -12 q-25 0 -38.5 4.5 q-13.5 4.5 -19.5 18 q-6 13.5 -6 41.5 q0 39 13.5 50.5 q13.5 11.5 50.5 11.5 Z" /><glyph glyph-name="uniFF0C" unicode="&#xff0c;" d="M234 127 l83 0 q0 -59 -32.5 -133.5 q-32.5 -74.5 -74.5 -129.5 l-70 0 q42 64 68 136 q26 72 26 127 Z" /><glyph glyph-name="uniFF01" unicode="&#xff01;" d="M209 694 l84 0 l-10 -517 l-64 0 l-10 517 ZM250 120 q37 0 50.5 -11.5 q13.5 -11.5 13.5 -50.5 q0 -40 -13.5 -52 q-13.5 -12 -50.5 -12 q-25 0 -38 4.5 q-13 4.5 -19 18 q-6 13.5 -6 41.5 q0 39 13 50.5 q13 11.5 50 11.5 Z" /><glyph glyph-name="uniFF05" unicode="&#xff05;" d="M652 694 l67 0 l-389 -694 l-66 0 l388 694 ZM292 704 q70 0 106 -43 q36 -43 36 -148 q0 -105 -36 -147.5 q-36 -42.5 -106 -42.5 q-70 0 -106 42.5 q-36 42.5 -36 147.5 q0 105 36 148 q36 43 106 43 ZM292 375 q29 0 45.5 12 q16.5 12 23.5 41.5 q7 29.5 7 84.5 q0 54 -7 83 q-7 29 -23.5 41 q-16.5 12 -45.5 12 q-28 0 -44 -12 q-16 -12 -23.5 -41 q-7.5 -29 -7.5 -83 q0 -54 7.5 -84 q7.5 -30 23.5 -42 q16 -12 44 -12 ZM693 371 q70 0 106 -43 q36 -43 36 -148 q0 -105 -36 -147.5 q-36 -42.5 -106 -42.5 q-70 0 -106.5 42.5 q-36.5 42.5 -36.5 147.5 q0 105 36.5 148 q36.5 43 106.5 43 ZM693 42 q29 0 45 12 q16 12 23 41.5 q7 29.5 7 84.5 q0 54 -7 83 q-7 29 -23 41 q-16 12 -45 12 q-28 0 -44 -12 q-16 -12 -23.5 -41 q-7.5 -29 -7.5 -83 q0 -54 7.5 -84 q7.5 -30 23.5 -42 q16 -12 44 -12 Z" /><glyph glyph-name="uniFF0E" unicode="&#xff0e;" d="M187 58 q0 39 13.5 50.5 q13.5 11.5 50.5 11.5 q37 0 50.5 -11.5 q13.5 -11.5 13.5 -50.5 q0 -40 -13.5 -52 q-13.5 -12 -50.5 -12 q-25 0 -38.5 4.5 q-13.5 4.5 -19.5 18 q-6 13.5 -6 41.5 Z" /><glyph glyph-name="uniFF1F" unicode="&#xff1f;" d="M303 370 q40 34 60.5 63 q20.5 29 20.5 78 q0 64 -30.5 87.5 q-30.5 23.5 -101.5 23.5 q-85 0 -142 -22 l0 77 q35 11 70 18 q35 7 80 7 q111 0 164 -43 q53 -43 53 -141 q0 -51 -14.5 -87.5 q-14.5 -36.5 -35.5 -59 q-21 -22.5 -54 -49.5 q-37 -30 -55 -53.5 q-18 -23.5 -18 -59.5 l0 -29 l-83 0 l0 35 q0 39 12 66.5 q12 27.5 28.5 45.5 q16.5 18 45.5 43 ZM260 120 q37 0 50.5 -11.5 q13.5 -11.5 13.5 -50.5 q0 -40 -13.5 -52 q-13.5 -12 -50.5 -12 q-25 0 -38 4.5 q-13 4.5 -19 18 q-6 13.5 -6 41.5 q0 39 13 50.5 q13 11.5 50 11.5 Z" /><glyph glyph-name="uniFF02" unicode="&#xff02;" d="M518 760 l100 0 l-22 -296 l-55 0 l-23 296 ZM467 760 l-23 -296 l-54 0 l-23 296 l100 0 Z" /><glyph glyph-name="uniFF1B" unicode="&#xff1b;" d="M234 127 l83 0 q0 -59 -32.5 -133.5 q-32.5 -74.5 -74.5 -129.5 l-70 0 q42 64 68 136 q26 72 26 127 ZM271 546 q37 0 50.5 -12 q13.5 -12 13.5 -51 q0 -39 -13.5 -51 q-13.5 -12 -50.5 -12 q-37 0 -50.5 11.5 q-13.5 11.5 -13.5 51.5 q0 40 13.5 51.5 q13.5 11.5 50.5 11.5 Z" /><glyph glyph-name="uni3010" unicode="&#x3010;" d="M603 770 l204 0 q-45 -72 -78 -193 q-33 -121 -33 -245 q0 -93 16 -181.5 q16 -88.5 41.5 -156.5 q25.5 -68 53.5 -104 l-204 0 l0 880 Z" /><glyph glyph-name="uni3011" unicode="&#x3011;" d="M288 332 q0 124 -33 245 q-33 121 -78 193 l204 0 l0 -880 l-204 0 q28 36 53.5 104 q25.5 68 41.5 156.5 q16 88.5 16 181.5 Z" /><glyph glyph-name="uni300C" unicode="&#x300c;" d="M603 770 l189 0 l0 -74 l-102 0 l0 -446 l-87 0 l0 520 Z" /><glyph glyph-name="uni300D" unicode="&#x300d;" d="M192 -36 l102 0 l0 446 l87 0 l0 -520 l-189 0 l0 74 Z" /><glyph glyph-name="uni300A" unicode="&#x300a;" d="M600 331 l175 439 l87 0 l-175 -439 l175 -441 l-87 0 l-175 441 ZM575 770 l87 0 l-175 -439 l175 -441 l-87 0 l-175 441 l175 439 Z" /><glyph glyph-name="uni300B" unicode="&#x300b;" d="M497 331 l-175 439 l87 0 l175 -439 l-175 -441 l-87 0 l175 441 ZM297 331 l-175 439 l87 0 l175 -439 l-175 -441 l-87 0 l175 441 Z" /><glyph glyph-name="uni300E" unicode="&#x300e;" d="M551 791 l291 0 l0 -160 l-114 0 l0 -411 l-177 0 l0 571 ZM674 270 l0 411 l115 0 l0 60 l-184 0 l0 -471 l69 0 Z" /><glyph glyph-name="uni300F" unicode="&#x300f;" d="M142 50 l114 0 l0 411 l177 0 l0 -571 l-291 0 l0 160 ZM379 -60 l0 471 l-69 0 l0 -411 l-115 0 l0 -60 l184 0 Z" /><glyph glyph-name="uniFF08" unicode="&#xff08;" d="M569 324 q0 123 37 233 q37 110 114 213 l82 0 q-79 -112 -113 -218.5 q-34 -106.5 -34 -220.5 q0 -117 34 -225 q34 -108 110 -216 l-82 0 q-148 195 -148 434 Z" /><glyph glyph-name="uniFF09" unicode="&#xff09;" d="M329 331 q0 114 -34 220.5 q-34 106.5 -113 218.5 l82 0 q77 -103 114 -213 q37 -110 37 -233 q0 -239 -148 -434 l-82 0 q76 108 110 216 q34 108 34 225 Z" /><glyph glyph-name="emdash" unicode="&#x2014;" d="M70 341 l545 0 l0 -68 l-545 0 l0 68 Z" /><glyph glyph-name="uniFF0D" unicode="&#xff0d;" d="M345 343 l295 0 l0 -72 l-295 0 l0 72 Z" /><glyph glyph-name="quotedblleft" unicode="&#x201c;" d="M437 760 l64 0 q-24 -64 -39.5 -132.5 q-15.5 -68.5 -15.5 -123.5 l-85 0 q0 51 22.5 122.5 q22.5 71.5 53.5 133.5 ZM635 760 l64 0 q-24 -64 -39.5 -132.5 q-15.5 -68.5 -15.5 -123.5 l-84 0 q0 51 22 123 q22 72 53 133 Z" /><glyph glyph-name="quotedblright" unicode="&#x201d;" d="M140 760 l85 0 q0 -50 -22.5 -122.5 q-22.5 -72.5 -53.5 -133.5 l-64 0 q24 64 39.5 133 q15.5 69 15.5 123 ZM339 760 l84 0 q0 -50 -22.5 -122.5 q-22.5 -72.5 -53.5 -133.5 l-63 0 q24 64 39.5 133 q15.5 69 15.5 123 Z" /><glyph glyph-name="quoteleft" unicode="&#x2018;" d="M141 760 l64 0 q-24 -64 -39.5 -132.5 q-15.5 -68.5 -15.5 -123.5 l-85 0 q0 51 22.5 122.5 q22.5 71.5 53.5 133.5 Z" /><glyph glyph-name="quoteright" unicode="&#x2019;" d="M120 760 l85 0 q0 -50 -22.5 -122.5 q-22.5 -72.5 -53.5 -133.5 l-64 0 q24 64 39.5 133 q15.5 69 15.5 123 Z" /><glyph glyph-name="uni3001" unicode="&#x3001;" d="M117 90 l55 37 q44 -28 92 -78 q48 -50 84 -103 l-70 -42 q-26 47 -73.5 101 q-47.5 54 -87.5 85 Z" /><glyph glyph-name="uni3002" unicode="&#x3002;" d="M102 15 q0 60 38 93 q38 33 95 33 q57 0 95 -33 q38 -33 38 -93 q0 -60 -38 -93 q-38 -33 -95 -33 q-57 0 -95 33 q-38 33 -38 93 ZM235 -58 q33 0 54 19 q21 19 21 54 q0 35 -21 54 q-21 19 -54 19 q-33 0 -54 -19 q-21 -19 -21 -54 q0 -35 21 -54 q21 -19 54 -19 Z" /><glyph glyph-name="uniFF5E" unicode="&#xff5e;" d="M469 267 q-28 21 -45.5 29.5 q-17.5 8.5 -41.5 8.5 q-53 0 -60 -84 l-78 6 q6 74 42 115.5 q36 41.5 96 41.5 q41 0 70 -13.5 q29 -13.5 63 -37.5 q29 -21 45.5 -29.5 q16.5 -8.5 42.5 -8.5 q52 0 59 84 l78 -6 q-6 -74 -42 -115.5 q-36 -41.5 -95 -41.5 q-41 0 -70.5 13.5 q-29.5 13.5 -63.5 37.5 Z" /><glyph glyph-name="uniFF1D" unicode="&#xff1d;" d="M251 461 l482 0 l0 -85 l-482 0 l0 85 ZM251 225 l482 0 l0 -85 l-482 0 l0 85 Z" /><glyph glyph-name="uniFF1E" unicode="&#xff1e;" d="M251 130 l418 170 l-418 170 l0 85 l482 -196 l0 -118 l-482 -196 l0 85 Z" /><glyph glyph-name="arrowup" unicode="&#x2191;" d="M454 635 l-222 -225 l0 104 l261 260 l261 -260 l0 -104 l-222 223 l0 -678 l-77 -1 l-1 681 Z" /><glyph glyph-name="arrowright" unicode="&#x2192;" d="M761 312 l-678 0 l-1 77 l681 1 l-225 222 l104 0 l260 -261 l-260 -261 l-104 0 l223 222 Z" /><glyph glyph-name="arrowdown" unicode="&#x2193;" d="M231 214 l0 104 l222 -225 l1 681 l77 -1 l0 -678 l222 223 l0 -104 l-261 -260 l-261 260 Z" /><glyph glyph-name="arrowleft" unicode="&#x2190;" d="M82 351 l260 261 l104 0 l-223 -222 l678 0 l1 -77 l-681 -1 l225 -222 l-104 0 l-260 261 Z" /><glyph glyph-name="uni2500" unicode="&#x2500;" d="M0 375 l1000 0 l0 -50 l-1000 0 l0 50 Z" /><glyph glyph-name="uni2514" unicode="&#x2514;" d="M475 850 l50 0 l0 -475 l475 0 l0 -50 l-525 0 l0 525 Z" /><glyph glyph-name="uni251C" unicode="&#x251c;" d="M475 850 l50 0 l0 -475 l475 0 l0 -50 l-475 0 l0 -475 l-50 0 l0 1000 Z" /><glyph glyph-name="male" unicode="&#x2642;" d="M277 179 q0 57 26.5 105.5 q26.5 48.5 72 79.5 q45.5 31 100.5 37 l0 260 l-143 -139 l-32 32 l189 181 l20 0 l191 -181 l-30 -32 l-147 139 l0 -260 q55 -6 100.5 -37 q45.5 -31 72 -79.5 q26.5 -48.5 26.5 -105.5 q0 -60 -30 -111.5 q-30 -51.5 -81.5 -81.5 q-51.5 -30 -111.5 -30 q-60 0 -111.5 30 q-51.5 30 -81.5 81.5 q-30 51.5 -30 111.5 ZM500 2 q48 0 88 24 q40 24 63.5 64.5 q23.5 40.5 23.5 88.5 q0 48 -23.5 88.5 q-23.5 40.5 -63.5 64.5 q-40 24 -88 24 q-48 0 -88 -24 q-40 -24 -63.5 -64.5 q-23.5 -40.5 -23.5 -88.5 q0 -48 23.5 -88.5 q23.5 -40.5 63.5 -64.5 q40 -24 88 -24 Z" /><glyph glyph-name="uni3000" unicode="&#x3000;" d="" /><glyph glyph-name="uni4E00" unicode="&#x4e00;" d="M48 348 l0 81 l884 0 l0 -81 l-884 0 Z" /><glyph glyph-name="uni4E01" unicode="&#x4e01;" d="M918 734 l0 -78 l-366 0 l0 -610 q0 -45 -12.5 -69 q-12.5 -24 -41.5 -35 q-29 -11 -85 -15 l-101 -7 l-27 81 l107 6 q35 2 49.5 7 q14.5 5 19 18.5 q4.5 13.5 4.5 45.5 l0 578 l-401 0 l0 78 l854 0 Z" /><glyph glyph-name="uni4E03" unicode="&#x4e03;" d="M805 189 l75 -29 q-3 -38 -7 -76.5 q-4 -38.5 -11 -70.5 q-7 -35 -41 -51 q-34 -16 -106 -20 q-52 -3 -104 -3 q-52 0 -105 3 q-59 3 -91 15.5 q-32 12.5 -47 42.5 q-15 30 -15 85 l0 306 l-295 -48 l-11 78 l306 50 l0 327 l80 -3 l0 -311 l493 81 l9 -78 l-502 -82 l0 -307 q0 -35 6 -50.5 q6 -15.5 22.5 -22 q16.5 -6.5 53.5 -8.5 q47 -3 92 -3 q47 0 92 3 q51 3 69.5 11.5 q18.5 8.5 24.5 36.5 q10 45 12 124 Z" /><glyph glyph-name="uni4E07" unicode="&#x4e07;" d="M404 665 l-7 -162 l-1 -17 l406 0 l-3 -46 q-19 -304 -21 -330 q-6 -69 -20.5 -100.5 q-14.5 -31.5 -48 -45 q-33.5 -13.5 -108.5 -19.5 l-82 -7 l-28 76 l86 6 q50 3 73.5 11.5 q23.5 8.5 34 31.5 q10.5 23 14.5 73 q15 206 18 275 l-329 0 q-14 -110 -46 -194.5 q-32 -84.5 -90.5 -159 q-58.5 -74.5 -152.5 -153.5 l-61 58 q104 85 160.5 158.5 q56.5 73.5 84 162.5 q27.5 89 35.5 221 q6 120 8 161 l-249 0 l0 74 l840 0 l0 -74 l-513 0 Z" /><glyph glyph-name="uni4E09" unicode="&#x4e09;" d="M126 713 l732 0 l0 -77 l-732 0 l0 77 ZM180 409 l621 0 l0 -75 l-621 0 l0 75 ZM55 50 l870 0 l0 -75 l-870 0 l0 75 Z" /><glyph glyph-name="uni4E0A" unicode="&#x4e0a;" d="M506 449 l0 -425 l431 0 l0 -71 l-890 0 l0 71 l381 0 l0 779 l78 -4 l0 -277 l365 0 l0 -73 l-365 0 Z" /><glyph glyph-name="uni4E0B" unicode="&#x4e0b;" d="M56 657 l0 75 l868 0 l0 -75 l-418 0 l0 -751 l-80 0 l0 751 l-370 0 ZM571 520 q67 -49 152 -120.5 q85 -71.5 129 -118.5 l-48 -70 q-55 60 -138.5 135 q-83.5 75 -142.5 117 l48 57 Z" /><glyph glyph-name="uni4E0D" unicode="&#x4e0d;" d="M592 661 q-30 -55 -63 -108 l0 -652 l-77 0 l0 543 q-142 -183 -351 -335 l-56 63 q300 203 456 489 l-404 0 l0 76 l790 0 l0 -76 l-295 0 ZM618 463 q79 -62 168.5 -142 q89.5 -80 140.5 -139 l-56 -68 q-57 69 -146.5 155 q-89.5 86 -156.5 138 l50 56 Z" /><glyph glyph-name="uni4E0E" unicode="&#x4e0e;" d="M888 591 l-589 0 l-11 -158 l548 0 l-21 -352 q-5 -65 -20.5 -97 q-15.5 -32 -48.5 -45 q-33 -13 -99 -17 l-123 -7 l-26 76 l126 6 q47 2 68 9 q21 7 30.5 27.5 q9.5 20.5 13.5 68.5 q3 46 8.5 125.5 q5.5 79.5 8.5 128.5 l-549 0 l31 438 l79 -3 l-9 -126 l583 0 l0 -74 ZM43 215 l642 0 l0 -74 l-642 0 l0 74 Z" /><glyph glyph-name="uni4E11" unicode="&#x4e11;" d="M810 741 l-37 -713 l159 0 l0 -71 l-885 0 l0 71 l228 0 l36 306 l-187 0 l0 74 l195 0 l30 258 l-223 0 l0 75 l684 0 ZM726 666 l-300 0 l-30 -258 l316 0 l14 258 ZM708 334 l-320 0 l-36 -306 l339 0 l17 306 Z" /><glyph glyph-name="uni4E13" unicode="&#x4e13;" d="M926 421 l-550 0 q-19 -50 -49 -114 l468 0 l0 -76 q-91 -107 -189 -194 q59 -23 180 -72 l-26 -77 q-133 59 -287 119.5 q-154 60.5 -278 101.5 l28 68 q132 -44 299 -108 q48 38 97 84 q49 46 77 82 l-459 0 l0 62 q28 53 57 124 l-240 0 l0 72 l267 0 q25 71 40 124 l-227 0 l0 72 l248 0 q16 61 30 125 l77 -14 q-12 -54 -27 -111 l384 0 l0 -72 l-404 0 q-17 -60 -39 -124 l523 0 l0 -72 Z" /><glyph glyph-name="uni4E14" unicode="&#x4e14;" d="M781 757 l0 -740 l157 0 l0 -71 l-896 0 l0 71 l157 0 l0 740 l582 0 ZM704 515 l0 168 l-429 0 l0 -168 l429 0 ZM275 271 l429 0 l0 172 l-429 0 l0 -172 ZM704 198 l-429 0 l0 -181 l429 0 l0 181 Z" /><glyph glyph-name="uni4E16" unicode="&#x4e16;" d="M777 496 l0 -316 l-358 0 l0 316 l-164 0 l0 -469 l649 0 l0 -72 l-726 0 l0 541 l-138 0 l0 74 l138 0 l0 208 l77 -3 l0 -205 l164 0 l0 232 l74 -3 l0 -229 l208 0 l0 233 l76 -3 l0 -230 l162 0 l0 -74 l-162 0 ZM701 252 l0 244 l-208 0 l0 -244 l208 0 Z" /><glyph glyph-name="uni4E18" unicode="&#x4e18;" d="M690 32 l244 0 l0 -68 l-887 0 l0 68 l163 0 l0 677 q322 17 597 78 l21 -73 q-126 -29 -271 -48 q-145 -19 -267 -28 l0 -195 l595 0 l0 -70 l-195 0 l0 -341 ZM609 373 l-319 0 l0 -341 l319 0 l0 341 Z" /><glyph glyph-name="uni4E19" unicode="&#x4e19;" d="M924 668 l-397 0 l-1 -132 l318 0 l0 -494 q0 -51 -13.5 -78 q-13.5 -27 -46 -39.5 q-32.5 -12.5 -96.5 -16.5 l-61 -4 l-28 79 l78 4 q41 2 60 9 q19 7 25.5 23 q6.5 16 6.5 51 l0 394 l-246 0 q-1 -34 -10 -76 q55 -40 128 -104 q73 -64 115 -108 l-48 -71 q-34 42 -97 101.5 q-63 59.5 -122 107.5 q-26 -57 -77.5 -110 q-51.5 -53 -137.5 -113 l-60 64 l0 -248 l-75 0 l0 629 l312 0 q1 34 1 132 l-397 0 l0 73 l869 0 l0 -73 ZM214 157 q86 54 134.5 99 q48.5 45 71 93.5 q22.5 48.5 28.5 114.5 l-234 0 l0 -307 Z" /><glyph glyph-name="uni4E1A" unicode="&#x4e1a;" d="M641 792 l0 -771 l290 0 l0 -69 l-878 0 l0 69 l294 0 l0 772 l78 -3 l0 -769 l135 0 l0 774 l81 -3 ZM892 609 q-76 -258 -153 -419 l-74 29 q45 85 87 200 q42 115 66 213 l74 -23 ZM237 193 q-28 100 -71.5 215.5 q-43.5 115.5 -81.5 187.5 l71 29 q34 -64 84 -190.5 q50 -126.5 74 -207.5 l-76 -34 Z" /><glyph glyph-name="uni4E1B" unicode="&#x4e1b;" d="M100 68 l-59 49 q85 98 132 176 q47 78 72 172 q25 94 31 229 q1 19 2 50.5 q1 31.5 1 51.5 l73 -3 q0 -19 -1.5 -50 q-1.5 -31 -2.5 -49 q-1 -63 -9 -119 q35 -39 82.5 -107 q47.5 -68 75.5 -117 l-56 -56 q-18 37 -50.5 88 q-32.5 51 -67.5 98 q-25 -111 -77 -203 q-52 -92 -146 -210 ZM344 108 q102 95 154 180 q52 85 72 184.5 q20 99.5 22 253.5 q2 22 2 70 l75 -3 l-1 -29 q-1 -10 -1 -20.5 q0 -10.5 -1 -16.5 q0 -22 -1 -33 q5 -180 72 -315 q67 -135 201 -257 l-64 -59 q-174 183 -235 397 q-25 -116 -81 -210 q-56 -94 -155 -191 l-59 49 ZM879 -49 l-783 0 l0 70 l783 0 l0 -70 Z" /><glyph glyph-name="uni4E1C" unicode="&#x4e1c;" d="M848 302 l-301 0 l0 -280 q0 -44 -9 -65 q-9 -21 -30.5 -29.5 q-21.5 -8.5 -66.5 -13.5 l-73 -6 l-26 75 l74 6 q27 2 38 6.5 q11 4.5 14.5 15.5 q3.5 11 3.5 38 l0 253 l-318 0 l0 74 q81 112 144 226 l-224 0 l0 70 l261 0 q39 77 65 142 l71 -30 q-20 -48 -52 -112 l481 0 l0 -70 l-518 0 q-77 -144 -142 -231 l232 0 l0 171 l75 -3 l0 -168 l301 0 l0 -69 ZM689 247 q51 -41 129 -115 q78 -74 122 -125 l-52 -57 q-50 59 -125 133.5 q-75 74.5 -124 114.5 l50 49 ZM25 1 q140 96 255 242 l58 -49 q-59 -73 -121 -134 q-62 -61 -137 -117 l-55 58 Z" /><glyph glyph-name="uni4E1D" unicode="&#x4e1d;" d="M96 422 l-17 69 q18 5 26 10 q8 5 16 14 q31 35 87 127.5 q56 92.5 88 160.5 l66 -32 q-29 -60 -82.5 -146.5 q-53.5 -86.5 -86.5 -126.5 l155 3 q56 87 89 147 l60 -32 q-44 -84 -126.5 -207 q-82.5 -123 -123.5 -169 l204 13 l-2 -74 q-48 -2 -141 -7 q-93 -5 -119 -8 q-24 -2 -59 -9 l-16 72 q22 5 32 9.5 q10 4.5 20 13.5 q35 34 137 182 l-156 -4 q-16 0 -51 -6 ZM459 488 q19 6 27.5 11.5 q8.5 5.5 15.5 14.5 q28 33 86 127 q58 94 90 161 l64 -32 q-31 -61 -85 -147.5 q-54 -86.5 -85 -125.5 l162 3 q60 90 88 141 l59 -34 q-44 -81 -128 -200 q-84 -119 -132 -170 l259 19 l-2 -73 q-58 -3 -154.5 -9.5 q-96.5 -6.5 -159.5 -11.5 q-37 -2 -64 -7 l-12 70 q21 4 31.5 8.5 q10.5 4.5 20.5 13.5 q23 21 62.5 71.5 q39.5 50.5 84.5 113.5 q-127 -2 -159 -4 q-20 -1 -50 -7 l-19 67 ZM45 -58 l0 69 l889 0 l0 -69 l-889 0 Z" /><glyph glyph-name="uni4E22" unicode="&#x4e22;" d="M468 230 q-45 -56 -100 -113.5 q-55 -57.5 -100 -95.5 l427 19 q-75 78 -117 115 l50 50 q50 -45 127 -126.5 q77 -81.5 116 -132.5 l-52 -59 q-25 37 -63 83 l-38 -2 q-350 -13 -471 -23 q-55 -4 -107 -12 l-22 79 q28 5 41.5 10.5 q13.5 5.5 28.5 17.5 q37 30 91.5 84.5 q54.5 54.5 96.5 105.5 l-313 0 l0 74 l394 0 l0 142 l-311 0 l0 68 l311 0 l0 132 q-201 -15 -321 -18 l-17 72 q159 5 372 22.5 q213 17.5 345 38.5 l16 -71 q-138 -22 -326 -38 l0 -138 l309 0 l0 -68 l-309 0 l0 -142 l392 0 l0 -74 l-450 0 Z" /><glyph glyph-name="uni4E24" unicode="&#x4e24;" d="M911 686 l-279 0 l-2 -136 l217 0 l0 -502 q0 -46 -12 -70 q-12 -24 -41.5 -35.5 q-29.5 -11.5 -85.5 -14.5 l-54 -4 l-24 73 l68 3 q34 1 50 7.5 q16 6.5 21 19 q5 12.5 5 38.5 l0 416 l-146 0 q-3 -66 -13 -121 q36 -36 85 -94.5 q49 -58.5 74 -95.5 l-52 -55 q-20 34 -56 81.5 q-36 47.5 -71 86.5 q-40 -133 -147 -262 l-58 37 q84 100 123.5 196.5 q39.5 96.5 44.5 226.5 l-163 0 q-1 -53 -9 -98 q28 -29 59.5 -67 q31.5 -38 48.5 -62 l-52 -57 q-18 36 -76 106 q-18 -53 -49 -104.5 q-31 -51.5 -81 -113.5 l-55 40 l0 -197 l-69 0 l0 622 l216 0 l2 136 l-284 0 l0 70 l865 0 l0 -70 ZM560 550 q0 62 2 136 l-162 0 l-3 -136 l163 0 ZM181 135 q52 65 80 111.5 q28 46.5 43 100.5 q15 54 21 134 l-144 0 l0 -346 Z" /><glyph glyph-name="uni4E25" unicode="&#x4e25;" d="M924 749 l0 -67 l-280 0 l0 -262 l275 0 l0 -66 l-697 0 l0 -99 q0 -78 -12 -136 q-12 -58 -39 -109.5 q-27 -51.5 -75 -117.5 l-64 35 q46 61 71 108 q25 47 36.5 102.5 q11.5 55.5 11.5 135.5 l0 147 l217 0 l0 262 l-291 0 l0 67 l847 0 ZM444 420 l125 0 l0 262 l-125 0 l0 -262 ZM262 433 q-22 37 -67 90.5 q-45 53.5 -78 84.5 l50 48 q30 -26 77 -78 q47 -52 71 -85 l-53 -60 ZM690 491 q30 24 75.5 75.5 q45.5 51.5 70.5 88.5 l55 -47 q-25 -37 -72 -89.5 q-47 -52.5 -78 -77.5 l-51 50 Z" /><glyph glyph-name="uni4E27" unicode="&#x4e27;" d="M280 327 l0 -315 l241 75 l6 -77 q-22 -4 -114.5 -31.5 q-92.5 -27.5 -139.5 -42.5 q-37 -13 -71 -30 l-29 69 q22 17 27 24 q5 7 5 22 l0 306 l-148 0 l0 70 l396 0 l0 229 l-363 0 l0 67 l363 0 l0 114 l75 -4 l0 -110 l361 0 l0 -67 l-361 0 l0 -229 l398 0 l0 -70 l-465 0 q49 -93 118 -157 q121 62 221 138 l39 -61 q-82 -62 -200 -124 q112 -76 307 -118 l-30 -72 q-142 35 -241.5 85 q-99.5 50 -171 124.5 q-71.5 74.5 -124.5 184.5 l-99 0 ZM610 458 q30 24 75.5 75 q45.5 51 70.5 87 l55 -48 q-25 -37 -72 -89 q-47 -52 -78 -76 l-51 51 ZM312 399 q-21 36 -66.5 88.5 q-45.5 52.5 -78.5 84.5 l54 47 q31 -27 77.5 -78 q46.5 -51 70.5 -83 l-57 -59 Z" /><glyph glyph-name="uni4E2A" unicode="&#x4e2a;" d="M27 400 q135 79 247.5 185 q112.5 106 181.5 215 l69 0 q154 -230 426 -395 l-56 -70 q-123 89 -231 187.5 q-108 98.5 -173 194.5 q-73 -105 -179 -203 q-106 -98 -231 -181 l-54 67 ZM450 489 l81 -4 l0 -585 l-81 0 l0 589 Z" /><glyph glyph-name="uni4E2D" unicode="&#x4e2d;" d="M528 617 l336 0 l0 -423 l-336 0 l0 -293 l-80 0 l0 293 l-333 0 l0 423 l333 0 l0 194 l80 -4 l0 -190 ZM193 543 l0 -275 l255 0 l0 275 l-255 0 ZM528 268 l259 0 l0 275 l-259 0 l0 -275 Z" /><glyph glyph-name="uni4E30" unicode="&#x4e30;" d="M528 198 l393 0 l0 -75 l-393 0 l0 -226 l-77 0 l0 226 l-395 0 l0 75 l395 0 l0 165 l-303 0 l0 72 l303 0 l0 151 l-349 0 l0 72 l349 0 l0 143 l77 -3 l0 -140 l347 0 l0 -72 l-347 0 l0 -151 l301 0 l0 -72 l-301 0 l0 -165 Z" /><glyph glyph-name="uni4E32" unicode="&#x4e32;" d="M528 341 l339 0 l0 -298 l-339 0 l0 -146 l-74 0 l0 146 l-340 0 l0 298 l340 0 l0 97 l-296 0 l0 259 l296 0 l0 107 l74 -4 l0 -103 l295 0 l0 -259 l-295 0 l0 -97 ZM232 635 l0 -134 l222 0 l0 134 l-222 0 ZM750 501 l0 134 l-222 0 l0 -134 l222 0 ZM189 276 l0 -166 l265 0 l0 166 l-265 0 ZM528 110 l264 0 l0 166 l-264 0 l0 -166 Z" /><glyph glyph-name="uni4E34" unicode="&#x4e34;" d="M932 682 l0 -74 l-389 0 q-50 -103 -115 -195 l-64 49 q58 78 106.5 174 q48.5 96 74.5 183 l79 -16 q-18 -54 -46 -121 l354 0 ZM335 -92 l-75 0 l0 890 l75 -3 l0 -887 ZM174 3 l-74 0 l0 711 l74 -2 l0 -709 ZM731 397 q-20 35 -61.5 84 q-41.5 49 -72.5 78 l51 46 q28 -24 71 -73 q43 -49 64 -80 l-52 -55 ZM507 -83 l-69 0 l0 474 l440 0 l0 -474 l-70 0 l0 63 l-301 0 l0 -63 ZM623 45 l0 280 l-116 0 l0 -280 l116 0 ZM689 45 l119 0 l0 280 l-119 0 l0 -280 Z" /><glyph glyph-name="uni4E39" unicode="&#x4e39;" d="M932 358 l0 -74 l-155 0 l0 -238 q0 -53 -12.5 -80 q-12.5 -27 -45.5 -39.5 q-33 -12.5 -101 -16.5 l-63 -4 l-26 76 l81 4 q45 2 63.5 8.5 q18.5 6.5 24 22 q5.5 15.5 5.5 51.5 l0 216 l-407 0 q-3 -85 -16.5 -144.5 q-13.5 -59.5 -44 -115.5 q-30.5 -56 -88.5 -133 l-65 41 q57 67 85.5 116.5 q28.5 49.5 40 102 q11.5 52.5 13.5 133.5 l-173 0 l0 74 l174 0 l0 10 l0 384 l555 0 l0 -394 l155 0 ZM297 681 l0 -323 l406 0 l0 323 l-406 0 ZM445 632 q34 -30 85.5 -84.5 q51.5 -54.5 78.5 -90.5 l-56 -58 q-25 39 -76 96 q-51 57 -86 88 l54 49 Z" /><glyph glyph-name="uni4E3A" unicode="&#x4e3a;" d="M860 575 q-4 -95 -12.5 -247 q-8.5 -152 -14.5 -265 q-3 -49 -21.5 -76.5 q-18.5 -27.5 -58.5 -40.5 q-40 -13 -114 -17 l-72 -4 l-33 78 l100 4 q51 2 76 9.5 q25 7.5 36 26 q11 18.5 15 56.5 q6 56 13 201 q7 145 8 199 l-292 0 q-18 -132 -59 -231.5 q-41 -99.5 -114 -185 q-73 -85.5 -192 -176.5 l-57 61 q112 82 181 159 q69 77 107.5 166 q38.5 89 55.5 207 l-325 0 l0 76 l334 0 q6 59 18 225 l75 -3 q0 -28 -5.5 -100.5 q-5.5 -72.5 -10.5 -121.5 l362 0 ZM298 587 q-22 36 -64.5 86 q-42.5 50 -72.5 76 l53 47 q28 -23 72 -71 q44 -48 66 -80 l-54 -58 ZM641 169 q-19 38 -67 94.5 q-48 56.5 -86 90.5 l53 50 q34 -27 83 -82 q49 -55 72 -91 l-55 -62 Z" /><glyph glyph-name="uni4E3B" unicode="&#x4e3b;" d="M529 21 l403 0 l0 -72 l-884 0 l0 72 l402 0 l0 250 l-319 0 l0 75 l319 0 l0 213 l-360 0 l0 74 l368 0 q-12 43 -28 90 q-16 47 -23 64 l75 19 q9 -18 26.5 -75 q17.5 -57 29.5 -98 l352 0 l0 -74 l-361 0 l0 -213 l320 0 l0 -75 l-320 0 l0 -250 Z" /><glyph glyph-name="uni4E3D" unicode="&#x4e3d;" d="M50 679 l0 70 l884 0 l0 -70 l-884 0 ZM119 568 l321 0 l0 -557 q0 -37 -9 -55.5 q-9 -18.5 -32 -27.5 q-23 -9 -71 -14 l-44 -5 l-20 71 l51 4 q27 2 38 6.5 q11 4.5 14.5 15 q3.5 10.5 3.5 34.5 l0 455 l-185 0 l0 -577 l-67 0 l0 650 ZM531 568 l329 0 l0 -557 q0 -38 -9 -56.5 q-9 -18.5 -32.5 -27.5 q-23.5 -9 -71.5 -13 l-45 -4 l-21 70 l53 4 q28 2 40 6.5 q12 4.5 15 15 q3 10.5 3 34.5 l0 455 l-194 0 l0 -577 l-67 0 l0 650 ZM247 395 q25 -33 61 -96 q36 -63 53 -101 l-52 -40 q-15 42 -50 106 q-35 64 -61 101 l49 30 ZM660 395 q27 -33 65 -94.5 q38 -61.5 56 -100.5 l-51 -43 q-17 42 -54.5 105 q-37.5 63 -64.5 99 l49 34 Z" /><glyph glyph-name="uni4E3E" unicode="&#x4e3e;" d="M496 607 q-10 36 -37 90 q-27 54 -49 89 l64 29 q20 -30 47.5 -85 q27.5 -55 40.5 -88 l-66 -35 ZM268 602 q-17 36 -50 88 q-33 52 -57 83 l61 31 q23 -32 57.5 -81 q34.5 -49 52.5 -78 l-64 -43 ZM405 526 q-57 -100 -159 -190 l207 0 l0 136 l74 -2 l0 -134 l213 0 l0 -69 l-213 0 l0 -126 l360 0 l0 -68 l-360 0 l0 -174 l-74 0 l0 174 l-362 0 l0 68 l362 0 l0 126 l-215 0 l0 62 q-79 -67 -174 -120 l-38 61 q208 110 298 256 l-256 0 l0 69 l566 0 q28 39 64.5 103 q36.5 64 54.5 105 l72 -24 q-16 -36 -47.5 -89 q-31.5 -53 -61.5 -95 l196 0 l0 -69 l-254 0 q48 -77 119 -136.5 q71 -59.5 176 -112.5 l-37 -61 q-105 63 -196.5 143 q-91.5 80 -140.5 167 l-174 0 Z" /><glyph glyph-name="uni4E43" unicode="&#x4e43;" d="M672 449 l190 0 q-4 -67 -13 -190.5 q-9 -123.5 -15 -191.5 q-4 -54 -22.5 -82 q-18.5 -28 -58.5 -40.5 q-40 -12.5 -118 -16.5 l-78 -4 l-26 76 l101 4 q52 2 77 10 q25 8 35 26.5 q10 18.5 13 55.5 q3 29 11 126 q8 97 12 153 l-192 0 l0 68 l84 216 l-301 0 q-1 -64 -7 -152 q-11 -142 -42 -248 q-31 -106 -85 -192.5 q-54 -86.5 -138 -173.5 l-66 57 q83 82 134.5 157.5 q51.5 75.5 81 171.5 q29.5 96 37.5 229 q6 71 6 151 l-209 0 l0 75 l671 0 l0 -76 l-82 -209 Z" /><glyph glyph-name="uni4E45" unicode="&#x4e45;" d="M939 -14 l-55 -77 q-131 91 -215.5 178.5 q-84.5 87.5 -142.5 194.5 q-74 -102 -179.5 -193 q-105.5 -91 -256.5 -185 l-53 70 q225 125 356.5 271.5 q131.5 146.5 199.5 340.5 l-264 0 q-80 -143 -198 -269 l-54 59 q88 94 156 205 q68 111 113 232 l81 -17 q-25 -67 -57 -133 l312 0 l0 -75 q-45 -128 -107 -232 q57 -113 149.5 -206.5 q92.5 -93.5 214.5 -163.5 Z" /><glyph glyph-name="uni4E48" unicode="&#x4e48;" d="M515 749 q-72 -123 -182.5 -255 q-110.5 -132 -214.5 -221 l-57 62 q105 86 211 213 q106 127 172 245 l71 -44 ZM832 -96 q-18 44 -47 100 q-458 -19 -543 -25 q-60 -7 -87 -11 l-20 81 q28 8 44.5 17 q16.5 9 36.5 26 q98 83 232.5 248 q134.5 165 218.5 309 l75 -44 q-87 -142 -218 -301 q-131 -159 -230 -246 l449 23 q-76 133 -138 211 l64 45 q52 -66 125.5 -184 q73.5 -118 107.5 -192 l-70 -57 Z" /><glyph glyph-name="uni4E49" unicode="&#x4e49;" d="M517 527 q-27 58 -67 125.5 q-40 67.5 -74 112.5 l64 42 q32 -42 74 -110 q42 -68 68 -117 l-65 -53 ZM894 -96 q-127 58 -223 115 q-96 57 -171 122 q-73 -65 -172 -122.5 q-99 -57.5 -237 -117.5 l-51 75 q133 54 229.5 107.5 q96.5 53.5 168.5 116.5 q-89 92 -154.5 212 q-65.5 120 -123.5 290 l74 30 q54 -160 116.5 -274.5 q62.5 -114.5 145.5 -200.5 q80 87 135 205 q55 118 94 286 l77 -29 q-45 -182 -102 -306 q-57 -124 -141 -215 q72 -60 164 -111.5 q92 -51.5 214 -100.5 l-43 -82 Z" /><glyph glyph-name="uni4E4B" unicode="&#x4e4b;" d="M708 28 q100 0 232 5 l-22 -73 q-110 -6 -222 -6 q-80 0 -158 3 q-91 4 -139.5 10.5 q-48.5 6.5 -84 24 q-35.5 17.5 -68.5 52.5 q-32 38 -46 38 q-8 0 -15.5 -6.5 q-7.5 -6.5 -25.5 -27.5 q-52 -62 -71 -89 l-61 56 q52 60 100 123 q17 23 32.5 30.5 q15.5 7.5 35.5 7.5 q14 0 24 -5 q139 75 280 182 q141 107 237 202 l-602 0 l0 75 l337 0 q-7 35 -19.5 81.5 q-12.5 46.5 -22.5 77.5 l74 15 q10 -31 25.5 -86.5 q15.5 -55.5 21.5 -87.5 l296 0 l0 -75 q-99 -108 -256.5 -232 q-157.5 -124 -308.5 -207 q31 -35 62 -52 q31 -17 72 -23.5 q41 -6.5 116 -9.5 q90 -3 177 -3 Z" /><glyph glyph-name="uni4E4C" unicode="&#x4e4c;" d="M265 346 l606 0 q-2 -50 -7.5 -137 q-5.5 -87 -8.5 -137 q-4 -55 -21.5 -85 q-17.5 -30 -56.5 -44 q-39 -14 -111 -18 l-76 -4 l-28 71 l96 6 q48 3 72 11 q24 8 33.5 26 q9.5 18 12.5 54 q11 139 13 186 l-600 0 l0 433 l180 0 q29 64 42 111 l81 -12 q-9 -39 -36 -99 l321 0 q-1 -36 -4.5 -87 q-3.5 -51 -6.5 -87 q-3 -41 -19 -64 q-16 -23 -52.5 -35 q-36.5 -12 -106.5 -19 l-67 -7 l-28 68 l89 6 q46 3 67.5 9 q21.5 6 30 18.5 q8.5 12.5 11.5 37.5 q2 19 4 45.5 q2 26.5 2 45.5 l-432 0 l0 -293 ZM69 157 l642 0 l0 -71 l-642 0 l0 71 Z" /><glyph glyph-name="uni4E4E" unicode="&#x4e4e;" d="M936 338 l0 -71 l-401 0 l0 -224 q0 -46 -13 -72 q-13 -26 -46.5 -40 q-33.5 -14 -97.5 -17 l-73 -4 l-22 74 l85 4 q43 2 62 8.5 q19 6.5 24.5 20.5 q5.5 14 5.5 44 l0 206 l-416 0 l0 71 l416 0 l1 319 q-231 -20 -363 -26 l-16 72 q165 8 400 27.5 q235 19.5 365 39.5 l11 -71 q-92 -13 -323 -36 l0 -325 l401 0 ZM617 423 q32 31 81 94 q49 63 75 105 l57 -45 q-25 -38 -73.5 -101.5 q-48.5 -63.5 -80.5 -97.5 l-59 45 ZM210 612 q39 -44 83.5 -98.5 q44.5 -54.5 65.5 -88.5 l-57 -51 q-25 42 -69.5 99 q-44.5 57 -77.5 94 l55 45 Z" /><glyph glyph-name="uni4E4F" unicode="&#x4e4f;" d="M856 699 q-153 -26 -369.5 -50.5 q-216.5 -24.5 -377.5 -32.5 l-11 75 q155 7 374 31.5 q219 24.5 368 52.5 l16 -76 ZM740 6 q112 0 215 6 l-18 -74 q-97 -6 -203 -6 q-104 0 -203 6 q-86 5 -130 11 q-44 6 -77 22 q-33 16 -63 48 q-16 19 -26 29 q-10 10 -17 10 q-8 0 -17 -8 q-9 -8 -26 -28 q-2 -3 -33 -36 q-40 -42 -50 -56 l-53 67 q11 13 54 58 q44 46 54 58 q20 22 33 29 q13 7 31 7 q23 0 45 -19 q118 56 242.5 131.5 q124.5 75.5 211.5 141.5 l-576 0 l0 74 l339 0 q-25 79 -45 131 l70 14 q18 -44 52 -145 l276 0 l0 -75 q-88 -75 -233.5 -166.5 q-145.5 -91.5 -287.5 -159.5 q25 -25 52 -37.5 q27 -12.5 63 -17.5 q36 -5 105 -9 q104 -6 215 -6 Z" /><glyph glyph-name="uni4E50" unicode="&#x4e50;" d="M888 333 l-340 0 l0 -301 q0 -47 -12.5 -70.5 q-12.5 -23.5 -42 -33.5 q-29.5 -10 -89.5 -13 l-56 -4 l-27 77 l67 4 q37 2 52.5 7 q15.5 5 20.5 17.5 q5 12.5 5 39.5 l0 277 l-340 0 l40 387 q167 5 347 21 q180 16 308 37 l16 -77 q-123 -18 -288 -33 q-165 -15 -310 -23 l-27 -237 l254 0 l0 206 l82 -3 l0 -203 l340 0 l0 -75 ZM335 236 q-40 -66 -108 -147.5 q-68 -81.5 -135 -145.5 l-61 51 q67 61 132.5 139.5 q65.5 78.5 105.5 144.5 l66 -42 ZM692 277 q52 -51 119.5 -127.5 q67.5 -76.5 122.5 -146.5 l-60 -59 q-49 71 -117.5 151.5 q-68.5 80.5 -123.5 133.5 l59 48 Z" /><glyph glyph-name="uni4E54" unicode="&#x4e54;" d="M908 161 q-143 64 -226 129 l0 -385 l-79 0 l0 398 l68 -3 q-80 66 -137 162 l-82 0 q-54 -96 -144 -168.5 q-90 -72.5 -232 -137.5 l-46 67 q125 52 204 108 q79 56 129 131 l-289 0 l0 72 l329 0 q28 60 46 137 q-166 -14 -296 -17 l-13 71 q146 5 343 21.5 q197 16.5 324 36.5 l18 -72 q-125 -19 -293 -33 q-18 -79 -45 -144 l416 0 l0 -72 l-284 0 q63 -83 136 -134 q73 -51 193 -91 l-40 -76 ZM322 303 l76 -4 l0 -73 q0 -79 -18.5 -136 q-18.5 -57 -66 -106 q-47.5 -49 -133.5 -97 l-48 64 q84 48 124 87 q40 39 53 81.5 q13 42.5 13 112.5 l0 71 Z" /><glyph glyph-name="uni4E58" unicode="&#x4e58;" d="M525 295 q68 -99 169 -169 q101 -70 246 -126 l-37 -65 q-252 106 -378 267 l0 -309 l-72 0 l0 310 q-65 -83 -149 -142.5 q-84 -59.5 -221 -127.5 l-42 63 q163 74 254.5 139 q91.5 65 157.5 162 l0 230 l-373 0 l0 64 l373 0 l0 90 q-151 -7 -288 -7 l-11 61 q139 0 338 10 q199 10 317 25 l7 -62 q-107 -13 -291 -23 l0 -94 l374 0 l0 -64 l-374 0 l0 -232 ZM75 253 q40 8 99.5 24.5 q59.5 16.5 108.5 32.5 l0 60 l-180 0 l0 58 l180 0 l0 69 l66 -3 l0 -295 l-66 0 l0 49 q-91 -32 -189 -58 l-19 63 ZM627 497 l66 -3 l0 -95 q76 29 157 75 l23 -50 q-31 -19 -83.5 -43.5 q-52.5 -24.5 -96.5 -40.5 l0 -46 q0 -23 9 -32 q9 -9 33 -11 l19 -1 q39 0 55.5 7 q16.5 7 20.5 23 q3 14 6 34 q3 20 4 29 l54 -17 l-3 -21 q-3 -40 -11 -66 q-13 -47 -99 -50 l-32 -1 l-32 1 q-46 2 -68 24.5 q-22 22.5 -22 71.5 l0 212 Z" /><glyph glyph-name="uni4E59" unicode="&#x4e59;" d="M663 658 l-525 0 l0 75 l655 0 l0 -74 q-368 -290 -494 -414.5 q-126 -124.5 -126 -162.5 q0 -29 22 -40 q22 -11 84 -13 q140 -4 211 -4 q70 0 210 4 q44 2 65.5 9 q21.5 7 31 24 q9.5 17 16.5 53 q9 48 11 109 l80 -28 q-3 -37 -13 -109 q-7 -51 -25.5 -78 q-18.5 -27 -54.5 -39 q-36 -12 -102 -14 q-100 -4 -226 -4 q-126 0 -227 4 q-85 3 -126 30.5 q-41 27.5 -41 85.5 q0 45 34.5 97 q34.5 52 157 164 q122.5 112 382.5 325 Z" /><glyph glyph-name="uni4E5D" unicode="&#x4e5d;" d="M930 146 q-4 -64 -17 -134 q-8 -36 -33 -52 q-25 -16 -81 -20 q-30 -2 -44 -2 q-15 0 -45 2 q-56 4 -81 27.5 q-25 23.5 -25 84.5 l0 468 l-207 0 q-6 -163 -35 -264 q-29 -101 -90 -178 q-61 -77 -179 -177 l-59 59 q112 92 168.5 159.5 q56.5 67.5 84.5 159 q28 91.5 32 241.5 l-248 0 l0 79 l249 0 q2 64 2 104 q2 88 3 100 l79 -3 l-5 -201 l284 0 l0 -533 q0 -28 10 -39 q10 -11 37 -13 l27 -1 q34 0 50.5 3.5 q16.5 3.5 25.5 14.5 q9 11 14 35 q9 49 10 107 l73 -27 Z" /><glyph glyph-name="uni4E5E" unicode="&#x4e5e;" d="M883 619 l-598 0 q-75 -103 -165 -193 l-55 57 q82 78 146 164 q64 86 101 172 l79 -21 q-26 -54 -57 -105 l549 0 l0 -74 ZM885 147 q-2 -67 -21 -140 q-10 -34 -44.5 -51 q-34.5 -17 -117.5 -20 q-92 -4 -209 -4 q-116 0 -209 4 q-131 4 -131 89 q0 43 36.5 88 q36.5 45 123.5 111.5 q87 66.5 268 190.5 l-368 0 l0 73 l520 0 l0 -68 q-226 -149 -330 -223.5 q-104 -74.5 -131.5 -104 q-27.5 -29.5 -27.5 -51.5 q0 -17 15 -23 q15 -6 60 -8 q83 -4 184 -4 q103 0 184 4 q47 3 66 7 q19 4 27 13.5 q8 9.5 13 32.5 q12 56 14 114 l78 -30 Z" /><glyph glyph-name="uni4E5F" unicode="&#x4e5f;" d="M930 144 l-3 -27 q-1 -6 -5.5 -40.5 q-4.5 -34.5 -14.5 -63.5 q-11 -32 -44.5 -50 q-33.5 -18 -100.5 -23 q-102 -8 -223 -8 q-122 0 -224 8 q-54 4 -83.5 17 q-29.5 13 -44 44 q-14.5 31 -14.5 89 l0 319 l-118 -30 l-14 73 l132 33 l0 200 l77 -3 l0 -178 l206 52 l0 249 l76 -3 l0 -227 l300 75 q-2 -63 -7.5 -170 q-5.5 -107 -9.5 -169 q-3 -42 -16 -63.5 q-13 -21.5 -37.5 -31 q-24.5 -9.5 -73.5 -16.5 l-46 -8 l-27 75 l44 7 q36 5 52 11 q16 6 23 19 q7 13 9 40 l10 211 l-221 -56 l0 -404 l-76 0 l0 385 l-206 -52 l0 -334 q0 -31 6.5 -47 q6.5 -16 23 -22.5 q16.5 -6.5 48.5 -9.5 q84 -7 212 -7 q122 0 200 7 q51 4 73 16 q22 12 27 38 q12 54 13 105 l77 -30 Z" /><glyph glyph-name="uni4E60" unicode="&#x4e60;" d="M848 730 q-2 -27 -5 -149 q-16 -453 -18 -490 q-4 -62 -23 -94.5 q-19 -32.5 -61.5 -47.5 q-42.5 -15 -126.5 -21 l-78 -6 l-29 79 l101 6 q55 3 82 13 q27 10 38.5 33 q11.5 23 14.5 68 q3 38 10.5 238.5 q7.5 200.5 10.5 292.5 l-667 0 l0 78 l751 0 ZM234 608 q57 -31 146.5 -94 q89.5 -63 134.5 -105 l-48 -77 q-45 49 -133 114.5 q-88 65.5 -149 99.5 l49 62 ZM71 128 q121 39 313.5 121 q192.5 82 302.5 141 l11 -44 l8 -34 q-105 -56 -293.5 -138.5 q-188.5 -82.5 -304.5 -122.5 l-37 77 Z" /><glyph glyph-name="uni4E61" unicode="&#x4e61;" d="M826 484 q-9 -48 -17 -82 q-32 -148 -105.5 -238 q-73.5 -90 -214 -150 q-140.5 -60 -390.5 -111 l-40 75 q182 36 299 73 q117 37 190.5 83.5 q73.5 46.5 117.5 112.5 l-92 -6 q-303 -20 -316 -21 q-36 -3 -80 -12 l-21 75 q24 5 38 10.5 q14 5.5 33 17.5 q113 66 258 184 q-194 -8 -260 -13 q-30 -2 -67 -11 l-20 73 q19 5 30.5 10.5 q11.5 5.5 28.5 15.5 q56 37 129.5 107.5 q73.5 70.5 133.5 140.5 l58 -45 q-57 -65 -119.5 -124.5 q-62.5 -59.5 -113.5 -97.5 l281 12 q98 86 171 163 l56 -51 q-103 -109 -224.5 -210.5 q-121.5 -101.5 -230.5 -168.5 l363 21 q18 40 33 107 q8 31 14 73 l77 -13 Z" /><glyph glyph-name="uni4E66" unicode="&#x4e66;" d="M772 648 l-25 -281 l141 0 q-1 -37 -23 -252 q-5 -44 -23.5 -70 q-18.5 -26 -57.5 -39 q-39 -13 -107 -17 l-67 -4 l-28 76 l89 4 q46 2 70 9.5 q24 7.5 35 23.5 q11 16 15 46 q11 95 16 150 l-385 0 l0 -395 l-76 0 l0 395 l-297 0 l0 73 l297 0 l0 208 l-234 0 l0 73 l234 0 l0 161 l76 -2 l0 -159 l350 0 ZM878 567 q-35 42 -104 98.5 q-69 56.5 -117 85.5 l45 55 q43 -25 113.5 -81 q70.5 -56 110.5 -95 l-48 -63 ZM692 575 l-270 0 l0 -208 l252 0 l18 208 Z" /><glyph glyph-name="uni4E70" unicode="&#x4e70;" d="M784 487 l-68 29 l79 157 l-684 0 l0 70 l763 0 l0 -71 l-90 -185 ZM925 187 l-351 0 q-5 -20 -15 -41 q82 -36 183.5 -86.5 q101.5 -50.5 163.5 -87.5 l-33 -73 q-67 42 -169.5 96.5 q-102.5 54.5 -180.5 90.5 q-48 -61 -143 -103 q-95 -42 -266 -82 l-30 72 q131 27 212 57 q81 30 127 67.5 q46 37.5 68 89.5 l-432 0 l0 69 l451 0 q6 32 8.5 71 q2.5 39 4.5 101 q4 160 4 205 l77 -4 q0 -51 -4 -211 q-4 -113 -11 -162 l336 0 l0 -69 ZM426 454 q-43 29 -106 60.5 q-63 31.5 -116 52.5 l32 62 q50 -20 110.5 -49.5 q60.5 -29.5 109.5 -58.5 l-30 -67 ZM154 481 q53 -21 131 -59.5 q78 -38.5 123 -65.5 l-29 -65 q-54 32 -131.5 71 q-77.5 39 -125.5 57 l32 62 Z" /><glyph glyph-name="uni4E71" unicode="&#x4e71;" d="M919 149 q-2 -79 -16 -146 q-7 -36 -35.5 -53.5 q-28.5 -17.5 -89.5 -19.5 q-12 -1 -37 -1 q-25 0 -38 1 q-46 2 -72 13.5 q-26 11.5 -37.5 38.5 q-11.5 27 -11.5 77 l0 733 l73 -2 l0 -717 q0 -29 6.5 -43 q6.5 -14 19.5 -19.5 q13 -5.5 39 -7.5 q21 -2 42 0 q39 2 54 12 q15 10 20 38 q11 54 11 122 l72 -26 ZM319 514 l200 0 l0 -72 l-200 0 l0 -148 l145 0 l0 -355 l-361 0 l0 355 l145 0 l0 148 l-203 0 l0 72 l203 0 l0 139 q-116 -14 -178 -18 l-13 72 q93 5 216.5 21.5 q123.5 16.5 202.5 35.5 l12 -72 q-82 -17 -169 -29 l0 -149 ZM174 10 l219 0 l0 213 l-219 0 l0 -213 Z" /><glyph glyph-name="uni4E7E" unicode="&#x4e7e;" d="M931 602 l-330 0 q-24 -53 -71 -134 l298 0 l0 -69 q-143 -167 -201 -252 q-58 -85 -58 -110 q0 -16 10 -22.5 q10 -6.5 36 -8.5 q48 -2 73 -2 q32 0 90 2 q33 1 46.5 9.5 q13.5 8.5 18.5 31.5 q11 49 11 97 l68 -24 q-1 -61 -17 -120 q-8 -29 -33 -43.5 q-25 -14.5 -79 -17.5 q-32 -2 -97 -2 q-66 0 -98 2 q-49 2 -79.5 22 q-30.5 20 -30.5 59 q0 54 57 140.5 q57 86.5 193 238.5 l-209 0 l0 68 l-7 -12 l-63 37 q98 153 148 323 l73 -13 q-20 -61 -47 -127 l298 0 l0 -73 ZM442 222 l-136 0 l0 -92 l176 0 l0 -67 l-176 0 l0 -158 l-70 0 l0 158 l-196 0 l0 67 l196 0 l0 92 l-137 0 l0 331 l137 0 l0 85 l-169 0 l0 65 l169 0 l0 103 l71 -3 l0 -100 l167 0 l0 -65 l-167 0 l0 -85 l135 0 l0 -331 ZM373 418 l0 73 l-207 0 l0 -73 l207 0 ZM373 357 l-207 0 l0 -74 l207 0 l0 74 Z" /><glyph glyph-name="uni4E86" unicode="&#x4e86;" d="M99 735 l763 0 l0 -75 l-325 -239 l0 -375 q0 -47 -12 -70.5 q-12 -23.5 -41 -33.5 q-29 -10 -88 -15 l-80 -7 l-26 79 l80 5 q39 3 55.5 8 q16.5 5 23 19 q6.5 14 6.5 45 l0 385 l274 199 l-630 0 l0 75 Z" /><glyph glyph-name="uni4E88" unicode="&#x4e88;" d="M546 428 l360 0 l0 -71 q-72 -125 -141 -216 l-70 42 q30 36 65 85.5 q35 49.5 58 88.5 l-285 0 l0 -328 q0 -43 -11 -66 q-11 -23 -38.5 -33.5 q-27.5 -10.5 -80.5 -14.5 l-68 -5 l-26 78 l78 4 q34 2 47.5 7 q13.5 5 18 17.5 q4.5 12.5 4.5 42.5 l0 298 l-396 0 l0 71 l429 0 q-47 41 -111.5 89.5 q-64.5 48.5 -109.5 77.5 l42 57 q57 -37 174 -128 q85 61 208 161 l-540 0 l0 70 l662 0 l0 -70 l-38 -30 q-181 -142 -231 -179 l24 -21 l-24 -27 Z" /><glyph glyph-name="uni4E89" unicode="&#x4e89;" d="M932 380 l0 -66 l-122 0 l0 -184 l-300 0 l0 -91 q0 -44 -10.5 -67.5 q-10.5 -23.5 -37 -34 q-26.5 -10.5 -79.5 -13.5 l-64 -4 l-26 73 l74 4 q33 2 47 7.5 q14 5.5 18.5 19.5 q4.5 14 4.5 45 l0 61 l-313 0 l0 63 l313 0 l0 121 l-396 0 l0 66 l396 0 l0 112 l-276 0 l0 32 q-22 -19 -54 -43 l-48 58 q83 57 156 133.5 q73 76.5 121 153.5 l70 -27 q-12 -21 -40 -61 l345 0 l0 -67 l-108 -114 l207 0 l0 -177 l122 0 ZM312 670 q-43 -50 -112 -113 l307 0 l107 113 l-302 0 ZM739 492 l-229 0 l0 -112 l229 0 l0 112 ZM510 193 l229 0 l0 121 l-229 0 l0 -121 Z" /><glyph glyph-name="uni4E8B" unicode="&#x4e8b;" d="M923 251 l0 -59 l-86 0 l0 -127 l-309 0 l0 -48 q0 -39 -11 -59.5 q-11 -20.5 -36.5 -30 q-25.5 -9.5 -73.5 -12.5 l-64 -5 l-27 70 l90 4 q28 2 36.5 4.5 q8.5 2.5 11.5 11.5 q3 9 3 34 l0 31 l-336 0 l0 58 l336 0 l0 69 l-406 0 l0 59 l406 0 l0 63 l-336 0 l0 58 l336 0 l0 60 l-291 0 l0 177 l291 0 l0 62 l-404 0 l0 62 l404 0 l0 71 l71 -4 l0 -67 l393 0 l0 -62 l-393 0 l0 -62 l288 0 l0 -177 l-288 0 l0 -60 l309 0 l0 -121 l86 0 ZM238 554 l0 -67 l219 0 l0 67 l-219 0 ZM744 487 l0 67 l-216 0 l0 -67 l216 0 ZM767 314 l-239 0 l0 -63 l239 0 l0 63 ZM528 123 l239 0 l0 69 l-239 0 l0 -69 Z" /><glyph glyph-name="uni4E8C" unicode="&#x4e8c;" d="M157 684 l670 0 l0 -80 l-670 0 l0 80 ZM70 70 l846 0 l0 -78 l-846 0 l0 78 Z" /><glyph glyph-name="uni4E8E" unicode="&#x4e8e;" d="M916 424 l0 -73 l-376 0 l0 -301 q0 -48 -10.5 -72 q-10.5 -24 -38.5 -35 q-28 -11 -85 -16 l-101 -8 l-24 77 l94 5 q36 2 53 8.5 q17 6.5 23 20.5 q6 14 6 43 l0 278 l-395 0 l0 73 l395 0 l0 240 l-314 0 l0 74 l693 0 l0 -74 l-296 0 l0 -240 l376 0 Z" /><glyph glyph-name="uni4E8F" unicode="&#x4e8f;" d="M146 734 l684 0 l0 -73 l-684 0 l0 73 ZM927 442 l-587 0 l-33 -132 l473 0 q-3 -42 -11 -123 q-8 -81 -11 -104 q-7 -63 -26.5 -95 q-19.5 -32 -64.5 -47 q-45 -15 -131 -18 l-86 -4 l-32 76 l112 4 q58 2 86 10.5 q28 8.5 40.5 29 q12.5 20.5 17.5 63.5 q3 21 13 135 l-481 0 l47 205 l-203 0 l0 74 l877 0 l0 -74 Z" /><glyph glyph-name="uni4E91" unicode="&#x4e91;" d="M147 734 l684 0 l0 -74 l-684 0 l0 74 ZM491 389 q-45 -85 -113.5 -184.5 q-68.5 -99.5 -119.5 -152.5 l452 29 q-71 112 -139 197 l62 44 q58 -74 129.5 -177 q71.5 -103 111.5 -173 l-68 -55 q-19 37 -51 92 q-119 -7 -274 -16.5 q-155 -9.5 -251 -15.5 q-40 -3 -103 -13 l-22 76 q25 8 40 17 q15 9 33 25 q50 51 112 138.5 q62 87.5 105 168.5 l-331 0 l0 73 l853 0 l0 -73 l-426 0 Z" /><glyph glyph-name="uni4E92" unicode="&#x4e92;" d="M775 494 l-35 -485 l197 0 l0 -72 l-895 0 l0 72 l618 0 l12 151 l-474 0 l79 482 l-186 0 l0 74 l800 0 l0 -74 l-535 0 l-26 -148 l445 0 ZM317 419 l-31 -184 l392 0 l15 184 l-376 0 Z" /><glyph glyph-name="uni4E94" unicode="&#x4e94;" d="M773 437 l-15 -395 l174 0 l0 -71 l-884 0 l0 71 l212 0 l56 323 l-197 0 l0 72 l210 0 l38 222 l-268 0 l0 74 l789 0 l0 -74 l-441 0 l-38 -222 l364 0 ZM690 365 l-294 0 l-56 -323 l338 0 l12 323 Z" /><glyph glyph-name="uni4E95" unicode="&#x4e95;" d="M931 304 l0 -76 l-219 0 l0 -326 l-80 0 l0 326 l-272 0 q-9 -76 -32 -131.5 q-23 -55.5 -64.5 -104 q-41.5 -48.5 -111.5 -107.5 l-58 56 q65 54 101 94 q36 40 56.5 85 q20.5 45 28.5 108 l-223 0 l0 76 l229 0 q1 21 1 69 l0 165 l-200 0 l0 76 l200 0 l0 179 l80 -3 l0 -176 l265 0 l0 181 l80 -3 l0 -178 l182 0 l0 -76 l-182 0 l0 -234 l219 0 ZM632 304 l0 234 l-265 0 l0 -157 q0 -53 -1 -77 l266 0 Z" /><glyph glyph-name="uni4E9A" unicode="&#x4e9a;" d="M637 678 l0 -653 l294 0 l0 -72 l-880 0 l0 72 l292 0 l0 653 l-254 0 l0 73 l804 0 l0 -73 l-256 0 ZM561 678 l-141 0 l0 -653 l141 0 l0 653 ZM160 561 q23 -39 79.5 -161.5 q56.5 -122.5 81.5 -184.5 l-63 -50 q-23 67 -80.5 194 q-57.5 127 -82.5 166 l65 36 ZM657 209 q49 77 96 178 q47 101 69 174 l66 -37 q-22 -70 -72 -173.5 q-50 -103.5 -96 -177.5 l-63 36 Z" /><glyph glyph-name="uni4E9B" unicode="&#x4e9b;" d="M60 341 q32 5 34 5 l42 6 l0 367 l73 -3 l0 -351 q21 3 39 6.5 q18 3.5 33 5.5 l36 6 l0 418 l73 -3 l0 -169 l137 0 l0 -67 l-137 0 l0 -166 l25 5 q58 9 109 20 l2 -38 l4 -38 q-94 -17 -458 -77 l-12 73 ZM552 396 l0 404 l75 -2 l0 -205 q59 25 127 62.5 q68 37.5 108 66.5 l32 -72 q-42 -27 -119 -65.5 q-77 -38.5 -148 -70.5 l0 -93 q0 -39 13.5 -52 q13.5 -13 47.5 -15 q15 -1 41 -1 q26 0 41 1 q34 2 49 11 q15 9 21 27 q9 28 14 76 l68 -24 q-7 -62 -20 -104 q-8 -24 -32 -36.5 q-24 -12.5 -77 -16.5 q-37 -3 -71 -3 q-34 0 -72 3 q-52 4 -75 27.5 q-23 23.5 -23 81.5 ZM802 132 l-623 0 l0 73 l623 0 l0 -73 ZM919 -49 l-855 0 l0 71 l855 0 l0 -71 Z" /><glyph glyph-name="uni4EA1" unicode="&#x4ea1;" d="M926 553 l-649 0 l0 -526 l580 0 l0 -72 l-663 0 l0 598 l-138 0 l0 75 l416 0 q-32 128 -44 157 l78 15 q14 -36 50 -172 l370 0 l0 -75 Z" /><glyph glyph-name="uni4EA4" unicode="&#x4ea4;" d="M906 678 l0 -75 l-833 0 l0 75 l396 0 q-14 49 -43 115 l68 20 q11 -23 28.5 -66.5 q17.5 -43.5 25.5 -68.5 l358 0 ZM849 280 q-47 54 -137 128.5 q-90 74.5 -149 110.5 l45 57 q58 -35 148 -105.5 q90 -70.5 138 -118.5 l-45 -72 ZM83 340 q73 49 142 110 q69 61 123 124 l55 -51 q-57 -65 -129.5 -130.5 q-72.5 -65.5 -146.5 -118.5 l-44 66 ZM908 -93 q-139 41 -238 84.5 q-99 43.5 -175 101.5 q-73 -57 -173 -102 q-100 -45 -250 -92 l-37 74 q138 38 234.5 79 q96.5 41 165.5 92 q-87 83 -157 209 l64 38 q69 -127 149 -200 q79 76 138 199 l74 -32 q-66 -131 -152 -217 q70 -48 163.5 -84.5 q93.5 -36.5 228.5 -68.5 l-35 -81 Z" /><glyph glyph-name="uni4EA5" unicode="&#x4ea5;" d="M915 670 l0 -69 l-455 0 q-37 -52 -82 -103 q-45 -51 -82 -80 l248 9 q52 59 115 149 l59 -43 q-71 -107 -151.5 -187.5 q-80.5 -80.5 -187 -148.5 q-106.5 -68 -255.5 -135 l-41 67 q137 54 230.5 109.5 q93.5 55.5 166.5 123.5 q-184 -6 -236 -10 q-35 -2 -77 -6 l-18 65 q26 5 37.5 10 q11.5 5 24.5 13 q32 24 77.5 72 q45.5 48 80.5 95 l-304 0 l0 69 l402 0 q-20 76 -40 126 l74 14 q18 -41 46 -140 l368 0 ZM817 363 q-94 -134 -215 -235 q64 -31 147 -81 q83 -50 135 -87 l-38 -75 q-48 45 -137.5 100 q-89.5 55 -169.5 95 q-148 -106 -367 -197 l-48 70 q229 86 378.5 193 q149.5 107 260.5 262 l54 -45 Z" /><glyph glyph-name="uni4EA6" unicode="&#x4ea6;" d="M905 584 l-258 0 l0 -555 q0 -42 -12.5 -65.5 q-12.5 -23.5 -40 -35 q-27.5 -11.5 -79.5 -17.5 l-56 -7 l-25 76 l63 7 q31 3 46 8.5 q15 5.5 21.5 19 q6.5 13.5 6.5 40.5 l0 529 l-150 0 q-3 -126 -7 -196 q-8 -134 -34.5 -218.5 q-26.5 -84.5 -77 -147.5 q-50.5 -63 -143.5 -139 l-56 56 q90 69 136.5 125.5 q46.5 56.5 68.5 131.5 q22 75 30 199 q4 67 7 189 l-281 0 l1 72 l407 0 q-9 30 -22.5 67.5 q-13.5 37.5 -23.5 61.5 l68 20 q13 -31 31 -78 q18 -47 25 -71 l356 0 l-1 -72 ZM256 459 q-30 -89 -76 -189 q-46 -100 -97 -183 l-61 40 q52 81 95 172.5 q43 91.5 71 180.5 l68 -21 ZM740 475 q43 -67 97 -174 q54 -107 81 -177 l-66 -44 q-22 68 -77.5 181.5 q-55.5 113.5 -97.5 178.5 l63 35 Z" /><glyph glyph-name="uni4EA7" unicode="&#x4ea7;" d="M928 613 l-187 0 q-25 -82 -64 -178 l218 0 l0 -73 l-669 0 l0 -85 q0 -127 -28 -215 q-28 -88 -97 -175 l-71 41 q70 81 96 160 q26 79 26 204 l0 143 l176 0 q-32 114 -57 178 l-194 0 l0 73 l395 0 q-21 72 -36 110 l74 14 q14 -34 43 -124 l375 0 l0 -73 ZM596 435 q34 74 65 178 l-309 0 q32 -95 56 -178 l188 0 Z" /><glyph glyph-name="uni4EA8" unicode="&#x4ea8;" d="M920 702 l0 -64 l-858 0 l0 64 l395 0 q-16 50 -30 86 l74 14 q11 -26 36 -100 l383 0 ZM184 365 l0 200 l612 0 l0 -200 l-612 0 ZM254 424 l471 0 l0 78 l-471 0 l0 -78 ZM105 234 l0 64 l743 0 l0 -65 l-308 -126 l0 -85 q0 -41 -12.5 -62.5 q-12.5 -21.5 -44 -32 q-31.5 -10.5 -94.5 -13.5 l-61 -3 l-28 70 l77 4 q39 2 57 7 q18 5 23.5 15.5 q5.5 10.5 5.5 32.5 l0 103 l253 91 l-611 0 Z" /><glyph glyph-name="uni4EAB" unicode="&#x4eab;" d="M909 710 l0 -64 l-839 0 l0 64 l386 0 q-19 62 -29 86 l74 14 q15 -38 35 -100 l373 0 ZM789 581 l0 -183 l-598 0 l0 183 l598 0 ZM717 526 l-455 0 l0 -71 l455 0 l0 71 ZM933 163 l0 -64 l-405 0 l0 -76 q0 -44 -8.5 -65 q-8.5 -21 -29.5 -30 q-21 -9 -65 -13 l-73 -6 l-26 69 l72 7 q27 3 38 7 q11 4 14.5 15 q3.5 11 3.5 38 l0 54 l-407 0 l0 64 l407 0 l0 39 l208 74 l-525 0 l0 63 l677 0 l0 -68 l-286 -103 l0 -5 l405 0 Z" /><glyph glyph-name="uni4EAC" unicode="&#x4eac;" d="M914 691 l0 -68 l-843 0 l0 68 l391 0 q-22 73 -35 105 l74 14 q19 -45 41 -119 l372 0 ZM794 250 l-252 0 l0 -226 q0 -46 -8.5 -67.5 q-8.5 -21.5 -30.5 -30 q-22 -8.5 -70 -12.5 l-67 -6 l-25 74 l66 5 q27 2 38 7.5 q11 5.5 14.5 16.5 q3.5 11 3.5 37 l0 202 l-275 0 l0 280 l606 0 l0 -280 ZM718 462 l-455 0 l0 -144 l455 0 l0 144 ZM30 -6 q59 34 136 96.5 q77 62.5 113 109.5 l56 -51 q-43 -50 -111 -108 q-68 -58 -142 -107 l-52 60 ZM692 196 q65 -46 137 -103 q72 -57 119 -103 l-46 -62 q-42 45 -121.5 112.5 q-79.5 67.5 -133.5 103.5 l45 52 Z" /><glyph glyph-name="uni4EAD" unicode="&#x4ead;" d="M914 712 l0 -65 l-848 0 l0 65 l394 0 q-18 57 -29 85 l74 14 q17 -41 35 -99 l374 0 ZM194 415 l0 170 l593 0 l0 -170 l-593 0 ZM263 468 l455 0 l0 62 l-455 0 l0 -62 ZM166 182 l-70 0 l0 169 l789 0 l0 -171 l-70 0 l0 106 l-649 0 l0 -104 ZM192 147 l0 64 l597 0 l0 -64 l-244 0 l0 -121 q0 -41 -12.5 -63.5 q-12.5 -22.5 -43 -33.5 q-30.5 -11 -89.5 -14 l-58 -3 l-25 71 l70 4 q36 2 53.5 7.5 q17.5 5.5 23.5 17.5 q6 12 6 35 l0 100 l-278 0 Z" /><glyph glyph-name="uni4EAE" unicode="&#x4eae;" d="M908 713 l0 -65 l-835 0 l0 65 l387 0 q-16 53 -29 84 l74 14 q18 -44 35 -98 l368 0 ZM203 400 l0 184 l577 0 l0 -184 l-577 0 ZM277 456 l429 0 l0 72 l-429 0 l0 -72 ZM173 176 l-71 0 l0 163 l779 0 l0 -164 l-72 0 l0 103 l-636 0 l0 -102 ZM838 108 l69 -28 q-9 -68 -18 -100 q-7 -28 -33.5 -42 q-26.5 -14 -81.5 -14 l-78 0 q-58 0 -80.5 20 q-22.5 20 -22.5 74 l0 123 l-232 0 l0 -33 q0 -49 -24.5 -86 q-24.5 -37 -83.5 -67.5 q-59 -30.5 -162 -56.5 l-33 70 q99 22 148 45 q49 23 65.5 53.5 q16.5 30.5 16.5 82.5 l0 58 l380 0 l0 -166 q0 -29 10 -38 q10 -9 41 -9 l43 0 q31 0 45 8.5 q14 8.5 19 27.5 q9 37 12 78 Z" /><glyph glyph-name="uni4EB2" unicode="&#x4eb2;" d="M917 473 l0 -70 l-376 0 l0 -121 l347 0 l0 -69 l-347 0 l0 -182 q0 -43 -11.5 -66 q-11.5 -23 -39 -33.5 q-27.5 -10.5 -81.5 -14.5 l-52 -4 l-26 77 l62 4 q34 2 47.5 7 q13.5 5 18 17 q4.5 12 4.5 42 l0 153 l-371 0 l0 69 l371 0 l0 121 l-403 0 l0 70 l259 0 q-16 78 -38 154 l-170 0 l0 70 l354 0 q-18 60 -34 100 l74 14 q19 -43 40 -114 l323 0 l0 -70 l-152 0 q-17 -72 -44 -154 l245 0 ZM358 627 l33 -125 q2 -10 4 -17 q2 -7 3 -12 l194 0 q26 65 46 154 l-280 0 ZM345 134 q-40 -42 -118.5 -106 q-78.5 -64 -131.5 -99 l-44 60 q47 27 125.5 91 q78.5 64 118.5 106 l50 -52 ZM661 179 q52 -27 132 -81 q80 -54 122 -92 l-43 -70 q-40 43 -117.5 99 q-77.5 56 -133.5 86 l40 58 Z" /><glyph glyph-name="uni4EB9" unicode="&#x4eb9;" d="M909 737 l0 -55 l-838 0 l0 55 l394 0 l-24 67 l60 11 q9 -20 28 -78 l380 0 ZM893 222 l-59 0 l0 94 l-691 0 l0 -94 l-60 0 l0 137 l50 0 l-12 248 q85 15 152 38 l20 -51 q-60 -19 -110 -29 l2 -40 l97 0 l0 -42 l-95 0 l2 -42 l93 0 l0 -41 l-91 0 l2 -41 l121 0 l0 273 l346 0 l0 -273 l121 0 l2 42 l-92 0 l0 42 l94 0 l1 40 l-95 0 l0 43 l97 0 l2 43 l-102 0 l0 50 l163 0 l-11 -260 l53 0 l0 -137 ZM604 586 l-235 0 l0 -227 l235 0 l0 227 ZM394 520 l0 31 l186 0 l0 -31 l-186 0 ZM562 384 l-150 0 l0 107 l150 0 l0 -107 ZM521 457 l-69 0 l0 -41 l69 0 l0 41 ZM773 270 l0 -282 l148 0 l0 -57 l-881 0 l0 57 l147 0 l0 282 l586 0 ZM711 173 l0 47 l-460 0 l0 -47 l460 0 ZM251 81 l460 0 l0 47 l-460 0 l0 -47 ZM711 36 l-460 0 l0 -48 l460 0 l0 48 Z" /><glyph glyph-name="uni4EBA" unicode="&#x4eba;" d="M923 -29 l-56 -68 q-290 233 -377 527 q-39 -149 -132 -276 q-93 -127 -247 -243 l-55 65 q141 102 225.5 207 q84.5 105 123.5 228.5 q39 123.5 41 284.5 q2 32 2 96 l75 -3 q0 -72 -2 -122 q0 -19 -1 -28 q19 -210 119.5 -371.5 q100.5 -161.5 283.5 -296.5 Z" /><glyph glyph-name="uni4EC0" unicode="&#x4ec0;" d="M356 795 q-39 -108 -85 -200 l0 -688 l-74 0 l0 553 q-54 -88 -114 -164 l-59 48 q74 89 145 219 q71 130 111 252 l76 -20 ZM677 466 l263 0 l0 -76 l-263 0 l0 -487 l-79 0 l0 487 l-263 0 l0 76 l263 0 l0 337 l79 -3 l0 -334 Z" /><glyph glyph-name="uni4EC1" unicode="&#x4ec1;" d="M345 796 q-36 -121 -87 -225 l0 -665 l-73 0 l0 531 q-50 -80 -103 -148 l-58 49 q75 97 140.5 223 q65.5 126 102.5 252 l78 -17 ZM368 673 l533 0 l0 -79 l-533 0 l0 79 ZM320 -14 l0 76 l619 0 l0 -76 l-619 0 Z" /><glyph glyph-name="uni4EC5" unicode="&#x4ec5;" d="M333 780 q-33 -110 -80 -210 l0 -670 l-73 0 l0 537 q-50 -80 -105 -150 l-58 49 q76 94 138.5 214 q62.5 120 99.5 247 l78 -17 ZM945 -32 l-49 -71 q-178 115 -286 243 q-103 -111 -281 -235 l-59 65 q189 116 294 230 q-65 92 -108.5 204 q-43.5 112 -68.5 254 l-38 0 l0 76 l513 0 l0 -75 q-28 -141 -75 -250.5 q-47 -109.5 -121 -204.5 q97 -115 279 -236 ZM463 658 q26 -124 63.5 -219 q37.5 -95 92.5 -175 q64 83 103 178.5 q39 95.5 61 215.5 l-320 0 Z" /><glyph glyph-name="uni4EC6" unicode="&#x4ec6;" d="M381 787 q-43 -111 -93 -208 l0 -670 l-76 0 l0 540 q-61 -92 -126 -167 l-57 54 q189 221 277 470 l75 -19 ZM641 -99 l-79 0 l0 901 l79 -3 l0 -898 ZM691 497 q158 -101 248 -180 l-46 -81 q-47 52 -113.5 104.5 q-66.5 52.5 -132.5 92.5 l44 64 Z" /><glyph glyph-name="uni4EC7" unicode="&#x4ec7;" d="M322 788 q-35 -114 -81 -213 l0 -677 l-72 0 l0 538 q-42 -71 -93 -142 l-56 58 q70 87 131.5 209 q61.5 122 94.5 242 l76 -15 ZM942 149 q-7 -94 -19 -150 q-7 -37 -28 -51 q-21 -14 -70 -17 q-9 -1 -25 -1 q-63 0 -90.5 18.5 q-27.5 18.5 -27.5 72.5 l0 508 l-151 0 l0 -16 q-3 -166 -23.5 -268 q-20.5 -102 -65.5 -177.5 q-45 -75.5 -132 -164.5 l-61 48 q88 79 130.5 149 q42.5 70 59 161.5 q16.5 91.5 20.5 254.5 l0 13 l-145 0 l0 72 l147 0 q2 114 2 164 l0 34 l72 -3 l-2 -195 l224 0 l0 -557 q0 -24 7 -31.5 q7 -7.5 30 -7.5 l23 0 q21 0 30 8.5 q9 8.5 15 36.5 q12 59 12 124 l68 -25 Z" /><glyph glyph-name="uni4ECA" unicode="&#x4eca;" d="M25 439 q143 73 253 168 q110 95 178 204 l71 0 q140 -231 423 -370 l-47 -69 q-144 85 -247.5 174 q-103.5 89 -165.5 188 q-64 -98 -172.5 -192 q-108.5 -94 -242.5 -168 l-50 65 ZM436 563 q30 -31 74.5 -87 q44.5 -56 66.5 -90 l-57 -57 q-21 39 -63.5 96.5 q-42.5 57.5 -73.5 89.5 l53 48 ZM138 309 l649 0 l0 -72 q-128 -196 -260 -339 l-75 45 q141 139 236 293 l-550 0 l0 73 Z" /><glyph glyph-name="uni4ECB" unicode="&#x4ecb;" d="M26 407 q153 79 258.5 177 q105.5 98 169.5 222 l70 0 q72 -132 176 -229.5 q104 -97.5 248 -166.5 l-46 -74 q-140 83 -242.5 175.5 q-102.5 92.5 -169.5 209.5 q-75 -120 -175 -212.5 q-100 -92.5 -237 -171.5 l-52 70 ZM604 446 l81 -3 l0 -542 l-81 0 l0 545 ZM99 -46 q83 58 123 103 q40 45 56 100 q16 55 16 146 l0 141 l79 -3 l0 -131 q0 -107 -19 -176.5 q-19 -69.5 -66.5 -125.5 q-47.5 -56 -138.5 -117 l-50 63 Z" /><glyph glyph-name="uni4ECD" unicode="&#x4ecd;" d="M335 767 q-36 -120 -87 -223 l0 -642 l-72 0 l0 517 q-34 -53 -94 -131 l-58 50 q163 206 233 446 l78 -17 ZM760 439 l126 0 l-2 -37 q-3 -60 -10 -196.5 q-7 -136.5 -8 -148.5 q-3 -51 -17 -77 q-14 -26 -47.5 -38 q-33.5 -12 -99.5 -16 l-64 -4 l-27 75 l80 3 q42 2 62 9 q20 7 28.5 24.5 q8.5 17.5 10.5 54.5 q2 18 15 280 l-121 0 l0 70 l56 224 l-219 0 q-3 -242 -17.5 -367 q-14.5 -125 -53.5 -210.5 q-39 -85.5 -124 -181.5 l-58 50 q84 97 120 172 q36 75 48 188.5 q12 113.5 12 348.5 l-94 0 l0 72 l463 0 l0 -68 l-59 -227 Z" /><glyph glyph-name="uni4ECE" unicode="&#x4ece;" d="M889 -104 q-95 110 -155.5 220.5 q-60.5 110.5 -91.5 246.5 q-28 -121 -89.5 -231 q-61.5 -110 -170.5 -231 l-69 57 q114 113 174.5 217 q60.5 104 85.5 218.5 q25 114.5 30 278.5 q2 40 2 128 l76 -4 q0 -64 -2 -124 l-3 -60 q12 -213 78.5 -368 q66.5 -155 195.5 -289 l-61 -59 ZM443 196 q-20 42 -55 101 q-35 59 -70 110 q-20 -136 -67 -243.5 q-47 -107.5 -138 -242.5 l-73 48 q87 122 131.5 214 q44.5 92 65 199.5 q20.5 107.5 24.5 272.5 q1 27 3 78 q2 51 1 66 l75 -4 q0 -30 -1 -72.5 q-1 -42.5 -2 -69.5 q-1 -53 -7 -136 q41 -51 93 -129.5 q52 -78.5 79 -130.5 l-59 -61 Z" /><glyph glyph-name="uni4ED3" unicode="&#x4ed3;" d="M20 437 q140 70 251 166.5 q111 96.5 179 201.5 l78 0 q70 -106 177.5 -196.5 q107.5 -90.5 249.5 -158.5 l-47 -74 q-121 62 -235 158 q-114 96 -183 193 q-76 -103 -183 -195 q-107 -92 -235 -163 l-52 68 ZM723 469 q-1 -36 -3 -95.5 q-2 -59.5 -2 -96.5 q0 -51 -15.5 -79.5 q-15.5 -28.5 -53.5 -42 q-38 -13.5 -109 -16.5 l-69 -4 l-30 79 l91 2 q46 2 69.5 9 q23.5 7 32.5 23.5 q9 16.5 10 47.5 q1 21 2 52 q1 31 1 51 l-345 0 l0 -310 q0 -39 6 -58 q6 -19 25.5 -28 q19.5 -9 60.5 -11 q46 -2 139 -2 q92 0 138 2 q51 1 74 13 q23 12 28 36 q11 51 14 106 l78 -33 q-11 -81 -24 -129 q-9 -33 -41 -49 q-32 -16 -109 -18 q-52 -2 -157 -2 q-104 0 -157 2 q-58 2 -89.5 14.5 q-31.5 12.5 -45.5 44 q-14 31.5 -14 91.5 l0 401 l495 0 Z" /><glyph glyph-name="uni4ED4" unicode="&#x4ed4;" d="M332 784 q-34 -116 -87 -225 l0 -655 l-76 0 l0 519 q-42 -65 -91 -128 l-58 49 q76 94 136 211 q60 117 98 246 l78 -17 ZM941 388 l0 -76 l-268 0 l0 -279 q0 -42 -11 -63.5 q-11 -21.5 -37 -31 q-26 -9.5 -78 -14.5 l-73 -7 l-25 77 l73 6 q34 3 48 7.5 q14 4.5 18.5 16 q4.5 11.5 4.5 38.5 l0 250 l-283 0 l0 76 l283 0 l0 114 l182 161 l-387 0 l0 76 l496 0 l0 -75 l-211 -191 l0 -85 l268 0 Z" /><glyph glyph-name="uni4ED5" unicode="&#x4ed5;" d="M346 780 q-33 -110 -80 -205 l0 -667 l-75 0 l0 534 q-49 -76 -109 -153 l-58 49 q77 95 142 215.5 q65 120.5 102 246.5 l78 -20 ZM938 515 l0 -76 l-268 0 l0 -399 l237 0 l0 -73 l-547 0 l0 73 l234 0 l0 399 l-262 0 l0 76 l262 0 l0 285 l76 -3 l0 -282 l268 0 Z" /><glyph glyph-name="uni4ED6" unicode="&#x4ed6;" d="M928 121 q-1 -10 -4.5 -50 q-3.5 -40 -11.5 -72 q-7 -31 -36.5 -47 q-29.5 -16 -98.5 -18 q-45 -2 -137 -2 q-92 0 -137 2 q-50 2 -78 13.5 q-28 11.5 -41 39 q-13 27.5 -13 76.5 l0 342 l-86 -28 l-16 70 l102 33 l0 221 l71 -2 l0 -197 l128 41 l0 258 l71 -2 l0 -233 l218 69 l-4 -118 q-4 -179 -7 -227 q-4 -56 -29 -78 q-25 -22 -87 -27 l-39 -4 l-21 70 l48 6 q25 3 36 8.5 q11 5.5 15.5 18 q4.5 12.5 5.5 38.5 l8 217 l-144 -47 l0 -397 l-71 0 l0 374 l-128 -41 l0 -343 q0 -35 6 -51 q6 -16 24 -22.5 q18 -6.5 56 -8.5 q72 -2 109 -2 q37 0 109 2 q52 2 74 11.5 q22 9.5 26 31.5 q9 42 11 98 l71 -23 ZM328 769 q-39 -125 -83 -218 l0 -646 l-69 0 l0 519 q-42 -67 -94 -134 l-58 49 q155 195 229 447 l75 -17 Z" /><glyph glyph-name="uni4ED7" unicode="&#x4ed7;" d="M911 -89 q-205 78 -318 174 q-47 -48 -116 -93.5 q-69 -45.5 -168 -94.5 l-39 66 q96 47 161 89 q65 42 107 86 q-61 66 -101 150 q-40 84 -63 194 l66 18 q20 -97 54.5 -172 q34.5 -75 88.5 -134 q38 60 53 136.5 q15 76.5 17 192.5 l0 26 l-342 0 l0 74 l342 0 l0 181 l77 -3 l0 -178 l188 0 l0 -74 l-189 0 l0 -19 q-2 -137 -21 -227.5 q-19 -90.5 -69 -161.5 q109 -89 306 -157 l-34 -73 ZM331 778 q-36 -116 -76 -204 l0 -673 l-71 0 l0 537 q-46 -77 -106 -154 l-58 49 q78 95 138.5 214 q60.5 119 94.5 248 l78 -17 Z" /><glyph glyph-name="uni4ED8" unicode="&#x4ed8;" d="M344 778 q-33 -101 -80 -201 l0 -667 l-78 0 l0 523 q-43 -70 -103 -148 l-63 53 q177 216 248 455 l76 -15 ZM935 603 l0 -76 l-159 0 l0 -492 q0 -42 -9 -64.5 q-9 -22.5 -31.5 -33.5 q-22.5 -11 -66.5 -16 l-92 -11 l-26 76 l107 12 q24 2 31 13 q7 11 7 42 l0 474 l-375 0 l0 76 l375 0 l0 187 l80 -4 l0 -183 l159 0 ZM440 448 q32 -42 78.5 -113 q46.5 -71 68.5 -116 l-63 -55 q-30 65 -72.5 136.5 q-42.5 71.5 -73.5 109.5 l62 38 Z" /><glyph glyph-name="uni4ED9" unicode="&#x4ed9;" d="M800 40 l0 595 l75 -1 l0 -716 l-75 0 l0 52 l-446 0 l0 665 l73 -2 l0 -593 l149 0 l0 762 l75 -3 l0 -759 l149 0 ZM312 780 q-41 -125 -83 -216 l0 -657 l-73 0 l0 518 q-35 -59 -82 -123 l-58 49 q136 166 218 446 l78 -17 Z" /><glyph glyph-name="uni4EE3" unicode="&#x4ee3;" d="M851 155 l63 -45 q-23 -87 -44 -132 q-18 -41 -43 -55.5 q-25 -14.5 -61 -14.5 q-37 0 -70 21.5 q-33 21.5 -68 73.5 q-85 127 -118 416 l-196 -18 l-7 72 l195 18 q-6 69 -8 118 l-10 191 l77 0 q3 -106 8 -194 q2 -43 8 -108 l340 32 l6 -73 l-338 -31 q17 -138 45 -234.5 q28 -96.5 61 -142.5 q22 -31 39 -42.5 q17 -11.5 36 -11.5 q19 0 31 9 q12 9 22 34 q20 49 32 117 ZM363 779 q-39 -109 -90 -209 l0 -669 l-74 0 l0 538 q-52 -83 -120 -170 l-54 56 q77 88 148 216 q71 128 112 253 l78 -15 ZM802 556 q-24 33 -74.5 79 q-50.5 46 -89.5 76 l43 53 q31 -21 83.5 -67 q52.5 -46 84.5 -79 l-47 -62 Z" /><glyph glyph-name="uni4EE4" unicode="&#x4ee4;" d="M526 802 q66 -104 173.5 -195 q107.5 -91 251.5 -161 l-43 -69 q-136 72 -246.5 162.5 q-110.5 90.5 -171.5 186.5 q-65 -95 -173 -184 q-108 -89 -244 -164 l-48 68 q138 67 247.5 158.5 q109.5 91.5 182.5 197.5 l71 0 ZM445 578 q30 -29 71.5 -78 q41.5 -49 60.5 -80 l-57 -57 q-20 36 -61 88 q-41 52 -71 82 l57 45 ZM128 273 l0 71 l678 4 l0 -78 q-122 -136 -232 -228 q83 -42 131 -72 l-38 -77 q-72 54 -212 123 q-140 69 -242 106 l34 67 q93 -34 252 -109 q101 83 202 193 l-573 0 Z" /><glyph glyph-name="uni4EE5" unicode="&#x4ee5;" d="M487 475 q-35 77 -78.5 152 q-43.5 75 -78.5 121 l60 36 q34 -42 79 -115.5 q45 -73.5 81 -143.5 l-63 -50 ZM939 -6 l-55 -63 q-36 58 -86 118 q-50 60 -96 103 q-44 -67 -117.5 -126.5 q-73.5 -59.5 -188.5 -122.5 l-49 67 q144 76 222 152.5 q78 76.5 112 172 q34 95.5 43 241.5 q4 58 4 242 l77 -3 l0 -76 q0 -126 -3 -169 q-6 -102 -21 -177.5 q-15 -75.5 -43 -136.5 q54 -49 107.5 -107.5 q53.5 -58.5 93.5 -114.5 ZM453 332 l46 -64 q-57 -46 -143 -117.5 q-86 -71.5 -147 -123.5 q-44 -38 -68 -65 l-51 61 q20 21 28 34.5 q8 13.5 8 30.5 l0 667 l77 -3 l0 -629 l250 209 Z" /><glyph glyph-name="uni4EEA" unicode="&#x4eea;" d="M326 781 q-37 -114 -76 -205 l0 -671 l-74 0 l0 524 q-44 -76 -102 -151 l-59 53 q73 92 134 213.5 q61 121.5 98 249.5 l79 -13 ZM622 525 q-27 65 -60 132.5 q-33 67.5 -58 103.5 l57 33 q28 -41 66 -111.5 q38 -70.5 53 -111.5 l-58 -46 ZM946 -33 l-40 -73 q-173 105 -287 226 q-55 -56 -128.5 -109 q-73.5 -53 -172.5 -110 l-43 69 q98 57 169 107.5 q71 50.5 122 102.5 q-80 101 -134.5 223.5 q-54.5 122.5 -86.5 277.5 l69 24 q28 -143 77.5 -258 q49.5 -115 125.5 -210 q69 87 109 201 q40 114 69 290 l73 -18 q-32 -190 -78 -315 q-46 -125 -121 -218 q109 -114 277 -210 Z" /><glyph glyph-name="uni4EEC" unicode="&#x4eec;" d="M422 808 q27 -24 67.5 -73 q40.5 -49 61.5 -80 l-52 -57 q-18 34 -58 85 q-40 51 -68 79 l49 46 ZM311 792 q-32 -104 -77 -210 l0 -672 l-68 0 l0 532 q-42 -78 -90 -147 l-55 52 q62 83 124.5 213 q62.5 130 94.5 246 l71 -14 ZM567 737 l314 0 l0 -687 q0 -55 -12 -82 q-12 -27 -41.5 -38 q-29.5 -11 -90.5 -16 l-50 -4 l-25 73 l62 4 q38 3 55 9.5 q17 6.5 23 22.5 q6 16 6 51 l0 596 l-241 0 l0 71 ZM426 -84 l-73 0 l0 704 l73 -2 l0 -702 Z" /><glyph glyph-name="uni4EF0" unicode="&#x4ef0;" d="M313 784 q-37 -114 -76 -201 l0 -674 l-71 0 l0 530 q-46 -82 -100 -153 l-54 53 q68 89 127 209.5 q59 120.5 98 249.5 l76 -14 ZM581 720 q-34 -19 -78.5 -38.5 q-44.5 -19.5 -80.5 -31.5 l0 -500 l138 73 l4 -84 q-115 -59 -166 -81 q-25 -12 -47 -25 l-25 78 q16 13 20 19.5 q4 6.5 4 18.5 l0 561 q45 13 103.5 36.5 q58.5 23.5 99.5 43.5 l28 -70 ZM583 732 l289 0 l0 -554 q0 -42 -9.5 -63.5 q-9.5 -21.5 -32 -31.5 q-22.5 -10 -65.5 -16 l-40 -6 l-23 76 l37 5 q30 4 42 9 q12 5 15.5 16.5 q3.5 11.5 3.5 38.5 l0 452 l-145 0 l0 -755 l-72 0 l0 829 Z" /><glyph glyph-name="uni4EF2" unicode="&#x4ef2;" d="M646 625 l230 0 l0 -429 l-230 0 l0 -295 l-75 0 l0 295 l-232 0 l0 429 l232 0 l0 182 l75 -3 l0 -179 ZM318 783 q-41 -122 -78 -206 l0 -669 l-70 0 l0 529 q-47 -83 -99 -152 l-57 55 q70 87 129 206.5 q59 119.5 99 250.5 l76 -14 ZM414 548 l0 -275 l157 0 l0 275 l-157 0 ZM646 273 l153 0 l0 275 l-153 0 l0 -275 Z" /><glyph glyph-name="uni4EF6" unicode="&#x4ef6;" d="M941 286 l0 -72 l-265 0 l0 -313 l-76 0 l0 313 l-295 0 l0 72 l295 0 l0 236 l-147 0 q-28 -90 -65 -170 l-75 27 q38 81 70 182 q32 101 49 196 l75 -16 q-13 -75 -33 -147 l126 0 l0 213 l76 -4 l0 -209 l223 0 l0 -72 l-223 0 l0 -236 l265 0 ZM321 773 q-33 -107 -71 -190 l0 -680 l-73 0 l0 540 q-46 -78 -102 -151 l-58 49 q154 204 226 448 l78 -16 Z" /><glyph glyph-name="uni4EF7" unicode="&#x4ef7;" d="M630 802 q50 -115 134 -210.5 q84 -95.5 189 -154.5 l-45 -64 q-103 69 -179.5 154.5 q-76.5 85.5 -131.5 192.5 q-53 -113 -114 -191.5 q-61 -78.5 -167 -157.5 l-48 55 q106 75 173.5 167.5 q67.5 92.5 115.5 208.5 l73 0 ZM333 779 q-36 -106 -86 -207 l0 -667 l-73 0 l0 535 q-49 -77 -103 -148 l-55 44 q76 92 141.5 213 q65.5 121 103.5 244 l72 -14 ZM444 440 l73 -4 l0 -134 q0 -103 -14.5 -167 q-14.5 -64 -50 -115.5 q-35.5 -51.5 -108.5 -122.5 l-58 46 q67 61 100 108 q33 47 45.5 103 q12.5 56 12.5 146 l0 140 ZM765 -94 l-75 0 l0 532 l75 -4 l0 -528 Z" /><glyph glyph-name="uni4EFB" unicode="&#x4efb;" d="M327 776 q-34 -107 -75 -194 l0 -674 l-74 0 l0 537 q-41 -67 -100 -146 l-62 48 q167 220 233 446 l78 -17 ZM938 325 l-281 0 l0 -291 l252 0 l0 -73 l-576 0 l0 73 l246 0 l0 291 l-272 0 l0 76 l272 0 l0 242 q-130 -17 -227 -20 l-15 74 q100 4 264.5 25.5 q164.5 21.5 268.5 42.5 l16 -75 q-79 -16 -229 -37 l0 -252 l281 0 l0 -76 Z" /><glyph glyph-name="uni4EFD" unicode="&#x4efd;" d="M696 805 q36 -124 97.5 -220 q61.5 -96 155.5 -179 l-61 -54 q-84 83 -155 194.5 q-71 111.5 -108 240.5 l71 18 ZM322 781 q-34 -116 -77 -213 l0 -667 l-70 0 l0 531 q-50 -81 -101 -146 l-56 51 q71 89 134 213.5 q63 124.5 99 246.5 l71 -16 ZM572 761 q-70 -184 -201 -343 l445 0 q-3 -62 -8.5 -173 q-5.5 -111 -9.5 -181 q-3 -53 -20.5 -82.5 q-17.5 -29.5 -51 -42.5 q-33.5 -13 -90.5 -17 l-52 -4 l-28 77 l74 5 q38 2 56 11 q18 9 25.5 29 q7.5 20 11.5 61 q4 48 8 123 q4 75 6 120 l-196 0 l-1 -23 q-5 -103 -25.5 -173 q-20.5 -70 -64 -128.5 q-43.5 -58.5 -121.5 -126.5 l-64 55 q77 57 117.5 106.5 q40.5 49.5 59.5 111 q19 61.5 25 157.5 l2 21 l-98 0 l0 74 q-34 -40 -51 -58 l-56 49 q78 74 136 168 q58 94 95 201 l77 -17 Z" /><glyph glyph-name="uni4EFF" unicode="&#x4eff;" d="M544 583 l-4 -123 q0 -11 -2 -29 l310 0 l-18 -366 q-3 -55 -18.5 -83.5 q-15.5 -28.5 -48.5 -40.5 q-33 -12 -98 -16 l-62 -4 l-26 79 l74 3 q39 2 59.5 10 q20.5 8 30 25.5 q9.5 17.5 13.5 51.5 q3 26 9 134 q6 108 6 132 l-236 0 q-9 -109 -28.5 -184 q-19.5 -75 -57.5 -139 q-38 -64 -105 -135 l-65 51 q77 76 114 144 q37 68 51 148 q14 80 24 229 l4 113 l-146 0 l0 74 l279 0 q-31 109 -43 140 l73 13 q13 -29 40 -125 l8 -28 l255 0 l0 -74 l-392 0 ZM337 784 q-41 -117 -85 -211 l0 -669 l-74 0 l0 528 q-42 -74 -99 -149 l-59 56 q71 86 134.5 209 q63.5 123 101.5 250 l81 -14 Z" /><glyph glyph-name="uni4F01" unicode="&#x4f01;" d="M72 371 l-47 68 q137 73 251 169 q114 96 180 191 l70 0 q70 -100 180 -193 q110 -93 247 -166 l-48 -69 q-147 90 -248 175.5 q-101 85.5 -166 176.5 q-62 -86 -177 -182 q-115 -96 -242 -170 ZM822 245 l-279 0 l0 -228 l369 0 l0 -70 l-857 0 l0 70 l142 0 l0 366 l74 -3 l0 -363 l196 0 l0 518 l76 -3 l0 -213 l279 0 l0 -74 Z" /><glyph glyph-name="uni4F0A" unicode="&#x4f0a;" d="M317 773 q-34 -108 -82 -211 l0 -661 l-72 0 l0 526 q-43 -70 -93 -135 l-58 49 q161 203 229 447 l76 -15 ZM939 501 l0 -73 l-98 0 l0 -239 l-302 0 q-20 -98 -66 -163.5 q-46 -65.5 -143 -140.5 l-56 60 q86 62 127.5 114 q41.5 52 60.5 130 l-161 0 l0 74 l173 0 q6 59 8 165 l-205 0 l0 73 l205 0 l0 164 l-150 0 l0 74 l509 0 l0 -238 l98 0 ZM767 665 l-210 0 l0 -164 l210 0 l0 164 ZM767 263 l0 165 l-210 0 q-2 -106 -8 -165 l218 0 Z" /><glyph glyph-name="uni4F0D" unicode="&#x4f0d;" d="M322 785 q-35 -113 -74 -199 l0 -683 l-72 0 l0 545 q-45 -73 -105 -152 l-58 49 q161 206 231 457 l78 -17 ZM836 434 l-9 -404 l117 0 l0 -70 l-659 0 l0 70 l133 0 l43 332 l-125 0 l0 72 l135 0 l29 223 l-164 0 l0 72 l578 0 l0 -72 l-337 0 l-29 -223 l288 0 ZM756 362 l-218 0 l-44 -332 l255 0 l7 332 Z" /><glyph glyph-name="uni4F0F" unicode="&#x4f0f;" d="M344 787 q-38 -112 -88 -217 l0 -669 l-71 0 l0 539 q-52 -83 -98 -147 l-62 54 q75 95 138.5 215.5 q63.5 120.5 101.5 242.5 l79 -18 ZM943 -35 l-54 -59 q-95 67 -173.5 167.5 q-78.5 100.5 -119.5 212.5 q-31 -101 -96.5 -192.5 q-65.5 -91.5 -178.5 -192.5 l-62 51 q102 84 163 163 q61 79 91 163 q30 84 36 186 l-233 0 l0 74 l235 0 l0 263 l77 -3 l0 -260 l287 0 l0 -74 l-289 0 l0 -7 q20 -150 100.5 -274.5 q80.5 -124.5 216.5 -217.5 ZM824 564 q-22 34 -66 83.5 q-44 49.5 -76 79.5 l48 46 q29 -24 75 -72 q46 -48 70 -79 l-51 -58 Z" /><glyph glyph-name="uni4F10" unicode="&#x4f10;" d="M926 105 q-17 -73 -44 -131 q-14 -31 -42.5 -49.5 q-28.5 -18.5 -58.5 -18.5 q-39 0 -84 26.5 q-45 26.5 -81 85.5 q-22 37 -48 99 q-106 -75 -243 -139 l-37 67 q146 64 256 144 q-33 111 -52 275 l-181 -22 l-8 71 l182 22 l-6 72 q-6 81 -9 139 l-4 53 l74 -1 q1 -22 4 -79 q3 -57 8 -121 l5 -54 l353 43 l8 -71 l-353 -43 q16 -136 42 -236 q116 100 192 220 l58 -46 q-94 -141 -227 -248 q24 -66 54 -114 q20 -32 47 -47 q27 -15 48 -15 q17 0 29 11 q12 11 23 36 q10 23 19 54 q9 31 16 59 l60 -42 ZM349 778 q-42 -125 -89 -220 l0 -658 l-70 0 l0 529 q-46 -75 -103 -146 l-59 50 q69 80 138.5 209.5 q69.5 129.5 108.5 252.5 l74 -17 ZM772 588 q-29 33 -79.5 76.5 q-50.5 43.5 -85.5 68.5 l40 53 q34 -23 87.5 -67 q53.5 -44 81.5 -72 l-44 -59 Z" /><glyph glyph-name="uni4F11" unicode="&#x4f11;" d="M900 23 q-174 174 -265 381 l0 -504 l-79 0 l0 493 q-42 -97 -99 -181.5 q-57 -84.5 -149 -189.5 l-59 53 q104 101 177.5 217 q73.5 116 122.5 251 l-227 0 l0 76 l234 0 l0 188 l79 -3 l0 -185 l269 0 l0 -76 l-260 0 q48 -127 128.5 -244.5 q80.5 -117.5 185.5 -216.5 l-58 -59 ZM324 767 q-37 -120 -82 -214 l0 -653 l-69 0 l0 525 q-48 -76 -99 -141 l-57 53 q160 211 229 447 l78 -17 Z" /><glyph glyph-name="uni4F17" unicode="&#x4f17;" d="M94 387 l-48 69 q292 147 411 337 l71 0 q63 -100 165 -182.5 q102 -82.5 243 -154.5 l-46 -70 q-134 71 -232 150.5 q-98 79.5 -165 175.5 q-66 -92 -163.5 -171.5 q-97.5 -79.5 -235.5 -153.5 ZM447 116 q-20 30 -54.5 72.5 q-34.5 42.5 -68.5 78.5 q-22 -97 -71 -182 q-49 -85 -136 -178 l-69 50 q112 112 161.5 210 q49.5 98 59.5 234 l6 88 l74 -5 q0 -18 -2 -44.5 q-2 -26.5 -4 -43.5 q-2 -30 -4 -42 q38 -37 87 -91 q49 -54 74 -88 l-53 -59 ZM934 -34 l-52 -62 q-179 138 -243 319 q-29 -90 -86.5 -167.5 q-57.5 -77.5 -152.5 -161.5 l-59 57 q88 72 141 139 q53 67 79.5 140 q26.5 73 33.5 165 q5 70 5 94 l77 -5 l-6 -92 l-2 -20 q19 -123 85 -222.5 q66 -99.5 180 -183.5 Z" /><glyph glyph-name="uni4F18" unicode="&#x4f18;" d="M336 786 q-38 -119 -87 -224 l0 -657 l-74 0 l0 519 q-48 -78 -98 -138 l-56 51 q75 86 138 209 q63 123 103 254 l74 -14 ZM904 504 l-328 0 q-6 -138 -28.5 -235.5 q-22.5 -97.5 -74 -184 q-51.5 -86.5 -144.5 -181.5 l-64 51 q89 86 136 164 q47 78 68 166 q21 88 28 220 l-187 0 l0 74 l191 0 q2 54 3 121.5 q1 67.5 1 100.5 l77 -3 l-4 -219 l326 0 l0 -74 ZM802 580 q-21 36 -63.5 91.5 q-42.5 55.5 -65.5 77.5 l54 41 q30 -31 69.5 -78.5 q39.5 -47.5 60.5 -78.5 l-55 -53 ZM930 134 q-2 -40 -8 -95 q-5 -41 -16.5 -62.5 q-11.5 -21.5 -33.5 -31.5 q-22 -10 -64 -14 l-93 0 q-37 3 -58.5 13 q-21.5 10 -32 33.5 q-10.5 23.5 -10.5 66.5 l0 417 l75 -3 l0 -394 q0 -26 3.5 -38 q3.5 -12 13 -17 q9.5 -5 31.5 -7 l56 0 q22 2 32.5 6 q10.5 4 16.5 16 q6 12 9 38 q7 52 8 96 l71 -24 Z" /><glyph glyph-name="uni4F19" unicode="&#x4f19;" d="M642 495 q9 -122 44.5 -214.5 q35.5 -92.5 99.5 -167 q64 -74.5 162 -143.5 l-61 -66 q-99 80 -168 173.5 q-69 93.5 -106 208.5 q-33 -110 -104.5 -201.5 q-71.5 -91.5 -193.5 -188.5 l-54 63 q113 80 179 162 q66 82 95 184 q29 102 29 242 l0 250 l78 -3 l0 -299 ZM330 770 q-36 -116 -87 -222 l0 -648 l-72 0 l0 517 q-49 -79 -98 -142 l-52 57 q72 81 134.5 204 q62.5 123 97.5 247 l77 -13 ZM910 616 q-24 -61 -72 -149.5 q-48 -88.5 -84 -136.5 l-65 36 q34 46 81 134.5 q47 88.5 69 145.5 l71 -30 ZM454 312 q-24 65 -70 152 q-46 87 -82 140 l64 36 q34 -48 80.5 -133.5 q46.5 -85.5 71.5 -146.5 l-64 -48 Z" /><glyph glyph-name="uni4F1A" unicode="&#x4f1a;" d="M528 802 q65 -92 171 -175.5 q106 -83.5 245 -150.5 l-39 -69 q-118 65 -234.5 153 q-116.5 88 -178.5 170 q-65 -88 -172.5 -173 q-107.5 -85 -241.5 -154 l-41 65 q139 66 246 152 q107 86 174 182 l71 0 ZM239 423 l0 68 l505 0 l0 -68 l-505 0 ZM86 223 l0 70 l809 0 l0 -70 l-426 0 q-40 -55 -87.5 -109 q-47.5 -54 -89.5 -93 l390 14 q-57 69 -103 112 l55 44 q42 -38 107.5 -114 q65.5 -76 99.5 -126 l-55 -59 q-18 31 -52 77 q-113 -3 -271.5 -9.5 q-158.5 -6.5 -202.5 -10.5 q-65 -5 -98 -11 l-15 68 q21 8 32.5 14.5 q11.5 6.5 30.5 20.5 q37 32 82 82 q45 50 83 100 l-289 0 Z" /><glyph glyph-name="uni4F1F" unicode="&#x4f1f;" d="M621 306 l279 0 q-3 -85 -10 -189 q-4 -64 -28.5 -88.5 q-24.5 -24.5 -82.5 -28.5 l-60 -5 l-27 72 l60 5 q25 2 37.5 7.5 q12.5 5.5 17.5 16.5 q5 11 7 33 q6 60 8 106 l-201 0 l0 -333 l-75 0 l0 333 l-233 0 l0 71 l233 0 l0 112 l-178 0 l0 69 l178 0 l0 113 l-203 0 l0 69 l203 0 l0 135 l75 -3 l0 -132 l277 0 l0 -69 l-277 0 l0 -113 l237 0 l0 -69 l-237 0 l0 -112 ZM343 782 q-38 -110 -91 -216 l0 -660 l-74 0 l0 527 q-52 -83 -104 -145 l-56 56 q82 94 149.5 218.5 q67.5 124.5 104.5 234.5 l71 -15 Z" /><glyph glyph-name="uni4F20" unicode="&#x4f20;" d="M935 411 l-400 0 q-19 -62 -36 -107 l345 0 l0 -69 q-52 -89 -138 -196 q79 -39 137 -74 l-31 -82 q-75 55 -204.5 119 q-129.5 64 -223.5 97 l28 66 q98 -33 227 -94 q73 90 114 163 l-334 0 l-1 64 q24 62 39 113 l-163 0 l0 68 l183 0 q18 70 29 117 l-159 0 l0 68 l173 0 q15 74 24 145 l73 -10 q-11 -79 -22 -135 l291 0 l0 -68 l-305 0 q-16 -73 -28 -117 l382 0 l0 -68 ZM338 788 q-36 -106 -86 -207 l0 -684 l-72 0 l0 555 q-46 -74 -110 -154 l-53 54 q68 79 133.5 199.5 q65.5 120.5 111.5 251.5 l76 -15 Z" /><glyph glyph-name="uni4F24" unicode="&#x4f24;" d="M932 676 l0 -73 l-451 0 q-54 -89 -115 -163 l-61 43 q60 68 110 152 q50 84 85 173 l76 -15 q-19 -49 -54 -117 l410 0 ZM341 777 q-41 -114 -91 -216 l0 -659 l-71 0 l0 531 q-41 -66 -96 -137 l-59 48 q72 88 138.5 209.5 q66.5 121.5 106.5 243.5 l72 -20 ZM589 545 q-3 -95 -6 -134 l288 0 q-3 -63 -8.5 -174 q-5.5 -111 -9.5 -183 q-3 -49 -18 -75 q-15 -26 -50.5 -38 q-35.5 -12 -103.5 -16 l-67 -4 l-25 75 l88 4 q46 2 65 8.5 q19 6.5 25.5 22.5 q6.5 16 9.5 55 q3 51 7 129 q4 78 6 126 l-211 0 q-9 -110 -30.5 -179.5 q-21.5 -69.5 -72 -131.5 q-50.5 -62 -147.5 -137 l-56 56 q90 65 136.5 118.5 q46.5 53.5 66.5 114.5 q20 61 28 159 l-175 0 l0 70 l180 0 l3 95 l1 42 l76 -3 Z" /><glyph glyph-name="uni4F26" unicode="&#x4f26;" d="M332 787 q-42 -121 -83 -214 l0 -671 l-73 0 l0 526 q-44 -77 -94 -145 l-60 52 q66 89 130 219 q64 130 100 252 l80 -19 ZM420 474 l76 -5 l0 -188 q71 32 149.5 75.5 q78.5 43.5 127.5 79.5 l37 -71 q-52 -36 -144 -84.5 q-92 -48.5 -170 -81.5 l0 -119 q0 -32 6 -47.5 q6 -15.5 21.5 -21.5 q15.5 -6 49.5 -8 q20 -1 59 -1 q40 0 59 1 q51 2 71.5 12 q20.5 10 25.5 34 q10 47 13 107 l77 -28 q-2 -18 -4 -27 q-8 -67 -17 -101 q-9 -31 -42.5 -48.5 q-33.5 -17.5 -100.5 -20.5 q-50 -2 -76 -2 q-25 0 -77 2 q-56 2 -86.5 14.5 q-30.5 12.5 -44.5 42.5 q-14 30 -14 88 l0 394 q-45 -40 -94 -76 l-52 63 q92 65 176 155 q84 90 130 180 l72 0 q44 -94 126.5 -184 q82.5 -90 180.5 -151 l-51 -63 q-213 163 -292 317 q-69 -125 -192 -237 Z" /><glyph glyph-name="uni4F2A" unicode="&#x4f2a;" d="M885 571 q-3 -91 -10.5 -269.5 q-7.5 -178.5 -11.5 -242.5 q-3 -49 -20.5 -76 q-17.5 -27 -53 -39.5 q-35.5 -12.5 -97.5 -16.5 l-59 -4 l-27 76 l78 3 q40 2 61.5 10 q21.5 8 31.5 26.5 q10 18.5 13 54.5 q8 93 18 403 l-212 0 q-10 -94 -23 -157 l46 46 q35 -31 80.5 -82 q45.5 -51 64.5 -82 l-53 -56 q-61 95 -139 173 q-27 -127 -85 -220 q-58 -93 -174 -209 l-58 54 q100 97 153 169 q53 72 79.5 155 q26.5 83 36.5 209 l-223 0 l0 75 l228 0 q3 55 6.5 125.5 q3.5 70.5 4.5 103.5 l73 -3 q-8 -178 -12 -226 l284 0 ZM320 783 q-28 -97 -73 -204 l0 -672 l-69 0 l0 533 q-45 -81 -97 -150 l-51 50 q63 85 123.5 210.5 q60.5 125.5 94.5 244.5 l72 -12 ZM448 589 q-17 30 -51.5 74 q-34.5 44 -61.5 72 l46 42 q24 -22 60.5 -65 q36.5 -43 55.5 -72 l-49 -51 Z" /><glyph glyph-name="uni4F2F" unicode="&#x4f2f;" d="M868 661 l0 -762 l-73 0 l0 68 l-337 0 l0 -70 l-73 0 l0 764 l155 0 q15 30 28.5 72.5 q13.5 42.5 20.5 76.5 l88 -10 q-7 -27 -20.5 -67.5 q-13.5 -40.5 -25.5 -71.5 l237 0 ZM329 790 q-33 -103 -75 -198 l0 -691 l-72 0 l0 552 q-45 -78 -105 -154 l-57 55 q70 79 133.5 201 q63.5 122 103.5 249 l72 -14 ZM795 358 l0 233 l-337 0 l0 -233 l337 0 ZM458 287 l0 -249 l337 0 l0 249 l-337 0 Z" /><glyph glyph-name="uni4F30" unicode="&#x4f30;" d="M327 783 q-36 -111 -84 -207 l0 -679 l-73 0 l0 547 q-46 -72 -102 -145 l-49 52 q68 83 130 203.5 q62 120.5 100 244.5 l78 -16 ZM926 622 l0 -72 l-276 0 l0 -198 l199 0 l0 -460 l-77 0 l0 67 l-320 0 l0 -67 l-76 0 l0 460 l200 0 l0 198 l-258 0 l0 72 l258 0 l0 175 l74 -3 l0 -172 l276 0 ZM452 31 l320 0 l0 246 l-320 0 l0 -246 Z" /><glyph glyph-name="uni4F34" unicode="&#x4f34;" d="M658 220 l282 0 l0 -72 l-282 0 l0 -247 l-75 0 l0 247 l-267 0 l0 72 l267 0 l0 143 l-213 0 l0 69 l213 0 l0 377 l75 -3 l0 -374 l235 0 l0 -69 l-235 0 l0 -143 ZM331 779 q-37 -106 -80 -197 l0 -681 l-75 0 l0 541 q-52 -85 -105 -149 l-55 54 q85 94 144.5 215 q59.5 121 96.5 243 l74 -26 ZM897 722 q-24 -67 -47.5 -119.5 q-23.5 -52.5 -62.5 -121.5 l-67 31 q42 68 67 122.5 q25 54.5 42 112.5 l68 -25 ZM455 478 q-38 102 -103 230 l62 32 l17 -35 q65 -135 89 -193 l-65 -34 Z" /><glyph glyph-name="uni4F38" unicode="&#x4f38;" d="M323 791 q-42 -134 -88 -230 l0 -654 l-68 0 l0 527 q-32 -53 -92 -138 l-56 54 q72 97 131 214 q59 117 95 242 l78 -15 ZM652 662 l229 0 l0 -559 l-229 0 l0 -200 l-70 0 l0 200 l-228 0 l0 559 l228 0 l0 144 l70 -3 l0 -141 ZM582 417 l0 174 l-159 0 l0 -174 l159 0 ZM811 417 l0 174 l-159 0 l0 -174 l159 0 ZM423 346 l0 -174 l159 0 l0 174 l-159 0 ZM652 346 l0 -174 l159 0 l0 174 l-159 0 Z" /><glyph glyph-name="uni4F3C" unicode="&#x4f3c;" d="M322 787 q-34 -107 -75 -202 l0 -679 l-70 0 l0 535 q-50 -91 -97 -154 l-57 57 q68 86 128 209.5 q60 123.5 96 248.5 l75 -15 ZM618 514 q-18 50 -57 123.5 q-39 73.5 -67 111.5 l58 35 q29 -39 69.5 -108 q40.5 -69 57.5 -110 l-61 -52 ZM888 -76 q-20 43 -62.5 103 q-42.5 60 -86.5 112 q-38 -63 -98 -120 q-60 -57 -155 -124 l-49 64 q130 88 194 160.5 q64 72.5 90.5 167.5 q26.5 95 33.5 261 q2 60 3.5 121.5 q1.5 61.5 0.5 101.5 l74 -2 q1 -38 -4 -223 q-3 -112 -16 -193.5 q-13 -81.5 -40 -145.5 q44 -49 95.5 -117 q51.5 -68 76.5 -111 l-57 -55 ZM643 275 q-17 -13 -97.5 -84 q-80.5 -71 -101.5 -91 l-48 -46 l-50 55 q16 16 21.5 27.5 q5.5 11.5 5.5 25.5 l0 553 l72 -2 l0 -519 l164 152 l34 -71 Z" /><glyph glyph-name="uni4F3D" unicode="&#x4f3d;" d="M414 801 l0 -179 l168 0 l-12 -587 q-1 -40 -13 -60.5 q-12 -20.5 -35 -29 q-23 -8.5 -69 -14.5 l-32 -4 l-25 71 l40 3 q30 3 42.5 8 q12.5 5 17 17.5 q4.5 12.5 5.5 41.5 l12 484 l-99 0 q-1 -24 -1 -52 q-2 -169 -14.5 -267.5 q-12.5 -98.5 -37 -167.5 q-24.5 -69 -75.5 -168 l-60 33 q49 91 72 157.5 q23 66.5 33 159 q10 92.5 12 256.5 l0 49 l-79 0 l0 70 l80 0 l2 182 l68 -3 ZM270 793 q-26 -107 -57 -185 l0 -706 l-66 0 l0 562 q-32 -62 -76 -132 l-55 42 q145 246 189 429 l65 -10 ZM646 -82 l0 766 l241 0 l0 -766 l-68 0 l0 88 l-105 0 l0 -88 l-68 0 ZM714 615 l0 -538 l105 0 l0 538 l-105 0 Z" /><glyph glyph-name="uni4F46" unicode="&#x4f46;" d="M327 778 q-43 -125 -84 -212 l0 -676 l-73 0 l0 539 q-44 -71 -97 -139 l-53 58 q68 81 128 199 q60 118 101 248 l78 -17 ZM384 737 l480 0 l0 -564 l-480 0 l0 564 ZM787 494 l0 170 l-327 0 l0 -170 l327 0 ZM460 422 l0 -173 l327 0 l0 173 l-327 0 ZM301 -55 l0 74 l640 0 l0 -74 l-640 0 Z" /><glyph glyph-name="uni4F4D" unicode="&#x4f4d;" d="M326 793 q-38 -118 -80 -214 l0 -668 l-72 0 l0 527 q-45 -77 -100 -148 l-59 53 q76 103 136 220.5 q60 117.5 96 242.5 l79 -13 ZM914 639 l0 -71 l-584 0 l0 71 l265 0 q-9 32 -26 75.5 q-17 43.5 -28 70.5 l70 20 q10 -21 31.5 -78.5 q21.5 -57.5 30.5 -87.5 l241 0 ZM932 25 l0 -70 l-630 0 l0 70 l314 0 q37 99 80 249.5 q43 150.5 61 244.5 l79 -16 q-20 -93 -63 -236 q-43 -143 -80 -242 l239 0 ZM499 88 q-10 78 -45 204 q-35 126 -66 201 l70 20 q30 -71 65.5 -196.5 q35.5 -125.5 45.5 -200.5 l-70 -28 Z" /><glyph glyph-name="uni4F4E" unicode="&#x4f4e;" d="M324 785 q-33 -103 -82 -207 l0 -678 l-72 0 l0 547 q-49 -76 -104 -146 l-49 52 q70 88 135 212.5 q65 124.5 98 242.5 l74 -23 ZM940 99 q-18 -76 -35 -116 q-12 -30 -31.5 -47 q-19.5 -17 -42.5 -17 q-33 0 -67.5 35 q-34.5 35 -59.5 106 q-39 115 -58 307 l-198 0 l0 -298 q15 13 91 71 q53 40 57 43 l23 -74 q-10 -6 -34 -24 l-27 -20 q34 -41 64 -78.5 q30 -37.5 42 -58.5 l-51 -43 q-33 54 -107 141 l-77 -56 l-45 -35 l-41 61 q20 18 25.5 28.5 q5.5 10.5 5.5 27.5 l0 655 q113 7 244 24 q131 17 245 40 l16 -72 q-76 -17 -178 -32 q3 -139 11 -228 l202 0 l0 -72 l-196 0 q19 -191 55 -290 q24 -69 58 -69 q19 0 31 42 q13 43 20 85 l58 -36 ZM448 439 l192 0 q-8 113 -11 218 q-75 -11 -181 -20 l0 -198 Z" /><glyph glyph-name="uni4F4F" unicode="&#x4f4f;" d="M641 21 l291 0 l0 -72 l-637 0 l0 72 l269 0 l0 249 l-223 0 l0 73 l223 0 l0 219 l-247 0 l0 73 l257 0 q-31 121 -47 159 l74 14 q14 -32 53 -173 l246 0 l0 -73 l-259 0 l0 -219 l227 0 l0 -73 l-227 0 l0 -249 ZM319 772 q-35 -109 -78 -206 l0 -660 l-72 0 l0 520 q-40 -70 -90 -135 l-56 60 q66 90 127 206 q61 116 97 234 l72 -19 Z" /><glyph glyph-name="uni4F50" unicode="&#x4f50;" d="M686 23 l253 0 l0 -66 l-596 0 l0 66 l268 0 l0 285 l-138 0 q-59 -112 -165 -241 l-59 54 q96 109 154.5 220 q58.5 111 94.5 246 l-182 0 l0 70 l198 0 q15 72 27 151 l76 -9 q-13 -85 -25 -142 l339 0 l0 -70 l-355 0 q-27 -115 -69 -209 l382 0 l0 -70 l-203 0 l0 -285 ZM335 778 q-39 -126 -91 -230 l0 -640 l-71 0 l0 514 q-41 -64 -95 -130 l-49 63 q70 79 134.5 199 q64.5 120 101.5 240 l70 -16 Z" /><glyph glyph-name="uni4F51" unicode="&#x4f51;" d="M943 584 l-354 0 q-37 -109 -88 -199 l358 0 l0 -479 l-77 0 l0 69 l-284 0 l0 -69 l-76 0 l0 354 q-57 -79 -125 -150 l-47 58 l0 -265 l-72 0 l0 536 q-49 -79 -108 -150 l-44 68 q69 84 134 203.5 q65 119.5 99 234.5 l73 -11 q-32 -105 -82 -212 l0 -402 q180 187 261 414 l-179 0 l0 75 l202 0 q17 60 30 141 l77 -10 q-10 -61 -29 -131 l331 0 l0 -75 ZM498 47 l284 0 l0 262 l-284 0 l0 -262 Z" /><glyph glyph-name="uni4F53" unicode="&#x4f53;" d="M675 559 q58 -141 128 -242.5 q70 -101.5 167 -182.5 l-53 -64 q-106 99 -171.5 206 q-65.5 107 -116.5 247 l0 -379 l174 0 l0 -69 l-174 0 l0 -174 l-76 0 l0 174 l-168 0 l0 69 l168 0 l0 366 q-38 -118 -104 -224 q-66 -106 -159 -207 l-56 54 l0 -224 l-73 0 l0 504 q-40 -69 -87 -130 l-56 50 q162 219 228 465 l71 -22 q-35 -118 -83 -222 l0 -419 q90 88 162.5 195.5 q72.5 107.5 113.5 228.5 l-198 0 l0 71 l241 0 l0 170 l76 -3 l0 -167 l271 0 l0 -71 l-225 0 Z" /><glyph glyph-name="uni4F55" unicode="&#x4f55;" d="M310 784 q-34 -117 -78 -218 l0 -668 l-72 0 l0 527 q-41 -68 -88 -130 l-61 47 q66 74 129 202 q63 128 96 254 l74 -14 ZM937 729 l0 -71 l-91 0 l0 -609 q0 -55 -13 -83.5 q-13 -28.5 -47 -41.5 q-34 -13 -102 -16 l-66 -4 l-27 76 l83 4 q43 2 62.5 9 q19.5 7 27 24 q7.5 17 7.5 53 l0 588 l-447 0 l0 71 l613 0 ZM351 524 l303 0 l0 -388 l-303 0 l0 388 ZM419 207 l167 0 l0 249 l-167 0 l0 -249 Z" /><glyph glyph-name="uni4F59" unicode="&#x4f59;" d="M79 413 l-37 71 q142 67 240 143 q98 76 170 175 l77 0 q70 -97 170 -174.5 q100 -77.5 241 -144.5 l-37 -71 q-133 68 -240.5 151.5 q-107.5 83.5 -171.5 170.5 q-68 -92 -170 -171 q-102 -79 -242 -150 ZM894 244 l-357 0 l0 -206 q0 -43 -12 -67 q-12 -24 -40.5 -35 q-28.5 -11 -81.5 -15 l-59 -4 l-26 77 l69 4 q34 2 47.5 6.5 q13.5 4.5 18 17.5 q4.5 13 4.5 45 l0 177 l-361 0 l0 71 l361 0 l0 123 l-194 0 l0 71 l460 0 l0 -71 l-186 0 l0 -123 l357 0 l0 -71 ZM677 207 q49 -31 123 -90 q74 -59 114 -100 l-47 -65 q-36 45 -107.5 105 q-71.5 60 -125.5 95 l43 55 ZM333 159 q-35 -45 -101.5 -109.5 q-66.5 -64.5 -117.5 -105.5 l-51 56 q46 34 113.5 98 q67.5 64 101.5 108 l55 -47 Z" /><glyph glyph-name="uni4F5B" unicode="&#x4f5b;" d="M697 290 l203 0 q-13 -189 -14 -201 q-5 -37 -15 -55.5 q-10 -18.5 -29 -27 q-19 -8.5 -55 -12.5 l-31 -4 l-23 67 l38 4 q28 3 38.5 15.5 q10.5 12.5 12.5 41.5 q0 5 4.5 48.5 q4.5 43.5 4.5 53.5 l-134 0 l0 -326 l-69 0 l0 326 l-108 0 q-7 -78 -30.5 -132.5 q-23.5 -54.5 -65 -99 q-41.5 -44.5 -112.5 -97.5 l-52 53 q73 50 112 89 q39 39 57.5 82 q18.5 43 22.5 105 l-157 0 l19 262 l140 0 l0 126 l-160 0 l0 66 l160 0 l0 126 l69 -3 l0 -123 l105 0 l0 127 l69 -3 l0 -124 l166 0 l0 -258 l-166 0 l0 -126 ZM298 786 q-33 -110 -70 -200 l0 -683 l-65 0 l0 542 q-37 -71 -85 -144 l-61 47 q61 83 119 205.5 q58 122.5 92 245.5 l70 -13 ZM628 608 l-105 0 l0 -126 l105 0 l0 126 ZM793 482 l0 126 l-96 0 l0 -126 l96 0 ZM454 416 l-75 0 l-11 -126 l86 0 l0 126 ZM523 290 l105 0 l0 126 l-105 0 l0 -116 l0 -10 Z" /><glyph glyph-name="uni4F5C" unicode="&#x4f5c;" d="M918 580 l-312 0 l0 -157 l257 0 l0 -72 l-257 0 l0 -162 l275 0 l0 -73 l-275 0 l0 -217 l-77 0 l0 681 l-45 0 q-64 -116 -150 -224 l-55 53 q81 98 132 191.5 q51 93.5 88 201.5 l70 -29 q-21 -59 -47 -117 l396 0 l0 -76 ZM334 757 q-48 -120 -85 -193 l0 -661 l-76 0 l0 527 q-45 -69 -101 -136 l-54 56 q156 181 242 436 l74 -29 Z" /><glyph glyph-name="uni4F60" unicode="&#x4f60;" d="M296 435 q54 77 102 176.5 q48 99.5 75 190.5 l76 -10 q-17 -54 -46 -122 l397 0 l0 -72 l-80 -166 l-68 25 l70 141 l-351 0 q-59 -121 -114 -203 l-61 40 ZM314 782 q-34 -109 -78 -208 l0 -667 l-71 0 l0 528 q-37 -64 -86 -132 l-53 47 q62 89 121 209 q59 120 90 235 l77 -12 ZM579 518 l73 -2 l0 -496 q0 -38 -11 -59.5 q-11 -21.5 -38.5 -32.5 q-27.5 -11 -78.5 -14 l-50 -4 l-26 75 l60 4 q31 2 45.5 7 q14.5 5 20 16.5 q5.5 11.5 5.5 33.5 l0 472 ZM489 355 q-28 -91 -71.5 -186.5 q-43.5 -95.5 -91.5 -176.5 l-64 28 q46 75 92 172.5 q46 97.5 71 180.5 l64 -18 ZM783 373 q38 -62 88 -173 q50 -111 72 -181 l-62 -38 q-22 73 -71 186.5 q-49 113.5 -86 176.5 l59 29 Z" /><glyph glyph-name="uni4F69" unicode="&#x4f69;" d="M277 786 q-28 -123 -74 -238 l0 -637 l-65 0 l0 497 q-29 -56 -61 -106 l-52 50 q58 87 108.5 208 q50.5 121 74.5 237 l69 -11 ZM960 125 q-10 -81 -24 -123 q-10 -28 -28 -45 q-18 -17 -39 -17 q-22 0 -46 28 q-24 28 -32 73 q-10 56 -13 101 q-3 45 -3 154 l0 388 l-410 0 l0 -392 q0 -93 -20 -184 q-20 -91 -69 -182 l-58 35 q48 88 64 170.5 q16 82.5 16 165.5 l0 454 l544 0 l0 -445 q0 -97 1 -136.5 q1 -39.5 6 -69.5 q12 -74 27 -74 q9 0 12.5 8.5 q3.5 8.5 8.5 33.5 q5 25 12 87 l51 -30 ZM407 532 l0 62 l335 0 l0 -62 l-144 0 l0 -102 l136 0 l0 -328 q0 -52 -16 -71 q-16 -19 -57 -24 l-26 -3 l-20 63 l24 2 q20 2 26.5 11 q6.5 9 6.5 36 l0 253 l-74 0 l0 -456 l-64 0 l0 456 l-62 0 l0 -358 l-63 0 l0 419 l125 0 l0 102 l-127 0 Z" /><glyph glyph-name="uni4F6C" unicode="&#x4f6c;" d="M685 389 q-78 -83 -171 -151 l0 -55 q80 24 165 57 q85 33 153 68 l29 -66 q-73 -34 -168 -69 q-95 -35 -179 -59 l0 -53 q0 -28 6 -41 q6 -13 20.5 -17.5 q14.5 -4.5 45.5 -6.5 q42 -2 64 -2 q22 0 64 2 q38 1 53.5 9 q15.5 8 20.5 28 q7 30 13 90 l75 -31 q-4 -56 -18 -111 q-7 -29 -34.5 -42.5 q-27.5 -13.5 -90.5 -15.5 q-60 -2 -91 -2 q-31 0 -91 2 q-64 2 -89 26.5 q-25 24.5 -25 88.5 l0 146 q-68 -44 -147 -87 l-42 66 q202 102 332 226 l-293 0 l0 71 l212 0 l0 140 l-152 0 l0 68 l152 0 l0 129 l75 -3 l0 -126 l163 0 l0 -68 l-163 0 l0 -140 l74 0 q101 115 175 274 l75 -22 q-70 -147 -152 -252 l192 0 l0 -71 l-253 0 ZM320 782 q-41 -122 -78 -206 l0 -676 l-72 0 l0 532 q-44 -77 -97 -148 l-54 53 q68 84 126.5 204.5 q58.5 120.5 98.5 254.5 l76 -14 Z" /><glyph glyph-name="uni4F6F" unicode="&#x4f6f;" d="M940 202 l0 -72 l-289 0 l0 -228 l-76 0 l0 228 l-284 0 l0 72 l284 0 l0 145 l-226 0 l0 70 l226 0 l0 149 l-248 0 l0 71 l167 0 q-12 30 -37 72 q-25 42 -44 69 l55 33 q20 -25 48 -69.5 q28 -44.5 40 -71.5 l-49 -33 l154 0 q22 28 53.5 83.5 q31.5 55.5 49.5 92.5 l61 -27 q-12 -26 -37 -70 q-25 -44 -48 -79 l160 0 l0 -71 l-249 0 l0 -149 l228 0 l0 -70 l-228 0 l0 -145 l289 0 ZM315 772 q-38 -124 -68 -195 l0 -674 l-73 0 l0 525 q-36 -63 -90 -135 l-59 50 q68 81 126 201 q58 120 92 241 l72 -13 Z" /><glyph glyph-name="uni4F73" unicode="&#x4f73;" d="M299 451 l283 0 l0 143 l-223 0 l0 70 l223 0 l0 135 l76 -3 l0 -132 l223 0 l0 -70 l-223 0 l0 -143 l278 0 l0 -71 l-637 0 l0 71 ZM328 783 q-31 -115 -78 -214 l0 -669 l-72 0 l0 534 q-37 -62 -99 -153 l-57 57 q164 228 227 457 l79 -12 ZM658 175 l0 -158 l279 0 l0 -71 l-644 0 l0 71 l289 0 l0 158 l-223 0 l0 69 l223 0 l0 105 l76 -3 l0 -102 l223 0 l0 -69 l-223 0 Z" /><glyph glyph-name="uni4F7F" unicode="&#x4f7f;" d="M301 787 q-30 -113 -72 -217 l0 -671 l-71 0 l0 522 q-35 -63 -83 -133 l-54 53 q59 85 115.5 209 q56.5 124 91.5 250 l73 -13 ZM926 -89 q-121 18 -213.5 44 q-92.5 26 -165.5 64 q-39 -32 -100 -59 q-61 -27 -156 -58 l-35 65 q162 41 228 90 q-83 59 -140 145 l51 41 q56 -84 137 -138 q19 29 26.5 64 q7.5 35 8.5 84 l-231 0 l0 258 l231 0 l-1 101 l-265 0 l0 68 l265 0 l0 120 l73 -2 l0 -118 l278 0 l0 -68 l-278 0 l1 -101 l232 0 l0 -258 l-232 0 q-1 -60 -11.5 -104 q-10.5 -44 -33.5 -79 q127 -60 357 -84 l-26 -75 ZM567 445 l-162 0 l0 -125 l162 0 l0 125 ZM801 320 l0 125 l-161 0 l0 -125 l161 0 Z" /><glyph glyph-name="uni4F83" unicode="&#x4f83;" d="M287 788 q-35 -124 -61 -194 l0 -694 l-73 0 l0 529 q-30 -58 -75 -126 l-57 51 q58 89 111 209.5 q53 120.5 82 236.5 l73 -12 ZM337 741 l514 0 l0 -334 l-514 0 l0 334 ZM411 477 l367 0 l0 192 l-367 0 l0 -192 ZM379 364 l69 -3 l0 -109 q0 -95 -13 -153 q-13 -58 -45 -104 q-32 -46 -96 -100 l-53 48 q58 46 87 87 q29 41 39 90 q10 49 11 129 l1 115 ZM615 -76 l-69 0 l0 440 l69 -3 l0 -437 ZM953 129 q0 -65 -9 -127 q-5 -32 -13 -47 q-8 -15 -24 -21.5 q-16 -6.5 -48 -9.5 l-60 0 q-46 5 -64.5 21.5 q-18.5 16.5 -18.5 60.5 l0 358 l70 -3 l0 -330 q0 -21 6 -27 q6 -6 22 -8 l37 0 q14 2 20.5 7.5 q6.5 5.5 9.5 26.5 q9 56 7 119 l65 -20 Z" /><glyph glyph-name="uni4F84" unicode="&#x4f84;" d="M319 774 q-35 -112 -81 -211 l0 -665 l-70 0 l0 534 q-50 -81 -106 -153 l-50 59 q72 91 133.5 208.5 q61.5 117.5 100.5 245.5 l73 -18 ZM332 435 q15 4 23.5 8 q8.5 4 14.5 10 q27 29 75.5 93 q48.5 64 85.5 120 l-192 0 l0 71 l560 0 l0 -71 l-280 0 q-37 -55 -83 -117.5 q-46 -62.5 -78 -99.5 l302 14 q-49 61 -83 93 l52 44 q38 -37 96 -106.5 q58 -69.5 87 -113.5 l-54 -54 q-18 31 -47 71 q-77 -3 -196 -8 q-119 -5 -191 -9 q-48 -4 -72 -8 l-20 63 ZM648 164 l0 -161 l277 0 l0 -66 l-626 0 l0 66 l275 0 l0 161 l-222 0 l0 70 l222 0 l0 119 l74 -3 l0 -116 l223 0 l0 -70 l-223 0 Z" /><glyph glyph-name="uni4F86" unicode="&#x4f86;" d="M531 334 q70 -95 170 -168.5 q100 -73.5 239 -136.5 l-36 -70 q-125 63 -216.5 125.5 q-91.5 62.5 -156.5 135.5 l0 -319 l-75 0 l0 324 q-65 -80 -157.5 -147.5 q-92.5 -67.5 -216.5 -130.5 l-36 70 q271 124 410 321 l0 275 l-356 0 l0 69 l356 0 l0 127 l75 -3 l0 -124 l353 0 l0 -69 l-353 0 l0 -279 ZM763 554 q-13 -42 -35 -89 q41 -36 88.5 -83 q47.5 -47 71.5 -76 l-45 -50 q-26 32 -67.5 75 q-41.5 43 -78.5 76 q-31 -52 -90 -115 l-49 47 q53 57 86.5 112.5 q33.5 55.5 57.5 123.5 l61 -21 ZM320 551 q-13 -44 -27 -79 q31 -28 65.5 -66 q34.5 -38 54.5 -67 l-46 -47 q-46 62 -102 118 q-45 -88 -121 -165 l-48 47 q115 120 160 275 l64 -16 Z" /><glyph glyph-name="uni4F8B" unicode="&#x4f8b;" d="M295 790 q-35 -121 -69 -208 l0 -680 l-66 0 l0 534 q-32 -64 -81 -138 l-55 48 q62 87 112.5 206 q50.5 119 84.5 248 l74 -10 ZM814 791 l68 -2 l0 -753 q0 -44 -12.5 -68.5 q-12.5 -24.5 -42.5 -36.5 q-30 -12 -86 -16 l-54 -4 l-24 71 l69 4 q35 2 52 9 q17 7 23.5 21 q6.5 14 6.5 42 l0 733 ZM309 676 l0 69 l326 0 l0 -69 l-167 0 q-13 -77 -31 -145 l165 0 l0 -77 q-24 -139 -53 -225 q-29 -86 -83 -164 q-54 -78 -154 -172 l-49 52 q88 79 142 160.5 q54 81.5 82.5 165.5 q28.5 84 46.5 190 l-117 0 q-15 -49 -36 -100 q23 -20 48.5 -45.5 q25.5 -25.5 38.5 -41.5 l-37 -66 q-23 35 -79 87 q-24 -51 -54 -102 l-53 43 q57 97 96.5 212 q39.5 115 59.5 228 l-92 0 ZM661 687 l67 -2 l0 -561 l-67 0 l0 563 Z" /><glyph glyph-name="uni4F8D" unicode="&#x4f8d;" d="M934 413 l-156 0 l0 -109 l133 0 l0 -71 l-133 0 l0 -199 q0 -46 -12 -69.5 q-12 -23.5 -43 -34 q-31 -10.5 -92 -15.5 l-54 -4 l-23 71 l65 4 q35 2 52 9 q17 7 22.5 21 q5.5 14 5.5 43 l0 174 l-384 0 l0 71 l384 0 l0 109 l-406 0 l0 69 l272 0 l0 121 l-219 0 l0 72 l219 0 l0 126 l78 -3 l0 -123 l234 0 l0 -72 l-234 0 l0 -121 l291 0 l0 -69 ZM328 783 q-42 -114 -86 -205 l0 -670 l-71 0 l0 539 q-44 -71 -96 -141 l-55 54 q150 194 231 439 l77 -16 ZM432 204 q31 -27 71.5 -67.5 q40.5 -40.5 59.5 -66.5 l-51 -58 q-19 31 -57 72.5 q-38 41.5 -72 73.5 l49 46 Z" /><glyph glyph-name="uni4F9B" unicode="&#x4f9b;" d="M320 794 q-35 -113 -82 -211 l0 -679 l-73 0 l0 547 q-37 -60 -98 -143 l-53 53 q69 84 132 204 q63 120 100 245 l74 -16 ZM774 543 l0 -251 l158 0 l0 -73 l-654 0 l0 73 l156 0 l0 251 l-112 0 l0 70 l112 0 l0 187 l75 -3 l0 -184 l192 0 l0 187 l73 -3 l0 -184 l124 0 l0 -70 l-124 0 ZM701 543 l-192 0 l0 -251 l192 0 l0 251 ZM279 -41 q57 40 119 102.5 q62 62.5 103 117.5 l55 -48 q-43 -53 -106 -116.5 q-63 -63.5 -117 -110.5 l-54 55 ZM703 177 q41 -35 105.5 -103 q64.5 -68 101.5 -114 l-47 -59 q-31 46 -93 111.5 q-62 65.5 -115 113.5 l48 51 Z" /><glyph glyph-name="uni4F9D" unicode="&#x4f9d;" d="M942 28 l-53 -64 q-89 65 -150 136 q-61 71 -103 162.5 q-42 91.5 -72 218.5 q-39 -69 -75 -117 l0 -339 l152 82 l15 -74 l-31 -15 q-115 -55 -151 -74 q-37 -17 -59 -34 l-34 60 q35 27 35 58 l0 248 q-53 -59 -132 -123 l-47 62 q108 83 180 174 q72 91 122 204 l-228 0 l0 71 l253 0 q-18 58 -45 124 l68 20 q9 -22 25 -66.5 q16 -44.5 27 -77.5 l269 0 l0 -71 l-292 0 q-1 -6 -5 -13 q24 -132 66 -234 q88 65 157 144 l46 -56 q-68 -74 -173 -151 q42 -79 100 -141 q58 -62 135 -114 ZM310 786 q-37 -124 -80 -222 l0 -653 l-72 0 l0 511 q-38 -65 -87 -130 l-59 50 q67 85 130 212.5 q63 127.5 96 244.5 l72 -13 Z" /><glyph glyph-name="uni4FA6" unicode="&#x4fa6;" d="M772 465 l-347 0 l0 -336 l-72 0 l0 404 l191 0 l0 280 l73 -3 l0 -100 l290 0 l0 -66 l-290 0 l0 -111 l229 0 l0 -404 l-74 0 l0 336 ZM317 796 q-41 -134 -82 -227 l0 -659 l-70 0 l0 522 q-38 -65 -87 -130 l-59 50 q64 83 129 213 q65 130 97 244 l72 -13 ZM635 410 l0 -142 q0 -87 -28.5 -148.5 q-28.5 -61.5 -100.5 -113 q-72 -51.5 -202 -99.5 l-35 65 q126 45 188.5 87 q62.5 42 84.5 92 q22 50 23 131 l0 131 l70 -3 ZM657 149 q68 -40 147.5 -91.5 q79.5 -51.5 131.5 -89.5 l-43 -69 q-49 44 -127 98.5 q-78 54.5 -144 91.5 l35 60 Z" /><glyph glyph-name="uni4FA7" unicode="&#x4fa7;" d="M272 789 q-28 -98 -61 -181 l0 -707 l-66 0 l0 562 q-34 -67 -70 -126 l-58 41 q53 75 103 187 q50 112 86 234 l66 -10 ZM813 783 l69 -3 l0 -753 q0 -42 -11.5 -63.5 q-11.5 -21.5 -37.5 -31 q-26 -9.5 -77 -13.5 l-48 -4 l-22 68 l59 4 q30 2 44 7.5 q14 5.5 19 18.5 q5 13 5 39 l0 731 ZM541 670 l-182 0 l0 -511 l-66 0 l0 581 l311 0 l0 -578 l-63 0 l0 508 ZM673 698 l67 -3 l0 -580 l-67 0 l0 583 ZM484 613 l0 -274 q0 -119 -15 -186 q-15 -67 -58.5 -121.5 q-43.5 -54.5 -137.5 -124.5 l-48 51 q90 63 129.5 112.5 q39.5 49.5 51.5 109.5 q12 60 12 175 l0 261 l66 -3 ZM495 144 q95 -82 155 -156 l-44 -53 q-54 75 -146 163 l35 46 Z" /><glyph glyph-name="uni4FAC" unicode="&#x4fac;" d="M940 15 l-59 -61 q-120 98 -193 209.5 q-73 111.5 -114 283.5 q-28 -67 -72 -133 l0 -294 l150 71 l13 -75 q-33 -13 -85 -36 q-52 -23 -88 -40 q-44 -18 -64 -32 l-33 61 q19 14 27 25.5 q8 11.5 8 30.5 l0 198 q-61 -67 -150 -136 l-43 67 q142 115 213 217.5 q71 102.5 100 233.5 l-148 0 l0 -135 l-70 0 l0 204 l230 0 q7 46 13 138 l72 -9 q-4 -63 -14 -129 l234 0 l0 -187 l-69 0 l0 118 l-177 0 l-6 -29 q20 -142 68 -252 q94 69 148 132 l42 -58 q-59 -65 -158 -139 q40 -71 95 -129.5 q55 -58.5 130 -114.5 ZM313 788 q-39 -130 -86 -232 l0 -645 l-71 0 l0 512 q-35 -57 -82 -120 l-59 50 q72 85 132 205.5 q60 120.5 94 242.5 l72 -13 Z" /><glyph glyph-name="uni4FAF" unicode="&#x4faf;" d="M322 779 q-35 -119 -86 -224 l0 -655 l-71 0 l0 528 q-44 -71 -95 -135 l-58 49 q74 92 134 208.5 q60 116.5 98 245.5 l78 -17 ZM303 569 l433 0 l8 114 l-366 0 l0 65 l441 0 l-13 -179 l122 0 l0 -65 l-625 0 l0 65 ZM654 164 q67 -138 294 -192 l-38 -71 q-92 29 -169.5 78 q-77.5 49 -125.5 113 q-31 -57 -102 -102.5 q-71 -45.5 -199 -92.5 l-37 66 q145 47 211 93 q66 46 83 108 l-286 0 l0 65 l294 0 q1 28 1 110 l-153 0 q-24 -41 -65 -98 l-57 38 q38 45 70.5 101 q32.5 56 55.5 114 l65 -20 l-9 -19 q-16 -36 -23 -50 l414 0 l0 -66 l-227 0 q-2 -95 -4 -110 l277 0 l0 -65 l-270 0 Z" /><glyph glyph-name="uni4FB5" unicode="&#x4fb5;" d="M305 785 q-38 -132 -77 -223 l0 -665 l-66 0 l0 529 q-33 -58 -81 -131 l-56 47 q62 90 121 214 q59 124 90 243 l69 -14 ZM350 758 l497 0 l0 -303 l-503 0 l0 60 l434 0 l0 62 l-406 0 l0 57 l406 0 l0 63 l-428 0 l0 61 ZM907 392 l0 -155 l-66 0 l0 95 l-483 0 l0 -95 l-67 0 l0 155 l616 0 ZM917 -98 q-117 28 -187.5 49.5 q-70.5 21.5 -124.5 50.5 q-114 -61 -309 -105 l-32 62 q169 31 278 83 q-74 57 -141 163 l-28 0 l0 59 l453 0 l0 -57 q-65 -104 -159 -168 q50 -22 116.5 -39 q66.5 -17 161.5 -33 l-28 -65 ZM473 205 q56 -84 127 -131 q82 51 145 131 l-272 0 Z" /><glyph glyph-name="uni4FBF" unicode="&#x4fbf;" d="M313 786 q-31 -113 -78 -218 l0 -675 l-71 0 l0 534 q-41 -73 -89 -136 l-55 49 q68 82 129 210.5 q61 128.5 91 248.5 l73 -13 ZM920 -90 q-127 14 -216 35.5 q-89 21.5 -158 58.5 q-38 -31 -101 -56.5 q-63 -25.5 -163 -52.5 l-34 68 q89 20 144.5 39.5 q55.5 19.5 89.5 42.5 q-63 48 -117 125 l54 42 q32 -41 57.5 -68.5 q25.5 -27.5 53.5 -48.5 q14 22 21 50 q7 28 10 67 l-218 0 l0 379 l220 0 l0 91 l-241 0 l0 70 l591 0 l0 -70 l-278 0 l0 -91 l230 0 l0 -379 l-232 0 q-3 -51 -12.5 -88.5 q-9.5 -37.5 -27.5 -66.5 q58 -27 141.5 -43.5 q83.5 -16.5 210.5 -24.5 l-25 -79 ZM563 436 l0 90 l-149 0 l0 -90 l149 0 ZM793 436 l0 90 l-158 0 l0 -90 l158 0 ZM414 372 l0 -93 l149 0 l0 21 l0 72 l-149 0 ZM635 279 l158 0 l0 93 l-158 0 l0 -81 l0 -12 Z" /><glyph glyph-name="uni4FC3" unicode="&#x4fc3;" d="M329 777 q-34 -106 -75 -199 l0 -675 l-75 0 l0 530 q-41 -70 -99 -147 l-58 45 q80 95 139.5 214 q59.5 119 96.5 246 l71 -14 ZM768 4 q96 0 183 7 l-19 -73 q-61 -4 -146 -4 l-105 1 q-88 2 -147.5 37 q-59.5 35 -99.5 111 q-32 -93 -103 -180 l-64 39 q52 60 79.5 119 q27.5 59 39.5 126 q12 67 18 170 l74 -7 q-7 -104 -18 -166 q23 -67 56.5 -106 q33.5 -39 77.5 -56 l0 406 l-201 0 l0 323 l472 0 l0 -323 l-195 0 l0 -151 l231 0 l0 -71 l-231 0 l0 -200 l8 0 q58 -2 90 -2 ZM789 678 l-321 0 l0 -178 l321 0 l0 178 Z" /><glyph glyph-name="uni4FD7" unicode="&#x4fd7;" d="M310 774 q-31 -104 -74 -202 l0 -664 l-71 0 l0 522 q-44 -75 -89 -135 l-56 51 q71 95 128 211 q57 116 89 231 l73 -14 ZM865 523 q-41 50 -111.5 114.5 q-70.5 64.5 -114.5 94.5 l44 50 q53 -40 118.5 -96.5 q65.5 -56.5 109.5 -102.5 l-46 -60 ZM285 571 q44 32 111.5 97 q67.5 65 103.5 110 l50 -43 q-37 -48 -106 -116 q-69 -68 -114 -100 l-45 52 ZM913 221 q-24 17 -91 65 l0 -386 l-73 0 l0 59 l-300 0 l0 -59 l-72 0 l0 382 q-58 -41 -86 -58 l-44 57 q220 133 318 305 l69 0 q100 -177 323 -301 l-44 -64 ZM818 289 q-75 57 -128 111 q-53 54 -89 117 q-37 -65 -89.5 -120 q-52.5 -55 -124.5 -108 l431 0 ZM449 221 l0 -194 l300 0 l0 194 l-300 0 Z" /><glyph glyph-name="uni4FD8" unicode="&#x4fd8;" d="M301 784 q-36 -118 -74 -209 l0 -673 l-71 0 l0 525 q-39 -71 -82 -131 l-61 53 q63 82 121 205 q58 123 93 244 l74 -14 ZM888 714 q-106 -20 -281 -38 q-175 -18 -281 -20 l-14 68 q109 2 283.5 19.5 q174.5 17.5 278.5 36.5 l14 -66 ZM698 497 q25 27 57 80 q32 53 50 93 l65 -27 q-16 -37 -48.5 -93 q-32.5 -56 -56.5 -88 l-67 35 ZM597 476 q-9 32 -31.5 80 q-22.5 48 -39.5 77 l61 31 q18 -31 40.5 -77 q22.5 -46 31.5 -72 l-62 -39 ZM422 463 q-11 31 -37 79 q-26 48 -46 77 l58 35 q19 -29 45.5 -75 q26.5 -46 38.5 -73 l-59 -43 ZM928 229 l0 -67 l-286 0 l0 -136 q0 -41 -11.5 -63.5 q-11.5 -22.5 -41 -33.5 q-29.5 -11 -85.5 -14 l-54 -3 l-25 72 l65 4 q33 2 48.5 6.5 q15.5 4.5 21.5 16 q6 11.5 6 34.5 l0 117 l-283 0 l0 67 l283 0 l0 44 l169 105 l-386 0 l0 65 l507 0 l0 -63 l-214 -136 l0 -15 l286 0 Z" /><glyph glyph-name="uni4FDD" unicode="&#x4fdd;" d="M321 777 q-37 -118 -74 -205 l0 -674 l-71 0 l0 531 q-42 -73 -96 -141 l-57 50 q80 100 137 215 q57 115 91 237 l70 -13 ZM379 752 l463 0 l0 -308 l-463 0 l0 308 ZM454 514 l313 0 l0 168 l-313 0 l0 -168 ZM657 262 q52 -70 128 -130.5 q76 -60.5 172 -107.5 l-46 -64 q-164 91 -268 225 l0 -284 l-71 0 l0 281 q-47 -64 -109 -118 q-62 -54 -155 -109 l-50 61 q93 47 169 110.5 q76 63.5 125 135.5 l-251 0 l0 67 l271 0 l0 82 l71 -4 l0 -78 l273 0 l0 -67 l-259 0 Z" /><glyph glyph-name="uni4FE1" unicode="&#x4fe1;" d="M936 689 l0 -69 l-627 0 l0 69 l274 0 q-20 67 -33 99 l74 14 q15 -40 31 -92 l7 -21 l274 0 ZM317 782 q-35 -117 -78 -211 l0 -668 l-73 0 l0 522 q-36 -63 -81 -129 l-61 48 q79 109 138 229.5 q59 120.5 87 223.5 l68 -15 ZM866 466 l-503 0 l0 64 l503 0 l0 -64 ZM866 320 l-503 0 l0 65 l503 0 l0 -65 ZM437 -97 l-73 0 l0 330 l500 0 l0 -330 l-77 0 l0 56 l-350 0 l0 -56 ZM787 25 l0 141 l-350 0 l0 -141 l350 0 Z" /><glyph glyph-name="uni4FEE" unicode="&#x4fee;" d="M951 413 l-22 -68 q-165 46 -272 111 q-102 -64 -270 -118 l-27 63 q153 46 239 95 q-58 46 -100 101 q-44 -53 -96 -99 l-40 54 q60 53 111 122.5 q51 69.5 83 138.5 l61 -26 q-9 -21 -31 -61 l276 0 l0 -60 q-56 -100 -145 -169 q95 -50 233 -84 ZM290 786 q-32 -123 -77 -231 l0 -654 l-64 0 l0 518 q-26 -51 -73 -125 l-57 47 q61 92 120 219 q59 127 86 237 l65 -11 ZM350 68 l-65 0 l0 599 l65 -3 l0 -596 ZM658 533 q77 54 124 131 l-233 0 l-11 -16 q46 -65 120 -115 ZM758 349 q-70 -47 -152 -88.5 q-82 -41.5 -163 -69.5 l-28 63 q81 26 163 65 q82 39 149 84 l31 -54 ZM399 105 q111 35 214 85 q103 50 188 110 l35 -51 q-83 -62 -187.5 -114 q-104.5 -52 -219.5 -88 l-30 58 ZM355 -42 q153 38 287.5 98.5 q134.5 60.5 238.5 138.5 l35 -50 q-201 -161 -534 -248 l-27 61 Z" /><glyph glyph-name="uni4FEF" unicode="&#x4fef;" d="M608 601 q-26 -83 -58 -152 l0 -544 l-67 0 l0 424 q-20 -31 -48 -67 l-37 37 q-2 -131 -16 -211.5 q-14 -80.5 -55 -170.5 l-72 26 q34 61 50 115.5 q16 54.5 20.5 110.5 q4.5 56 4.5 150 l0 77 l0 300 l268 0 q-19 65 -31 94 l74 13 q11 -26 36 -107 l241 0 l0 -67 l-519 0 l0 -216 l0 -82 q45 55 83 129.5 q38 74.5 59 152.5 l67 -12 ZM306 776 q-31 -109 -70 -202 l0 -675 l-70 0 l0 532 q-41 -72 -81 -130 l-59 48 q61 76 119.5 200 q58.5 124 86.5 238 l74 -11 ZM939 460 l0 -65 l-95 0 l0 -372 q0 -44 -11 -67 q-11 -23 -37.5 -33.5 q-26.5 -10.5 -77.5 -14.5 l-46 -4 l-23 71 l58 4 q32 2 45.5 6.5 q13.5 4.5 18.5 17.5 q5 13 5 42 l0 350 l-194 0 l0 65 l194 0 l0 139 l68 -3 l0 -136 l95 0 ZM682 120 q-13 40 -41.5 103 q-28.5 63 -50.5 101 l54 29 q20 -31 49 -92.5 q29 -61.5 44 -102.5 l-55 -38 Z" /><glyph glyph-name="uni4FF1" unicode="&#x4ff1;" d="M299 778 q-26 -103 -70 -208 l0 -668 l-69 0 l0 525 q-40 -74 -85 -136 l-52 58 q59 80 116 201.5 q57 121.5 87 237.5 l73 -10 ZM830 749 l0 -557 l115 0 l0 -68 l-675 0 l0 68 l108 0 l0 557 l452 0 ZM762 607 l0 75 l-316 0 l0 -75 l316 0 ZM446 469 l316 0 l0 74 l-316 0 l0 -74 ZM762 331 l0 75 l-316 0 l0 -75 l316 0 ZM762 268 l-316 0 l0 -76 l316 0 l0 76 ZM273 -37 q48 23 121.5 69 q73.5 46 113.5 80 l42 -54 q-43 -36 -119.5 -86.5 q-76.5 -50.5 -124.5 -73.5 l-33 65 ZM690 106 q45 -19 118 -62.5 q73 -43.5 114 -75.5 l-36 -66 q-36 36 -107 79 q-71 43 -124 67 l35 58 Z" /><glyph glyph-name="uni4FFE" unicode="&#x4ffe;" d="M939 137 l0 -66 l-253 0 l0 -172 l-71 0 l0 172 l-333 0 l0 66 l115 0 l-25 37 q97 51 142 104 l-152 0 l0 427 l171 0 q30 68 41 112 l78 -19 q-15 -45 -36 -93 l247 0 l0 -427 l-267 0 q-48 -82 -155 -141 l174 0 l0 109 l71 -3 l0 -106 l253 0 ZM317 785 q-37 -119 -74 -208 l0 -675 l-72 0 l0 529 q-44 -76 -93 -140 l-59 50 q67 82 130 209.5 q63 127.5 96 247.5 l72 -13 ZM578 525 l0 115 l-147 0 l0 -115 l147 0 ZM647 525 l146 0 l0 115 l-146 0 l0 -115 ZM431 344 l123 0 q18 47 23 116 l-146 0 l0 -116 ZM793 344 l0 116 l-148 0 q-3 -61 -20 -116 l168 0 Z" /><glyph glyph-name="uni500B" unicode="&#x500b;" d="M288 787 q-31 -114 -63 -198 l0 -684 l-70 0 l0 530 q-40 -74 -88 -138 l-54 59 q57 78 117 204.5 q60 126.5 90 242.5 l68 -16 ZM325 -98 l0 850 l547 0 l0 -850 l-71 0 l0 50 l-405 0 l0 -50 l-71 0 ZM396 681 l0 -660 l405 0 l0 660 l-405 0 ZM769 551 l0 -63 l-138 0 l0 -118 l94 0 l0 -250 l-253 0 l0 250 l93 0 l0 118 l-137 0 l0 63 l137 0 l0 101 l66 -3 l0 -98 l138 0 ZM534 182 l128 0 l0 125 l-128 0 l0 -125 Z" /><glyph glyph-name="uni500D" unicode="&#x500d;" d="M938 436 l0 -71 l-637 0 l0 71 l177 0 q-22 127 -36 181 l-97 0 l0 68 l242 0 q-20 69 -36 109 l74 14 q13 -31 40 -123 l234 0 l0 -68 l-99 0 q-11 -55 -44 -181 l182 0 ZM332 779 q-37 -102 -83 -203 l0 -678 l-73 0 l0 536 q-46 -80 -86 -135 l-63 49 q141 179 225 445 l80 -14 ZM513 617 q20 -89 36 -181 l133 0 q26 90 45 181 l-214 0 ZM460 -103 l-76 0 l0 365 l467 0 l0 -365 l-75 0 l0 57 l-316 0 l0 -57 ZM776 18 l0 174 l-316 0 l0 -174 l316 0 Z" /><glyph glyph-name="uni5011" unicode="&#x5011;" d="M296 786 q-29 -106 -69 -202 l0 -681 l-65 0 l0 541 q-48 -95 -99 -162 l-49 60 q57 75 121 210.5 q64 135.5 94 250.5 l67 -17 ZM396 -89 l-65 0 l0 846 l243 0 l0 -372 l-178 0 l0 -474 ZM637 757 l243 0 l0 -734 q0 -39 -10.5 -59.5 q-10.5 -20.5 -33.5 -30 q-23 -9.5 -68 -14.5 l-66 -7 l-24 67 l69 6 q30 3 43 8 q13 5 18.5 16 q5.5 11 5.5 34 l0 342 l-177 0 l0 372 ZM514 600 l0 96 l-118 0 l0 -96 l118 0 ZM814 600 l0 96 l-118 0 l0 -96 l118 0 ZM396 541 l0 -96 l118 0 l0 96 l-118 0 ZM696 541 l0 -96 l118 0 l0 96 l-118 0 Z" /><glyph glyph-name="uni5012" unicode="&#x5012;" d="M266 782 q-30 -110 -67 -204 l0 -685 l-67 0 l0 539 q-23 -46 -63 -111 l-57 46 q122 187 179 426 l75 -11 ZM816 779 l67 -3 l0 -750 q0 -46 -11 -70 q-11 -24 -39.5 -35.5 q-28.5 -11.5 -83.5 -15.5 l-56 -4 l-23 71 l65 4 q34 2 50.5 8.5 q16.5 6.5 23.5 20.5 q7 14 7 41 l0 733 ZM642 36 l2 -33 q-75 -10 -200.5 -23.5 q-125.5 -13.5 -200.5 -18.5 l-14 72 q59 1 177 12 l0 148 l-139 0 l0 72 l139 0 l0 134 l-90 -7 q-19 0 -47 -7 l-17 62 q21 7 28 19 q18 28 48.5 84 q30.5 56 51.5 103 l-112 0 l0 69 l353 0 l0 -69 l-171 0 q-62 -134 -101 -194 l182 12 q-33 71 -58 110 l53 26 q25 -38 59.5 -108.5 q34.5 -70.5 49.5 -112.5 l-54 -33 q-5 17 -22 56 q-23 -2 -86 -6 l0 -138 l132 0 l0 -72 l-132 0 l0 -141 q116 13 167 21 l2 -37 ZM670 675 l63 -3 l0 -552 l-63 0 l0 555 Z" /><glyph glyph-name="uni5018" unicode="&#x5018;" d="M645 794 l0 -273 l235 0 l0 -490 q0 -45 -11 -69 q-11 -24 -38 -34.5 q-27 -10.5 -80 -13.5 l-51 -3 l-23 71 l61 4 q33 2 47 7 q14 5 19 17 q5 12 5 39 l0 401 l-402 0 l0 -535 l-69 0 l0 606 l234 0 l0 276 l73 -3 ZM298 781 q-35 -123 -74 -216 l0 -659 l-69 0 l0 515 q-46 -80 -81 -131 l-56 53 q60 85 114.5 204.5 q54.5 119.5 86.5 244.5 l79 -11 ZM887 714 q-21 -33 -63.5 -84.5 q-42.5 -51.5 -69.5 -77.5 l-53 49 q28 25 70 75 q42 50 63 83 l53 -45 ZM460 546 q-20 35 -59.5 82 q-39.5 47 -69.5 76 l50 46 q29 -27 69.5 -75 q40.5 -48 61.5 -81 l-52 -48 ZM493 354 l232 0 l0 -293 l-232 0 l0 293 ZM550 129 l117 0 l0 157 l-117 0 l0 -157 Z" /><glyph glyph-name="uni5019" unicode="&#x5019;" d="M290 788 q-36 -121 -73 -214 l0 -669 l-64 0 l0 522 q-37 -75 -80 -143 l-54 51 q58 82 114.5 214 q56.5 132 87.5 252 l69 -13 ZM806 573 l119 0 l0 -65 l-527 0 l0 65 l337 0 l10 112 l-290 0 l0 65 l366 0 l-15 -177 ZM299 688 l67 -2 l0 -633 l-67 0 l0 635 ZM694 169 q31 -69 93.5 -120.5 q62.5 -51.5 155.5 -80.5 l-42 -66 q-171 80 -242 198 q-30 -61 -95 -108 q-65 -47 -175 -91 l-38 60 q118 41 180.5 92.5 q62.5 51.5 80.5 115.5 l-219 0 l0 65 l227 0 q2 50 2 110 l-113 0 q-24 -47 -57 -97 l-56 35 q61 80 106 211 l65 -14 l-27 -69 l334 0 l0 -66 l-179 0 l-4 -109 l0 -1 l221 0 l0 -65 l-218 0 Z" /><glyph glyph-name="uni501F" unicode="&#x501f;" d="M306 787 q-30 -102 -69 -201 l0 -684 l-71 0 l0 532 q-39 -73 -87 -141 l-55 48 q61 83 119.5 211.5 q58.5 128.5 87.5 245.5 l75 -11 ZM765 611 l0 -125 l176 0 l0 -67 l-663 0 l0 67 l171 0 l0 125 l-122 0 l0 67 l122 0 l0 117 l73 -2 l0 -115 l169 0 l0 117 l74 -2 l0 -115 l138 0 l0 -67 l-138 0 ZM691 611 l-169 0 l0 -125 l169 0 l0 125 ZM449 -96 l-74 0 l0 430 l466 0 l0 -428 l-75 0 l0 49 l-317 0 l0 -51 ZM766 173 l0 96 l-317 0 l0 -96 l317 0 ZM449 110 l0 -93 l317 0 l0 93 l-317 0 Z" /><glyph glyph-name="uni5021" unicode="&#x5021;" d="M337 782 q-38 -109 -85 -208 l0 -673 l-73 0 l0 537 q-44 -75 -94 -145 l-58 56 q67 89 132.5 213 q65.5 124 98.5 234 l79 -14 ZM380 751 l448 0 l0 -345 l-448 0 l0 345 ZM756 613 l0 76 l-305 0 l0 -76 l305 0 ZM451 553 l0 -87 l305 0 l0 87 l-305 0 ZM343 -99 l0 424 l522 0 l0 -423 l-73 0 l0 48 l-377 0 l0 -49 l-72 0 ZM792 165 l0 95 l-377 0 l0 -95 l377 0 ZM415 104 l0 -91 l377 0 l0 91 l-377 0 Z" /><glyph glyph-name="uni503C" unicode="&#x503c;" d="M843 562 l0 -555 l97 0 l0 -65 l-669 0 l0 65 l88 0 l0 555 l204 0 l0 92 l-245 0 l0 64 l245 0 l0 87 l75 -3 l0 -84 l265 0 l0 -64 l-265 0 l0 -92 l205 0 ZM291 790 q-29 -110 -65 -202 l0 -680 l-72 0 l0 522 q-37 -69 -79 -133 l-49 64 q61 84 109.5 198 q48.5 114 80.5 243 l75 -12 ZM768 421 l0 77 l-335 0 l0 -77 l335 0 ZM433 286 l335 0 l0 77 l-335 0 l0 -77 ZM768 149 l0 79 l-335 0 l0 -79 l335 0 ZM768 91 l-335 0 l0 -84 l335 0 l0 84 Z" /><glyph glyph-name="uni503E" unicode="&#x503e;" d="M276 791 q-27 -102 -61 -191 l0 -686 l-66 0 l0 529 q-34 -71 -81 -153 l-53 45 q58 95 114 230 q56 135 76 237 l71 -11 ZM479 213 l20 -75 q-25 -19 -61 -47.5 q-36 -28.5 -63 -50.5 q-26 -19 -45 -37 l-39 59 q16 14 23.5 29 q7.5 15 7.5 35 l0 657 l67 -2 l0 -234 l98 0 l0 -70 l-98 0 l0 -342 l90 78 ZM646 567 q11 42 24 119 l-173 0 l0 63 l422 0 l0 -63 l-181 0 q-15 -81 -24 -119 l163 0 l0 -446 l-65 0 l0 384 l-230 0 l0 -383 l-63 0 l0 445 l127 0 ZM727 444 l0 -157 q0 -95 -20 -156 q-20 -61 -71 -111 q-51 -50 -151 -112 l-39 58 q96 49 142.5 94.5 q46.5 45.5 61.5 99 q15 53.5 15 142.5 l0 144 l62 -2 ZM740 140 q44 -32 103.5 -85 q59.5 -53 100.5 -96 l-45 -54 q-29 37 -85.5 90.5 q-56.5 53.5 -108.5 95.5 l35 49 Z" /><glyph glyph-name="uni5043" unicode="&#x5043;" d="M303 787 q-31 -109 -72 -207 l0 -674 l-67 0 l0 533 q-45 -82 -92 -147 l-50 59 q62 82 120.5 207.5 q58.5 125.5 90.5 242.5 l70 -14 ZM390 687 l0 -679 l542 0 l0 -63 l-608 0 l0 810 l592 0 l0 -68 l-526 0 ZM821 257 q-30 -69 -72 -109 q66 -26 145 -59 l-20 -61 q-95 46 -177 80 q-43 -26 -104 -45 q-61 -19 -148 -35 l-20 52 q134 24 205 55 q-64 25 -144 52 q20 26 48 70 l-120 0 l0 52 l151 0 q18 33 30 58 l-122 0 l0 264 l388 0 l0 -264 l-249 0 l46 -15 l-23 -43 l289 0 l0 -52 l-103 0 ZM797 527 l0 48 l-261 0 l0 -48 l261 0 ZM797 471 l-261 0 l0 -49 l261 0 l0 49 ZM689 171 q40 32 66 86 l-149 0 q-15 -26 -30 -45 q37 -13 113 -41 Z" /><glyph glyph-name="uni5047" unicode="&#x5047;" d="M292 787 q-35 -122 -70 -207 l0 -679 l-68 0 l0 537 q-38 -68 -80 -131 l-50 50 q60 83 112 200.5 q52 117.5 82 238.5 l74 -9 ZM579 173 l0 -68 l-195 0 l0 -197 l-67 0 l0 845 l253 0 l0 -274 l-186 0 l0 -116 l178 0 l0 -69 l-178 0 l0 -121 l195 0 ZM622 752 l253 0 l0 -271 l-254 0 l0 69 l186 0 l0 133 l-185 0 l0 69 ZM504 547 l0 137 l-120 0 l0 -137 l120 0 ZM952 -24 l-40 -66 q-121 78 -177 140 q-71 -69 -204 -142 l-38 60 q131 67 201 133 q-29 41 -50.5 92.5 q-21.5 51.5 -40.5 121.5 l-15 0 l0 67 l297 0 l0 -69 q-34 -127 -106 -216 q58 -62 173 -121 ZM668 315 q27 -102 70 -166 q54 66 82 166 l-152 0 Z" /><glyph glyph-name="uni504F" unicode="&#x504f;" d="M888 385 l0 -377 q0 -49 -18.5 -68 q-18.5 -19 -66.5 -25 l-33 -4 l-20 65 l33 4 q25 3 31.5 11 q6.5 8 6.5 33 l0 106 l-84 0 l0 -172 l-60 0 l0 172 l-78 0 l0 -171 l-62 0 l0 171 l-83 0 l0 -215 l-62 0 l0 400 q-11 -100 -38 -185.5 q-27 -85.5 -75 -162.5 l-59 42 q63 94 88 202.5 q25 108.5 25 286.5 l0 208 l233 0 q-17 59 -32 96 l74 14 q18 -44 38 -110 l227 0 l0 -228 l-473 0 q0 -33 -2 -93 l490 0 ZM293 781 q-41 -144 -73 -223 l0 -650 l-66 0 l0 508 q-34 -61 -69 -113 l-54 49 q122 169 190 442 l72 -13 ZM802 540 l0 104 l-402 0 l0 -104 l402 0 ZM454 324 l0 -135 l83 0 l0 135 l-83 0 ZM599 324 l0 -135 l78 0 l0 135 l-78 0 ZM737 324 l0 -135 l84 0 l0 135 l-84 0 Z" /><glyph glyph-name="uni505A" unicode="&#x505a;" d="M959 -40 l-53 -58 q-113 103 -176 202 q-66 -100 -186 -205 l-46 59 q66 55 113.5 106 q47.5 51 81.5 105 q-58 113 -80 255 q-17 -32 -36 -60 l-46 55 q47 71 85.5 180 q38.5 109 54.5 210 l66 -12 q-15 -84 -37 -160 l233 0 l0 -71 l-70 0 q-11 -129 -32 -221.5 q-21 -92.5 -61 -171.5 q70 -109 189 -213 ZM291 0 l0 372 l93 0 l0 180 l-125 0 l0 70 l125 0 l0 180 l68 -3 l0 -177 l123 0 l0 -70 l-123 0 l0 -180 l91 0 l0 -372 l-252 0 ZM263 784 q-26 -109 -58 -199 l0 -682 l-68 0 l0 520 q-34 -68 -62 -113 l-53 58 q57 85 102 198.5 q45 113.5 71 232.5 l68 -15 ZM731 244 q28 64 45 142.5 q17 78.5 25 179.5 l-125 0 q-10 -29 -19 -49 q17 -155 74 -273 ZM354 69 l124 0 l0 233 l-124 0 l0 -233 Z" /><glyph glyph-name="uni505C" unicode="&#x505c;" d="M913 706 l0 -65 l-591 0 l0 65 l254 0 q-23 72 -32 95 l74 14 q12 -29 38 -109 l257 0 ZM309 792 q-37 -125 -80 -228 l0 -655 l-69 0 l0 515 q-40 -69 -83 -127 l-55 52 q66 85 119.5 203 q53.5 118 90.5 250 l77 -10 ZM376 408 l0 173 l462 0 l0 -173 l-462 0 ZM447 460 l321 0 l0 68 l-321 0 l0 -68 ZM371 179 l-70 0 l0 168 l610 0 l0 -168 l-71 0 l0 104 l-469 0 l0 -104 ZM393 144 l0 63 l424 0 l0 -63 l-164 0 l0 -126 q0 -39 -10 -59.5 q-10 -20.5 -37 -30.5 q-27 -10 -83 -14 l-59 -4 l-23 69 l67 4 q34 2 49 7 q15 5 19.5 15.5 q4.5 10.5 4.5 32.5 l0 106 l-188 0 Z" /><glyph glyph-name="uni5065" unicode="&#x5065;" d="M501 436 l130 0 l0 81 l-159 0 l0 57 l159 0 l0 81 l-130 0 l0 56 l130 0 l0 89 l67 -2 l0 -87 l171 0 l0 -137 l65 0 l0 -57 l-65 0 l0 -137 l-171 0 l0 -79 l187 0 l0 -56 l-187 0 l0 -77 l215 0 l0 -57 l-215 0 l0 -89 l-67 0 l0 89 l-171 0 l0 57 l171 0 l0 77 l-135 0 l0 56 l135 0 l0 79 l-130 0 l0 56 ZM258 783 q-22 -99 -56 -197 l0 -678 l-64 0 l0 519 q-32 -69 -67 -127 l-55 46 q53 80 100 203.5 q47 123.5 73 243.5 l69 -10 ZM785 -8 q85 0 154 4 l-12 -61 q-68 -4 -151 -4 q-83 0 -152 4 q-88 5 -152 29.5 q-64 24.5 -111 77.5 q-32 -56 -95 -138 l-54 45 q73 87 108 150 q-47 81 -78 211 l56 19 q25 -102 55 -162 q19 46 29.5 99 q10.5 53 15.5 124 l-135 0 l0 62 l131 211 l-130 0 l0 62 l201 0 l0 -63 l-130 -210 l125 0 l0 -65 q-10 -96 -25 -161 q-15 -65 -42 -123 q40 -50 98 -76.5 q58 -26.5 140 -30.5 q69 -4 154 -4 ZM803 655 l-105 0 l0 -81 l105 0 l0 81 ZM698 436 l105 0 l0 81 l-105 0 l0 -81 Z" /><glyph glyph-name="uni5076" unicode="&#x5076;" d="M306 786 q-41 -131 -81 -222 l0 -662 l-69 0 l0 526 q-37 -65 -91 -136 l-52 53 q68 87 125 206 q57 119 93 247 l75 -12 ZM634 304 l250 0 l0 -291 q0 -36 -9 -54.5 q-9 -18.5 -33 -28.5 q-24 -10 -73 -16 l-43 -5 l-21 67 l47 5 q28 3 40 7.5 q12 4.5 16.5 15 q4.5 10.5 4.5 32.5 l0 202 l-179 0 l0 -119 q50 4 72 7 q-12 38 -24 66 l54 17 q14 -32 31.5 -90 q17.5 -58 25.5 -95 l-56 -21 q-4 26 -14 63 q-198 -20 -285 -26 l-7 67 q72 2 134 7 l0 124 l-171 0 l0 -323 l-69 0 l0 389 l240 0 l0 83 l-209 0 l0 366 l494 0 l0 -366 l-216 0 l0 -83 ZM565 601 l0 91 l-140 0 l0 -91 l140 0 ZM634 601 l144 0 l0 91 l-144 0 l0 -91 ZM425 540 l0 -91 l140 0 l0 91 l-140 0 ZM634 540 l0 -91 l144 0 l0 91 l-144 0 Z" /><glyph glyph-name="uni5077" unicode="&#x5077;" d="M309 787 q-41 -133 -87 -230 l0 -656 l-66 0 l0 531 q-35 -58 -79 -122 l-56 51 q66 90 124 206.5 q58 116.5 88 229.5 l76 -10 ZM640 797 q51 -75 133 -140.5 q82 -65.5 182 -110.5 l-38 -64 q-90 49 -180.5 118 q-90.5 69 -136.5 136 q-65 -90 -157 -162 l320 0 l0 -59 l-331 0 l0 51 q-56 -43 -145 -94 l-39 61 q108 56 184 120 q76 64 128 144 l80 0 ZM801 466 l63 -2 l0 -448 q0 -40 -11 -61 q-11 -21 -36.5 -30 q-25.5 -9 -75.5 -12 l-46 -3 l-21 65 l58 4 q30 2 44 6.5 q14 4.5 19.5 15.5 q5.5 11 5.5 33 l0 432 ZM323 -89 l0 534 l267 0 l0 -449 q0 -44 -18.5 -60 q-18.5 -16 -71.5 -21 l-36 -3 l-22 63 l48 4 q18 2 25 5 q7 3 9 10.5 q2 7.5 2 26.5 l0 78 l-141 0 l0 -188 l-62 0 ZM664 432 l61 -2 l0 -355 l-61 0 l0 357 ZM526 300 l0 88 l-141 0 l0 -88 l141 0 ZM385 243 l0 -87 l141 0 l0 87 l-141 0 Z" /><glyph glyph-name="uni507F" unicode="&#x507f;" d="M838 531 l-456 0 l0 -129 l-71 0 l0 195 l265 0 l0 201 l72 -3 l0 -198 l263 0 l0 -196 l-73 0 l0 130 ZM310 780 q-34 -105 -80 -209 l0 -672 l-70 0 l0 536 q-41 -71 -94 -144 l-55 53 q74 93 128 203.5 q54 110.5 97 244.5 l74 -12 ZM455 602 q-11 31 -33.5 74 q-22.5 43 -41.5 70 l52 28 q17 -23 41 -65.5 q24 -42.5 37 -70.5 l-55 -36 ZM848 743 q-14 -29 -38.5 -70.5 q-24.5 -41.5 -45.5 -71.5 l-53 33 q32 40 80 136 l57 -27 ZM808 427 l0 -65 l-395 0 l0 65 l395 0 ZM604 190 q-26 -44 -65.5 -94.5 q-39.5 -50.5 -72.5 -83.5 l285 15 q-39 56 -81 103 l52 35 q39 -42 92.5 -113 q53.5 -71 79.5 -117 l-54 -49 q-11 21 -47 79 q-51 -2 -309 -19 l-53 -3 q-48 -5 -76 -10 l-16 64 q18 8 29 15.5 q11 7.5 24 19.5 q30 31 64 74.5 q34 43.5 60 83.5 l-220 0 l0 68 l636 0 l0 -68 l-328 0 Z" /><glyph glyph-name="uni5080" unicode="&#x5080;" d="M937 78 q-7 -60 -17 -95 q-7 -26 -30.5 -38 q-23.5 -12 -80.5 -15 q-44 -2 -67 -2 q-21 0 -67 2 q-61 3 -84.5 23 q-23.5 20 -23.5 74 l0 150 q-38 -72 -106.5 -136 q-68.5 -64 -177.5 -133 l-38 62 q123 68 193 144 q70 76 97 173 l-198 0 l0 427 l186 0 q20 62 28 102 l82 -7 q-9 -42 -29 -95 l244 0 l0 -427 l-107 0 l34 -15 q-39 -98 -66 -146 l80 6 q-18 42 -35 71 l47 25 q15 -26 37 -72.5 q22 -46.5 33 -75.5 l-50 -30 l-11 31 q-100 -6 -134 -9 q-7 -1 -14.5 -3 q-7.5 -2 -13.5 -3 l-14 50 q8 2 11.5 5.5 q3.5 3.5 6.5 8.5 q3 5 4 7 q25 40 61 150 l-110 0 q-6 -26 -11 -40 l37 -1 l0 -202 q0 -30 12 -39.5 q12 -9.5 48 -11.5 q34 -2 52 -2 q17 0 51 2 q36 2 52 9 q16 7 20 24 q10 40 11 76 l58 -24 ZM298 785 q-27 -96 -72 -205 l0 -672 l-68 0 l0 527 q-45 -85 -89 -149 l-53 49 q70 106 124 225.5 q54 119.5 86 237.5 l72 -13 ZM554 531 l0 118 l-152 0 l0 -118 l152 0 ZM623 531 l157 0 l0 118 l-157 0 l0 -118 ZM402 351 l146 0 q6 42 6 89 l0 30 l-152 0 l0 -119 ZM780 351 l0 119 l-157 0 l0 -30 q0 -42 -5 -89 l162 0 Z" /><glyph glyph-name="uni5085" unicode="&#x5085;" d="M940 178 l0 -61 l-144 0 l0 -99 q0 -44 -10.5 -66 q-10.5 -22 -38.5 -32.5 q-28 -10.5 -84 -13.5 l-58 -3 l-21 67 l66 4 q35 2 50.5 7.5 q15.5 5.5 20.5 18 q5 12.5 5 39.5 l0 78 l-301 0 q94 -66 131 -102 l-41 -56 q-32 41 -135 115 l30 43 l-130 0 l0 61 l446 0 l0 60 l68 -3 l0 38 l-155 0 l0 -48 l-67 0 l0 48 l-161 0 l0 -55 l-67 0 l0 353 l228 0 l0 67 l-254 0 l0 61 l254 0 l0 102 l67 -3 l0 -99 l142 0 q-39 41 -79 69 l39 47 q20 -14 47.5 -38 q27.5 -24 46.5 -43 l-25 -35 l106 0 l0 -61 l-277 0 l0 -67 l223 0 l0 -353 l-66 0 l0 -40 l144 0 ZM310 782 q-30 -104 -69 -195 l0 -694 l-69 0 l0 549 q-44 -82 -97 -157 l-58 44 q72 96 131.5 220 q59.5 124 91.5 247 l70 -14 ZM572 450 l0 64 l-161 0 l0 -64 l161 0 ZM794 450 l0 64 l-155 0 l0 -64 l155 0 ZM411 396 l0 -68 l161 0 l0 68 l-161 0 ZM639 396 l0 -68 l155 0 l0 68 l-155 0 Z" /><glyph glyph-name="uni508D" unicode="&#x508d;" d="M448 518 q-4 27 -11.5 65 q-7.5 38 -13.5 60 l-133 0 l0 64 l273 0 q-17 55 -32 89 l71 11 q21 -48 35 -100 l256 0 l0 -64 l-134 0 q-11 -60 -31 -125 l153 0 l0 -143 l-69 0 l0 79 l-447 0 l0 -79 l-68 0 l0 143 l151 0 ZM258 783 q-23 -97 -49 -176 l0 -702 l-67 0 l0 529 q-33 -74 -72 -138 l-54 50 q51 85 100 210 q49 125 73 237 l69 -10 ZM661 518 q21 76 30 125 l-201 0 q12 -52 24 -125 l147 0 ZM922 269 l-421 0 q-4 -42 -9 -82 l323 0 q-1 -5 -1 -13.5 q0 -8.5 -2 -20.5 q-8 -115 -9 -129 q-4 -52 -31.5 -75 q-27.5 -23 -93.5 -27 l-84 -6 l-24 65 l90 5 q42 2 58 13.5 q16 11.5 19 42.5 l6 81 l-261 0 q-17 -73 -64.5 -126 q-47.5 -53 -141.5 -106 l-41 61 q66 36 103 66.5 q37 30.5 58 71 q21 40.5 29 103.5 q5 38 7 76 l-158 0 l0 64 l302 0 q-22 54 -43 89 l65 18 q20 -30 50 -107 l274 0 l0 -64 Z" /><glyph glyph-name="uni50A8" unicode="&#x50a8;" d="M757 437 q-42 -51 -95 -98 l199 0 l0 -434 l-64 0 l0 52 l-188 0 l0 -52 l-63 0 l0 344 q-34 -24 -72 -48 l-39 52 q142 80 240 184 l-216 0 l0 63 l157 0 l0 125 l-118 0 l0 61 l118 0 l0 115 l64 -3 l0 -112 l112 0 l0 -61 l-112 0 l0 -125 l49 0 q83 108 126 241 l65 -20 q-52 -128 -116 -221 l130 0 l0 -63 l-177 0 ZM300 788 q-34 -121 -72 -211 l0 -676 l-66 0 l0 535 q-43 -78 -87 -142 l-43 66 q59 76 112.5 199 q53.5 123 81.5 240 l74 -11 ZM412 564 q-13 37 -44 93 q-31 56 -54 87 l54 32 q22 -29 54 -82.5 q32 -53.5 47 -86.5 l-57 -43 ZM410 78 l84 74 l24 -64 q-24 -24 -124 -109 q-24 -20 -36 -35 l-44 57 q15 13 22 26.5 q7 13.5 7 31.5 l0 374 l-83 0 l0 71 l150 0 l0 -426 ZM609 179 l188 0 l0 98 l-188 0 l0 -98 ZM609 119 l0 -101 l188 0 l0 101 l-188 0 Z" /><glyph glyph-name="uni50AC" unicode="&#x50ac;" d="M816 760 l67 -3 l0 -180 l-527 0 l0 183 l66 -3 l0 -115 l162 0 l0 157 l69 -3 l0 -154 l163 0 l0 118 ZM929 17 l0 -62 l-482 0 l0 -61 l-69 0 l0 426 q-38 -54 -88 -112 l-50 48 l0 -362 l-68 0 l0 536 q-40 -76 -96 -155 l-59 44 q71 95 128 222 q57 127 89 253 l77 -13 q-29 -106 -71 -207 l0 -310 q130 127 189 294 l67 -11 q-18 -47 -37 -86 l186 0 q-17 60 -30 93 l58 11 q24 -64 35 -104 l202 0 l0 -59 l-213 0 l0 -87 l201 0 l0 -60 l-201 0 l0 -88 l201 0 l0 -59 l-201 0 l0 -91 l232 0 ZM447 315 l180 0 l0 87 l-180 0 l0 -87 ZM447 167 l180 0 l0 88 l-180 0 l0 -88 ZM627 108 l-180 0 l0 -91 l180 0 l0 91 Z" /><glyph glyph-name="uni50B2" unicode="&#x50b2;" d="M906 -97 q-94 94 -156 202 q-62 -99 -174 -207 l-49 52 q125 109 187 224 q-56 122 -72 259 q-8 -14 -26 -42 l-21 13 l0 -63 l-186 0 l-3 -73 l177 0 l-3 -43 q-6 -121 -11 -166 q-3 -42 -15 -64.5 q-12 -22.5 -36.5 -33 q-24.5 -10.5 -69.5 -13.5 l-43 -4 l-20 61 l51 3 q38 3 51.5 15.5 q13.5 12.5 18.5 47.5 q3 27 6.5 66.5 q3.5 39.5 4.5 67.5 l-116 0 q-10 -86 -39 -151.5 q-29 -65.5 -88 -137.5 l-56 44 q66 71 92.5 135.5 q26.5 64.5 31.5 160.5 q3 45 5 85 l-103 0 l0 65 l162 0 l0 85 l-126 0 l0 61 l126 0 l0 81 l-134 0 l0 61 l134 0 l0 109 l67 -4 l0 -105 l142 0 l0 -61 l-142 0 l0 -81 l110 0 l0 -61 l-110 0 l0 -85 l119 0 l-31 20 q91 126 139 379 l68 -9 q-20 -91 -41 -159 l209 0 l0 -68 l-54 0 q-12 -129 -34.5 -224.5 q-22.5 -95.5 -63.5 -178.5 q60 -108 175 -210 l-53 -53 ZM283 781 q-30 -106 -67 -200 l0 -684 l-67 0 l0 540 q-37 -69 -80 -131 l-56 45 q67 88 117.5 202.5 q50.5 114.5 82.5 240.5 l70 -13 ZM747 244 q52 128 70 325 l-112 0 q-12 -32 -16 -40 q7 -162 58 -285 Z" /><glyph glyph-name="uni50B7" unicode="&#x50b7;" d="M267 545 q57 63 102.5 133 q45.5 70 74.5 138 l69 -17 q-14 -31 -36 -74 l428 0 l0 -60 l-463 0 q-4 -6 -35 -53 l418 0 l0 -230 l-449 0 l0 187 q-18 -24 -58 -72 l-51 48 ZM295 787 q-28 -98 -66 -190 l0 -690 l-66 0 l0 547 q-50 -97 -103 -166 l-45 59 q59 78 121.5 210.5 q62.5 132.5 91.5 248.5 l67 -19 ZM758 518 l0 47 l-314 0 l0 -47 l314 0 ZM444 475 l0 -48 l314 0 l0 48 l-314 0 ZM944 279 l-451 0 q-16 -24 -38 -51 l412 0 l-21 -210 q-4 -35 -16 -53.5 q-12 -18.5 -38 -28 q-26 -9.5 -76 -14.5 l-48 -5 l-21 57 l42 4 q35 3 52.5 8.5 q17.5 5.5 26.5 16.5 q9 11 13 33 q4 26 8.5 67 q4.5 41 6.5 67 l-76 0 q-27 -92 -82 -155 q-55 -63 -159 -123 l-41 48 q95 53 142 103 q47 50 74 127 l-84 0 q-41 -74 -108 -133 q-67 -59 -169 -112 l-36 56 q91 43 147 87 q56 44 94 102 l-95 0 q-55 -55 -127 -101 l-35 50 q110 72 178 160 l-145 0 l0 56 l670 0 l0 -56 Z" /><glyph glyph-name="uni50BB" unicode="&#x50bb;" d="M256 281 q40 13 104 48.5 q64 35.5 112 67.5 l-126 0 l0 326 l173 0 q26 55 35 92 l75 -12 q-10 -28 -34 -80 l275 0 l0 -326 l-151 0 q48 -18 118.5 -53 q70.5 -35 107.5 -60 l-24 -59 q-40 30 -116 67 q-76 37 -128 56 l25 49 l-208 0 l25 -44 q-42 -32 -115 -74 q-73 -42 -118 -60 l-30 62 ZM310 783 q-33 -114 -80 -219 l0 -662 l-69 0 l0 525 q-38 -66 -82 -131 l-54 48 q62 83 122 208.5 q60 125.5 91 241.5 l72 -11 ZM801 663 l-387 0 l0 -205 l387 0 l0 205 ZM756 613 q-27 -19 -75 -47 q57 -29 95 -53 l-27 -54 q-41 32 -126 76 q-90 -46 -160 -73 l-24 50 q52 17 125 53 q-68 32 -106 47 l26 48 q39 -15 140 -64 q63 35 104 65 l28 -48 ZM920 -97 q-183 39 -313 107 q-121 -63 -327 -113 l-25 65 q167 31 286 87 q-62 42 -105 91 q-60 -54 -129 -100 l-37 60 q70 46 139.5 110 q69.5 64 103.5 115 l52 -35 q-19 -30 -22 -34 l287 0 l0 -51 q-64 -94 -157 -156 q121 -58 275 -79 l-28 -67 ZM608 84 q83 51 129 111 l-245 0 l-6 -6 q44 -56 122 -105 Z" /><glyph glyph-name="uni50C5" unicode="&#x50c5;" d="M303 793 q-26 -97 -65 -191 l0 -698 l-70 0 l0 551 q-53 -97 -109 -168 l-42 62 q59 78 123 209.5 q64 131.5 96 249.5 l67 -15 ZM783 658 l0 -121 l-151 0 l0 -60 l228 0 l0 -181 l-228 0 l0 -62 l252 0 l0 -58 l-252 0 l0 -60 l234 0 l0 -57 l-234 0 l0 -63 l294 0 l0 -58 l-654 0 l0 58 l294 0 l0 63 l-222 0 l0 57 l222 0 l0 60 l-244 0 l0 58 l244 0 l0 62 l-225 0 l0 181 l225 0 l0 60 l-147 0 l0 121 l-114 0 l0 60 l114 0 l0 81 l71 -3 l0 -78 l223 0 l0 82 l70 -3 l0 -79 l148 0 l0 -60 l-148 0 ZM713 658 l-223 0 l0 -63 l223 0 l0 63 ZM412 422 l0 -73 l154 0 l0 73 l-154 0 ZM793 349 l0 73 l-161 0 l0 -73 l161 0 Z" /><glyph glyph-name="uni50CF" unicode="&#x50cf;" d="M949 4 l-48 -50 q-70 66 -112 123.5 q-42 57.5 -76 143.5 l-53 -27 q16 -61 16 -137 q0 -52 -14 -82 q-14 -30 -45 -44 q-31 -14 -86 -17 l-54 -3 l-21 62 l67 4 q35 2 53.5 10.5 q18.5 8.5 26.5 29.5 q8 21 8 60 q0 30 -3 57 q-122 -116 -330 -201 l-28 58 q100 36 189 86.5 q89 50.5 156 115.5 q-10 28 -17 42 q-60 -49 -130 -87 q-70 -38 -162 -77 l-25 55 q184 70 291 156 l-24 34 q-39 -27 -95.5 -50.5 q-56.5 -23.5 -142.5 -50.5 l-24 58 q103 29 163.5 56.5 q60.5 27.5 94.5 62.5 l-178 0 l0 153 q-32 -24 -48 -35 l-32 62 q71 49 132 111.5 q61 62.5 100 130.5 l65 -25 q-14 -26 -35 -57 l252 0 l0 -55 l-78 -86 l167 0 l0 -199 l-269 0 q-14 -23 -26 -36 q41 -52 66 -107 q47 23 106 61 q59 38 93 66 l35 -52 q-31 -25 -110 -74 q32 -79 75 -136 q43 -57 110 -110 ZM299 784 q-27 -100 -70 -209 l0 -673 l-69 0 l0 523 q-45 -86 -91 -148 l-58 50 q70 90 125 213.5 q55 123.5 90 255.5 l73 -12 ZM485 675 q-35 -41 -82 -84 l220 0 l77 84 l-215 0 ZM412 446 l149 0 q17 39 21 92 l-170 0 l0 -92 ZM804 446 l0 92 l-163 0 q-5 -55 -17 -92 l180 0 Z" /><glyph glyph-name="uni50E7" unicode="&#x50e7;" d="M885 685 l0 -322 l-558 0 l0 322 l142 0 q-21 50 -54 96 l59 32 q16 -22 35 -52.5 q19 -30.5 29 -53.5 l-31 -22 l147 0 q21 26 46 64 q25 38 39 64 l61 -34 q-21 -41 -61 -94 l146 0 ZM295 783 q-30 -106 -67 -198 l0 -680 l-68 0 l0 533 q-37 -71 -83 -140 l-53 46 q55 84 112.5 210.5 q57.5 126.5 87.5 239.5 l71 -11 ZM575 622 l-186 0 l0 -196 l186 0 l0 196 ZM639 426 l181 0 l0 196 l-181 0 l0 -196 ZM662 476 q18 18 44.5 58 q26.5 40 39.5 68 l48 -29 q-14 -29 -40 -69 q-26 -40 -44 -60 l-48 32 ZM458 598 q20 -20 48.5 -57.5 q28.5 -37.5 40.5 -61.5 l-46 -41 q-12 26 -38 63 q-26 37 -48 64 l43 33 ZM436 -98 l-70 0 l0 389 l478 0 l0 -389 l-69 0 l0 47 l-339 0 l0 -47 ZM775 149 l0 81 l-339 0 l0 -81 l339 0 ZM436 89 l0 -80 l339 0 l0 80 l-339 0 Z" /><glyph glyph-name="uni50F5" unicode="&#x50f5;" d="M288 790 q-28 -107 -70 -214 l0 -670 l-70 0 l0 521 q-37 -70 -77 -128 l-56 58 q61 81 116 204 q55 123 82 240 l75 -11 ZM313 766 l597 0 l0 -60 l-597 0 l0 60 ZM862 655 l0 -218 l-519 0 l0 218 l519 0 ZM569 570 l0 42 l-158 0 l0 -42 l158 0 ZM634 570 l158 0 l0 42 l-158 0 l0 -42 ZM569 524 l-158 0 l0 -43 l158 0 l0 43 ZM634 524 l0 -43 l158 0 l0 43 l-158 0 ZM271 389 l661 0 l0 -57 l-661 0 l0 57 ZM867 284 l0 -235 l-529 0 l0 235 l529 0 ZM569 188 l0 49 l-162 0 l0 -49 l162 0 ZM634 188 l162 0 l0 49 l-162 0 l0 -49 ZM569 143 l-162 0 l0 -47 l162 0 l0 47 ZM634 143 l0 -47 l162 0 l0 47 l-162 0 ZM272 -59 l0 59 l662 0 l0 -59 l-662 0 Z" /><glyph glyph-name="uni5121" unicode="&#x5121;" d="M295 792 q-34 -124 -83 -239 l0 -648 l-65 0 l0 514 q-39 -74 -87 -142 l-44 62 q62 82 118 210.5 q56 128.5 87 253.5 l74 -11 ZM339 763 l506 0 l0 -340 l-506 0 l0 340 ZM562 622 l0 80 l-153 0 l0 -80 l153 0 ZM623 622 l152 0 l0 80 l-152 0 l0 -80 ZM562 565 l-153 0 l0 -82 l153 0 l0 82 ZM623 565 l0 -82 l152 0 l0 82 l-152 0 ZM338 -84 l-57 0 l0 436 l287 0 l0 -435 l-56 0 l0 45 l-174 0 l0 -46 ZM611 -84 l0 436 l291 0 l0 -435 l-58 0 l0 45 l-179 0 l0 -46 l-54 0 ZM402 184 l0 105 l-64 0 l0 -105 l64 0 ZM451 184 l61 0 l0 105 l-61 0 l0 -105 ZM732 184 l0 105 l-67 0 l0 -105 l67 0 ZM781 184 l63 0 l0 105 l-63 0 l0 -105 ZM402 128 l-64 0 l0 -105 l64 0 l0 105 ZM451 128 l0 -105 l61 0 l0 105 l-61 0 ZM732 128 l-67 0 l0 -105 l67 0 l0 105 ZM781 128 l0 -105 l63 0 l0 105 l-63 0 Z" /><glyph glyph-name="uni513F" unicode="&#x513f;" d="M40 -44 q101 74 150 134 q49 60 68.5 140.5 q19.5 80.5 19.5 219.5 l0 335 l76 -3 l0 -332 q0 -152 -23 -244 q-23 -92 -74.5 -158.5 q-51.5 -66.5 -154.5 -150.5 l-62 59 ZM555 784 l79 -4 l0 -696 q0 -31 6 -46 q6 -15 19.5 -21 q13.5 -6 40.5 -8 l31 -1 l30 1 q40 2 55.5 13 q15.5 11 21.5 41 q8 42 12 128 l72 -25 q-6 -95 -19 -158 q-9 -38 -37.5 -55.5 q-28.5 -17.5 -95.5 -20.5 q-12 -1 -40 -1 q-29 0 -41 1 q-50 2 -78.5 14 q-28.5 12 -42 40.5 q-13.5 28.5 -13.5 82.5 l0 715 Z" /><glyph glyph-name="uni5140" unicode="&#x5140;" d="M931 146 q-5 -83 -17 -146 q-8 -37 -38 -54.5 q-30 -17.5 -98 -20.5 q-13 -1 -39 -1 q-26 0 -39 1 q-51 2 -80 14 q-29 12 -42.5 40.5 q-13.5 28.5 -13.5 81.5 l0 593 l-197 0 l0 -208 q0 -155 -22 -244.5 q-22 -89.5 -78.5 -156.5 q-56.5 -67 -172.5 -148 l-55 57 q105 71 156 130 q51 59 71.5 140 q20.5 81 20.5 221 l0 209 l-220 0 l0 73 l838 0 l0 -73 l-261 0 l0 -578 q0 -31 6 -46 q6 -15 20.5 -21 q14.5 -6 42.5 -8 l28 -1 q40 0 60.5 4 q20.5 4 31 15.5 q10.5 11.5 15.5 35.5 q5 27 7.5 56 q2.5 29 3.5 60 l72 -25 Z" /><glyph glyph-name="uni5141" unicode="&#x5141;" d="M927 157 q-1 -41 -11 -108 q-7 -46 -20 -69 q-13 -23 -40 -33.5 q-27 -10.5 -78 -13.5 q-34 -2 -55 -2 q-19 0 -55 2 q-70 4 -101 32.5 q-31 28.5 -31 99.5 l0 342 q-107 -4 -154 -7 q0 -53 -1 -71 q-2 -110 -28.5 -181.5 q-26.5 -71.5 -84 -127.5 q-57.5 -56 -166.5 -128 l-58 68 q102 58 155 105.5 q53 47.5 76.5 108 q23.5 60.5 26.5 155.5 q1 18 1 68 l-113 -5 q-44 -1 -91 -9 l-24 80 q28 7 42 14 q14 7 30 21 q70 58 150 149.5 q80 91.5 138 178.5 l70 -42 q-60 -84 -135 -170.5 q-75 -86.5 -141 -144.5 l485 19 q-70 88 -130 146 l56 45 q57 -54 134 -145.5 q77 -91.5 112 -146.5 l-60 -55 q-29 47 -57 83 l-151 -5 l0 -327 q0 -30 7 -44.5 q7 -14.5 22 -20.5 q15 -6 44 -9 q11 -1 35 -1 q25 0 35 1 q35 3 49 8 q14 5 20.5 18.5 q6.5 13.5 12.5 46.5 q3 17 5.5 49 q2.5 32 2.5 50 l76 -24 Z" /><glyph glyph-name="uni5143" unicode="&#x5143;" d="M168 745 l628 0 l0 -76 l-628 0 l0 76 ZM925 148 q-5 -53 -12 -95 q-8 -46 -19.5 -67 q-11.5 -21 -37.5 -31 q-26 -10 -81 -16 q-24 -2 -44 -2 q-24 0 -56 2 q-48 3 -73.5 15 q-25.5 12 -36.5 39 q-11 27 -11 76 l0 336 l-167 0 q-2 -90 -4 -105 q-8 -92 -35 -156.5 q-27 -64.5 -85.5 -122.5 q-58.5 -58 -164.5 -122 l-56 65 q101 54 154.5 102.5 q53.5 48.5 75.5 101.5 q22 53 30 132 q3 28 5 105 l-220 0 l0 75 l801 0 l0 -75 l-253 0 l0 -318 q0 -31 3.5 -45 q3.5 -14 15.5 -20 q12 -6 39 -8 l34 -1 l36 1 q30 2 45 8.5 q15 6.5 21.5 20.5 q6.5 14 11.5 43 q6 39 9 86 l75 -24 Z" /><glyph glyph-name="uni5144" unicode="&#x5144;" d="M923 136 q0 -13 -4 -45.5 q-4 -32.5 -8 -54.5 q-9 -43 -21 -64 q-12 -21 -37 -30 q-25 -9 -75 -12 q-38 -2 -56 -2 q-19 0 -57 2 q-65 3 -91.5 28.5 q-26.5 25.5 -26.5 88.5 l0 292 l-158 0 l-2 -32 q-8 -112 -37 -184 q-29 -72 -90 -124.5 q-61 -52.5 -171 -104.5 l-46 66 q103 45 158 88.5 q55 43.5 80 103.5 q25 60 31 156 l1 31 l-148 0 l0 411 l639 0 l0 -411 l-181 0 l0 -269 q0 -27 6 -40 q6 -13 19.5 -18.5 q13.5 -5.5 42.5 -7.5 q13 -1 38 -1 q25 0 37 1 q33 3 47.5 7.5 q14.5 4.5 20.5 16 q6 11.5 11 39.5 q3 17 6 46.5 q3 29.5 3 45.5 l69 -23 ZM728 677 l-489 0 l0 -266 l489 0 l0 266 Z" /><glyph glyph-name="uni5145" unicode="&#x5145;" d="M916 118 q-7 -77 -17 -123 q-7 -32 -36.5 -51 q-29.5 -19 -95.5 -21 q-18 -1 -57 -1 q-40 0 -58 1 q-44 1 -69 11.5 q-25 10.5 -37 35.5 q-12 25 -12 71 l0 288 q-82 -4 -121 -5 l-4 -49 q-7 -100 -40 -167 q-33 -67 -96 -118.5 q-63 -51.5 -172 -106.5 l-50 72 q101 45 158 87.5 q57 42.5 86 97.5 q29 55 37 138 l4 42 l-55 -2 q-15 -1 -35 -1 q-32 -1 -53.5 -3 q-21.5 -2 -48.5 -6 l-17 73 q36 6 66 32 q65 55 174 193 l-291 0 l0 73 l388 0 q-23 63 -50 114 l70 25 q12 -24 31.5 -69.5 q19.5 -45.5 27.5 -69.5 l348 0 l0 -73 l-432 0 q-115 -147 -186 -215 l405 16 q-66 76 -109 116 l55 48 q46 -42 115 -120.5 q69 -78.5 105 -128.5 l-56 -64 q-17 31 -54 79 l-124 -5 l0 -273 q0 -37 14 -49 q14 -12 54 -14 q12 -1 40 -1 q27 0 39 1 q39 1 55 10.5 q16 9.5 21 33.5 q10 55 13 101 l70 -23 Z" /><glyph glyph-name="uni5146" unicode="&#x5146;" d="M931 116 q-2 -31 -10 -75 q-8 -46 -20 -67.5 q-12 -21.5 -36 -30 q-24 -8.5 -76 -12.5 q-20 -2 -60 -2 q-41 0 -61 2 q-48 4 -74.5 14.5 q-26.5 10.5 -39 34.5 q-12.5 24 -12.5 68 l0 752 l76 -3 l0 -366 q73 -45 146.5 -96.5 q73.5 -51.5 116.5 -88.5 l-44 -69 q-36 35 -96.5 80.5 q-60.5 45.5 -122.5 85.5 l0 -269 q0 -27 6 -40.5 q6 -13.5 20 -19.5 q14 -6 43 -9 q30 -2 44 -2 q16 0 44 2 q34 3 47.5 7.5 q13.5 4.5 20 16 q6.5 11.5 11.5 38.5 q6 32 8 74 l69 -25 ZM344 797 l73 -3 l0 -410 q0 -138 -27.5 -223 q-27.5 -85 -90.5 -145 q-63 -60 -183 -124 l-50 68 q106 54 162.5 100.5 q56.5 46.5 82.5 108 q26 61.5 32 159.5 q-100 -52 -269 -128 l-28 69 q53 20 143 62 q90 42 155 76 l0 390 ZM256 432 q-25 41 -74.5 108 q-49.5 67 -86.5 110 l58 45 q33 -38 85 -104.5 q52 -66.5 80 -108.5 l-62 -50 ZM871 643 q-35 -46 -88 -106.5 q-53 -60.5 -98 -104.5 l-54 53 q45 39 97 98 q52 59 85 108 l58 -48 Z" /><glyph glyph-name="uni5148" unicode="&#x5148;" d="M926 124 q-4 -68 -18 -128 q-5 -23 -16 -35.5 q-11 -12.5 -36 -19.5 q-25 -7 -74 -10 q-30 -2 -52 -2 q-22 0 -52 2 q-47 3 -72 13 q-25 10 -35.5 34 q-10.5 24 -10.5 69 l0 270 l-153 0 q0 -11 -2 -25 q-6 -107 -36.5 -176.5 q-30.5 -69.5 -90.5 -120.5 q-60 -51 -169 -107 l-46 71 q99 45 154 88.5 q55 43.5 80 101 q25 57.5 30 144.5 q0 6 2 24 l-270 0 l0 71 l407 0 l0 184 l-211 0 q-36 -83 -86 -162 l-68 36 q48 70 83 149.5 q35 79.5 64 177.5 l75 -15 q-19 -62 -39 -116 l182 0 l0 164 l76 -4 l0 -160 l329 0 l0 -70 l-329 0 l0 -184 l375 0 l0 -71 l-280 0 l0 -245 q0 -38 13 -51 q13 -13 53 -18 q9 -1 33 -1 q25 0 33 1 q32 3 47 7.5 q15 4.5 21 12.5 q6 8 9 24 q8 43 10 101 l70 -24 Z" /><glyph glyph-name="uni5149" unicode="&#x5149;" d="M919 136 l-2 -23 q-6 -80 -13 -117 q-6 -34 -35.5 -49.5 q-29.5 -15.5 -96.5 -19.5 q-36 -2 -54 -2 q-18 0 -54 2 q-47 3 -72.5 14 q-25.5 11 -37 37 q-11.5 26 -11.5 74 l0 301 l-155 0 l-1 -24 q-7 -115 -36 -190.5 q-29 -75.5 -89.5 -131.5 q-60.5 -56 -168.5 -110 l-54 68 q106 52 161.5 97 q55.5 45 80.5 106.5 q25 61.5 29 162.5 l1 22 l-239 0 l0 75 l377 0 l0 370 l78 -3 l0 -367 l378 0 l0 -75 l-284 0 l0 -278 q0 -38 14 -51 q14 -13 55 -16 q12 -1 36 -1 q24 0 36 1 q41 3 57.5 11.5 q16.5 8.5 20.5 33.5 q7 39 9 107 l70 -24 ZM835 704 q-74 -143 -151 -240 l-64 45 q35 37 79.5 108.5 q44.5 71.5 70.5 125.5 l65 -39 ZM295 461 q-25 48 -73.5 119 q-48.5 71 -85.5 116 l60 43 q34 -39 85.5 -109.5 q51.5 -70.5 77.5 -115.5 l-64 -53 Z" /><glyph glyph-name="uni514B" unicode="&#x514b;" d="M917 112 q-1 -8 -5.5 -49 q-4.5 -41 -13.5 -76 q-5 -21 -18 -33 q-13 -12 -39.5 -18 q-26.5 -6 -74.5 -9 q-34 -2 -51 -2 q-18 0 -52 2 q-63 4 -87.5 27 q-24.5 23 -24.5 82 l0 189 l-144 0 q-7 -48 -8 -53 q-9 -68 -43 -115.5 q-34 -47.5 -97 -85.5 q-63 -38 -170 -80 l-37 69 q100 33 155.5 64 q55.5 31 84 70.5 q28.5 39.5 38.5 100.5 l3 30 l-160 0 l0 295 l280 0 l0 109 l-382 0 l0 67 l382 0 l0 107 l72 -2 l0 -105 l382 0 l0 -67 l-382 0 l0 -109 l281 0 l0 -295 l-184 0 l0 -167 q0 -25 6 -37.5 q6 -12.5 20 -17.5 q14 -5 42 -7 q22 -2 33 -2 q10 0 32 2 q46 3 62 10.5 q16 7.5 20 29.5 q8 41 12 102 l68 -26 ZM736 450 l-493 0 l0 -156 l493 0 l0 156 Z" /><glyph glyph-name="uni514D" unicode="&#x514d;" d="M914 112 q-3 -47 -11 -90 q-7 -36 -18.5 -53.5 q-11.5 -17.5 -35.5 -25.5 q-24 -8 -72 -11 q-44 -3 -81 -3 q-36 0 -81 3 q-46 3 -69.5 12 q-23.5 9 -34 30.5 q-10.5 21.5 -10.5 63.5 l0 199 l-3 0 q-25 -77 -72 -134.5 q-47 -57.5 -125.5 -105 q-78.5 -47.5 -202.5 -97.5 l-43 69 q164 56 247 116.5 q83 60.5 117 151.5 l-251 0 l0 254 q-44 -35 -80 -60 l-41 56 q92 65 170.5 148 q78.5 83 135.5 175 l66 -31 q-21 -33 -42 -63 l350 0 l0 -63 l-106 -118 l203 0 l0 -298 l-252 0 l0 -175 q0 -25 5.5 -37 q5.5 -12 19 -16.5 q13.5 -4.5 42.5 -7.5 q20 -2 56 -2 q38 0 61 2 q32 3 47 8 q15 5 21 15.5 q6 10.5 10 34.5 q7 41 9 81 l71 -28 ZM327 650 q-51 -63 -107 -115 l307 0 l103 115 l-303 0 ZM240 303 l198 0 q15 65 18 165 l-216 0 l0 -165 ZM752 303 l0 165 l-221 0 q-5 -100 -17 -165 l238 0 Z" /><glyph glyph-name="uni5151" unicode="&#x5151;" d="M912 108 q-5 -78 -17 -123 q-8 -32 -35 -46.5 q-27 -14.5 -91 -18.5 q-36 -2 -56 -2 q-18 0 -56 2 q-63 3 -87 26.5 q-24 23.5 -24 84.5 l0 235 l-151 0 l-1 -14 q-7 -97 -36.5 -157.5 q-29.5 -60.5 -89 -104.5 q-59.5 -44 -172.5 -99 l-43 62 q106 44 161 82.5 q55 38.5 79.5 89.5 q24.5 51 29.5 132 q0 6 1 9 l-157 0 l0 364 l166 0 q-38 75 -90 142 l61 38 q28 -36 56.5 -79.5 q28.5 -43.5 44.5 -76.5 l-33 -24 l171 0 q29 34 62 87 q33 53 53 94 l63 -35 q-40 -74 -88 -146 l167 0 l0 -364 l-185 0 l0 -207 q0 -26 6 -39 q6 -13 19.5 -18.5 q13.5 -5.5 41.5 -7.5 q26 -2 38 -2 q14 0 38 2 q40 3 55.5 11 q15.5 8 19.5 29 q6 30 10 97 l69 -23 ZM729 560 l-492 0 l0 -223 l492 0 l0 223 Z" /><glyph glyph-name="uni5154" unicode="&#x5154;" d="M915 118 q-6 -78 -17 -121 q-6 -30 -33.5 -45.5 q-27.5 -15.5 -86.5 -17.5 q-58 -2 -87 -2 q-30 0 -88 2 q-43 2 -67 11.5 q-24 9.5 -35 32 q-11 22.5 -11 64.5 l0 206 l-1 0 q-43 -116 -138.5 -198 q-95.5 -82 -266.5 -152 l-40 70 q156 60 241 125 q85 65 124 155 l-259 0 l0 242 q-30 -25 -68 -51 l-43 64 q89 57 167 141.5 q78 84.5 133 176.5 l66 -32 q-24 -40 -37 -60 l361 0 l0 -65 l-116 -119 l223 0 l0 -297 l-275 0 l0 -183 q0 -37 13 -48.5 q13 -11.5 53 -13.5 q22 -1 66 -1 q43 0 65 1 q41 2 58 10.5 q17 8.5 21 31.5 q8 35 10 98 l68 -25 ZM319 662 q-47 -60 -107 -117 l299 0 l116 117 l-308 0 ZM224 319 l209 0 q17 69 21 157 l-230 0 l0 -157 ZM761 319 l0 157 l-230 0 q-4 -86 -21 -157 l251 0 ZM657 240 q25 -19 67 -58 q42 -39 66 -65 l-48 -61 q-21 30 -62 71.5 q-41 41.5 -69 61.5 l46 51 Z" /><glyph glyph-name="uni515A" unicode="&#x515a;" d="M170 563 l0 -139 l-73 0 l0 208 l191 0 q-40 63 -85 115 l55 35 q22 -25 53.5 -65 q31.5 -40 47.5 -64 l-26 -21 l116 0 l0 174 l73 -2 l0 -172 l121 0 l-30 25 q29 25 62.5 62 q33.5 37 54.5 65 l55 -40 q-19 -24 -47.5 -56.5 q-28.5 -32.5 -51.5 -55.5 l199 0 l0 -208 l-71 0 l0 139 l-644 0 ZM917 94 q-6 -76 -16 -118 q-7 -31 -30 -44 q-23 -13 -85 -16 q-40 -2 -64 -2 q-25 0 -65 2 q-61 3 -87 25.5 q-26 22.5 -26 78.5 l0 164 l-132 0 q-9 -81 -46.5 -135 q-37.5 -54 -99.5 -89 q-62 -35 -158 -68 l-39 67 q84 21 138 46.5 q54 25.5 87.5 68 q33.5 42.5 42.5 110.5 l-113 0 l0 278 l531 0 l0 -278 l-138 0 l0 -139 q0 -34 13.5 -45 q13.5 -11 53.5 -13 q13 -1 43 -1 q31 0 43 1 q37 1 50.5 9.5 q13.5 8.5 18.5 30.5 q6 31 10 92 l68 -25 ZM685 396 l-390 0 l0 -144 l390 0 l0 144 Z" /><glyph glyph-name="uni5165" unicode="&#x5165;" d="M941 -21 l-59 -67 q-130 98 -220 230 q-90 132 -164 317 q-54 -151 -158 -294 q-104 -143 -240 -246 l-57 60 q152 112 258.5 269.5 q106.5 157.5 148.5 321.5 q-39 72 -106 124 l-37 27 l47 55 l26 -17 q42 -32 70.5 -63 q28.5 -31 56 -81 q27.5 -50 58.5 -132 q57 -148 155 -282.5 q98 -134.5 221 -221.5 Z" /><glyph glyph-name="uni5168" unicode="&#x5168;" d="M788 398 l-258 0 l0 -146 l282 0 l0 -72 l-282 0 l0 -166 l369 0 l0 -69 l-818 0 l0 69 l370 0 l0 166 l-281 0 l0 72 l281 0 l0 146 l-259 0 l0 59 q-38 -24 -119 -68 l-40 72 q154 75 255.5 155.5 q101.5 80.5 166.5 179.5 l70 0 q64 -99 171.5 -184 q107.5 -85 252.5 -154 l-40 -68 q-66 37 -121 72 l0 -64 ZM214 471 l560 0 q-196 130 -284 251 q-96 -134 -276 -251 Z" /><glyph glyph-name="uni516B" unicode="&#x516b;" d="M634 784 q6 -208 35.5 -343 q29.5 -135 93 -241 q63.5 -106 181.5 -229 l-70 -59 q-120 133 -185 247 q-65 114 -96 260 q-31 146 -38 370 l79 -5 ZM36 -29 q111 126 170.5 228.5 q59.5 102.5 88 233.5 q28.5 131 37.5 336 l81 -5 q-11 -221 -40.5 -356 q-29.5 -135 -89.5 -243 q-60 -108 -178 -251 l-69 57 Z" /><glyph glyph-name="uni516C" unicode="&#x516c;" d="M619 788 q59 -152 132.5 -252.5 q73.5 -100.5 197.5 -179.5 l-61 -69 q-118 87 -197.5 203.5 q-79.5 116.5 -140.5 270.5 l69 27 ZM425 756 q-60 -137 -139 -251.5 q-79 -114.5 -197 -212.5 l-58 59 q115 86 196.5 198.5 q81.5 112.5 124.5 230.5 l73 -24 ZM625 287 q56 -82 108.5 -173 q52.5 -91 90.5 -174 l-75 -43 q-31 74 -44 100 q-107 -6 -249.5 -18.5 q-142.5 -12.5 -194.5 -19.5 q-51 -7 -99 -19 l-22 75 q30 7 42.5 13.5 q12.5 6.5 24.5 21.5 q59 67 124 186.5 q65 119.5 113 237.5 l74 -31 q-46 -112 -107.5 -224 q-61.5 -112 -120.5 -184 l380 30 q-51 97 -110 184 l65 38 Z" /><glyph glyph-name="uni516D" unicode="&#x516d;" d="M916 591 l0 -75 l-850 0 l0 75 l406 0 q-16 55 -37 118 q-21 63 -29 81 l78 19 q13 -30 76 -218 l356 0 ZM632 403 q60 -80 145 -214.5 q85 -134.5 134 -226.5 l-67 -52 q-47 95 -131.5 231 q-84.5 136 -146.5 220 l66 42 ZM57 -38 q80 87 155 203.5 q75 116.5 123 229.5 l78 -30 q-56 -127 -131 -245 q-75 -118 -157 -209 l-68 51 Z" /><glyph glyph-name="uni516E" unicode="&#x516e;" d="M753 437 l-401 0 l-26 -147 l431 0 l-23 -225 q-6 -57 -23.5 -85.5 q-17.5 -28.5 -54 -40.5 q-36.5 -12 -108.5 -17 l-142 -9 l-25 76 l146 8 q56 3 78.5 9 q22.5 6 30.5 20.5 q8 14.5 13 50.5 q13 98 17 143 l-435 0 l41 217 l-55 0 l0 49 q-65 -58 -138 -105 l-48 59 q107 66 194.5 159.5 q87.5 93.5 138.5 197.5 l67 -31 q-67 -141 -190 -258 l484 0 q-120 114 -194 269 l68 28 q56 -115 140 -202 q84 -87 204 -160 l-47 -66 q-80 49 -143 105 l0 -45 Z" /><glyph glyph-name="uni5170" unicode="&#x5170;" d="M871 592 l0 -74 l-764 0 l0 74 l227 0 q-48 93 -106 173 l63 42 q62 -80 114 -175 l-56 -40 l197 0 q39 44 83 107.5 q44 63.5 67 110.5 l68 -37 q-19 -36 -53.5 -87.5 q-34.5 -51.5 -67.5 -93.5 l228 0 ZM811 327 l0 -73 l-645 0 l0 73 l645 0 ZM53 -52 l0 74 l872 0 l0 -74 l-872 0 Z" /><glyph glyph-name="uni5171" unicode="&#x5171;" d="M689 550 l0 -245 l238 0 l0 -77 l-885 0 l0 77 l236 0 l0 245 l-181 0 l0 73 l181 0 l0 183 l79 -3 l0 -180 l252 0 l0 183 l80 -2 l0 -181 l186 0 l0 -73 l-186 0 ZM609 550 l-252 0 l0 -245 l252 0 l0 245 ZM65 -27 q62 31 153 97.5 q91 66.5 146 117.5 l50 -60 q-52 -49 -143.5 -116.5 q-91.5 -67.5 -154.5 -104.5 l-51 66 ZM605 188 q61 -38 151.5 -103 q90.5 -65 140.5 -108 l-46 -74 q-50 51 -137.5 116.5 q-87.5 65.5 -155.5 106.5 l47 62 Z" /><glyph glyph-name="uni5173" unicode="&#x5173;" d="M527 284 q40 -109 141 -186 q101 -77 259 -120 l-40 -77 q-137 40 -245.5 116.5 q-108.5 76.5 -159.5 184.5 q-45 -88 -142.5 -162 q-97.5 -74 -250.5 -139 l-45 73 q182 70 273 146.5 q91 76.5 116 163.5 l-357 0 l0 75 l367 0 l0 4 l0 177 l-314 0 l0 72 l201 0 q-19 38 -50 85.5 q-31 47.5 -53 73.5 l60 38 q24 -29 60.5 -81 q36.5 -52 54.5 -85 l-42 -31 l186 0 q36 43 71 97.5 q35 54.5 58 100.5 l70 -29 q-50 -95 -106 -169 l197 0 l0 -72 l-311 0 l-2 -173 l0 -8 l369 0 l0 -75 l-365 0 Z" /><glyph glyph-name="uni5174" unicode="&#x5174;" d="M470 784 q23 -59 51 -163 q28 -104 41 -172 l-75 -25 q-11 65 -38 170.5 q-27 105.5 -51 170.5 l72 19 ZM636 427 q42 66 88 160 q46 94 69 163 l69 -27 q-26 -70 -73 -167 q-47 -97 -86 -161 l-67 32 ZM190 734 q35 -54 80.5 -142.5 q45.5 -88.5 72.5 -157.5 l-69 -37 q-27 71 -72.5 161.5 q-45.5 90.5 -78.5 140.5 l67 35 ZM47 279 l0 73 l885 0 l0 -73 l-885 0 ZM73 -33 q66 44 143.5 117 q77.5 73 132.5 142 l55 -57 q-52 -61 -130.5 -134.5 q-78.5 -73.5 -147.5 -129.5 l-53 62 ZM620 225 q61 -47 145 -124 q84 -77 134 -130 l-57 -66 q-54 64 -134 140 q-80 76 -140 122 l52 58 Z" /><glyph glyph-name="uni5175" unicode="&#x5175;" d="M698 243 l235 0 l0 -70 l-885 0 l0 70 l179 0 l0 471 q313 16 575 63 l14 -69 q-231 -49 -511 -62 l0 -133 l582 0 l0 -69 l-189 0 l0 -201 ZM621 444 l-316 0 l0 -201 l316 0 l0 201 ZM70 -29 q70 30 157 80.5 q87 50.5 142 93.5 l43 -62 q-90 -71 -296 -179 l-46 67 ZM611 143 q61 -28 151.5 -80.5 q90.5 -52.5 142.5 -91.5 l-38 -74 q-48 46 -134.5 98.5 q-86.5 52.5 -158.5 87.5 l37 60 Z" /><glyph glyph-name="uni5176" unicode="&#x5176;" d="M755 629 l0 -427 l179 0 l0 -67 l-889 0 l0 67 l179 0 l0 427 l-141 0 l0 66 l141 0 l0 105 l74 -3 l0 -102 l382 0 l0 105 l75 -3 l0 -102 l141 0 l0 -66 l-141 0 ZM680 530 l0 99 l-382 0 l0 -99 l382 0 ZM680 464 l-382 0 l0 -97 l382 0 l0 97 ZM680 300 l-382 0 l0 -98 l382 0 l0 98 ZM64 -43 q60 20 159 68.5 q99 48.5 151 84.5 l34 -61 q-52 -36 -151.5 -85.5 q-99.5 -49.5 -160.5 -71.5 l-32 65 ZM594 107 q67 -24 167.5 -69.5 q100.5 -45.5 149.5 -75.5 l-30 -70 q-51 38 -150 83.5 q-99 45.5 -166 67.5 l29 64 Z" /><glyph glyph-name="uni5177" unicode="&#x5177;" d="M784 755 l0 -565 l150 0 l0 -68 l-887 0 l0 68 l148 0 l0 565 l589 0 ZM708 613 l0 75 l-440 0 l0 -75 l440 0 ZM268 472 l440 0 l0 76 l-440 0 l0 -76 ZM708 332 l0 76 l-440 0 l0 -76 l440 0 ZM708 268 l-440 0 l0 -78 l440 0 l0 78 ZM53 -39 q63 20 163.5 68 q100.5 48 153.5 84 l38 -60 q-56 -37 -159 -86.5 q-103 -49.5 -168 -71.5 l-28 66 ZM589 110 q64 -21 167.5 -64 q103.5 -43 157.5 -72 l-30 -72 q-50 34 -148.5 76.5 q-98.5 42.5 -174.5 68.5 l28 63 Z" /><glyph glyph-name="uni5178" unicode="&#x5178;" d="M834 678 l0 -464 l107 0 l0 -71 l-901 0 l0 71 l109 0 l0 464 l206 0 l0 114 l71 -3 l0 -111 l130 0 l0 114 l71 -3 l0 -111 l207 0 ZM355 451 l0 156 l-134 0 l0 -156 l134 0 ZM556 451 l0 156 l-130 0 l0 -156 l130 0 ZM762 451 l0 156 l-135 0 l0 -156 l135 0 ZM355 381 l-134 0 l0 -167 l134 0 l0 167 ZM426 214 l130 0 l0 167 l-130 0 l0 -167 ZM762 381 l-135 0 l0 -167 l135 0 l0 167 ZM52 -47 q66 22 167.5 70 q101.5 48 161.5 87 l35 -65 q-54 -35 -152.5 -81.5 q-98.5 -46.5 -173.5 -75.5 l-38 65 ZM588 108 q65 -22 166 -69 q101 -47 158 -82 l-31 -70 q-56 40 -155 89 q-99 49 -165 71 l27 61 Z" /><glyph glyph-name="uni5179" unicode="&#x5179;" d="M706 584 q-31 -59 -77.5 -134 q-46.5 -75 -74.5 -110 l162 7 q41 75 72 138 l65 -32 q-60 -116 -130 -235 q-70 -119 -126 -191 l185 11 q-38 97 -64 145 l61 30 q26 -46 61.5 -128.5 q35.5 -82.5 56.5 -145.5 l-67 -38 q-5 17 -24 73 q-201 -11 -241 -15 q-35 -4 -62 -9 l-21 67 q20 8 29 15 q9 7 19 19 q62 77 149 229 q-117 -4 -163 -9 q-35 -2 -57 -8 l-19 66 q19 7 28 14 q9 7 20 22 q24 30 66 97.5 q42 67.5 70 121.5 l-288 0 q-34 -63 -78.5 -135 q-44.5 -72 -72.5 -108 l147 7 q45 78 74 137 l65 -32 q-44 -86 -130 -219.5 q-86 -133.5 -145 -204.5 l178 13 q-31 98 -54 147 l62 26 q22 -48 54 -134.5 q32 -86.5 50 -146.5 l-70 -37 l-22 81 q-100 -6 -229 -17 q-23 -1 -60 -10 l-19 69 q18 8 26 14 q8 6 18 16 q66 73 162 230 q-72 -3 -144 -7 q-24 -2 -53 -8 l-18 67 q14 3 23.5 11 q9.5 8 22.5 23 q24 30 62.5 94 q38.5 64 69.5 124 l-207 0 l0 70 l285 0 q-16 26 -43 61 q-27 35 -42 51 l54 41 q18 -19 50.5 -59 q32.5 -40 44.5 -59 l-42 -35 l214 0 q20 23 52.5 71 q32.5 48 49.5 80 l62 -36 q-36 -63 -74 -115 l271 0 l0 -70 l-224 0 Z" /><glyph glyph-name="uni517B" unicode="&#x517b;" d="M910 81 q-136 42 -233 109 l0 -286 l-75 0 l0 305 l53 -4 q-70 54 -113 114 l-119 0 q-51 -70 -137 -127.5 q-86 -57.5 -217 -108.5 l-37 66 q104 36 177 77.5 q73 41.5 122 92.5 l-269 0 l0 64 l318 0 q26 44 41 93 l-284 0 l0 60 l299 0 q8 39 13 93 l-343 0 l0 64 l206 0 q-17 25 -37 51 q-20 26 -33 39 l54 41 q19 -20 45.5 -52 q26.5 -32 38.5 -51 l-34 -28 l243 0 q22 28 48.5 68 q26.5 40 40.5 65 l62 -36 q-24 -44 -65 -97 l197 0 l0 -64 l-348 0 q-5 -54 -13 -93 l329 0 l0 -60 l-343 0 q-15 -54 -35 -93 l454 0 l0 -64 l-288 0 q53 -59 126 -97.5 q73 -38.5 185 -68.5 l-29 -72 ZM128 -63 q81 33 121 69 q40 36 53.5 81.5 q13.5 45.5 13.5 118.5 l73 -5 q0 -87 -18 -142.5 q-18 -55.5 -63.5 -98 q-45.5 -42.5 -132.5 -82.5 l-47 59 Z" /><glyph glyph-name="uni517C" unicode="&#x517c;" d="M632 201 q119 -137 304 -204 l-41 -71 q-80 36 -157 92.5 q-77 56.5 -135 120.5 l0 -241 l-69 0 l0 303 l-138 0 l0 -303 l-69 0 l0 232 q-98 -115 -265 -209 l-42 63 q87 43 160 99 q73 56 123 118 l-197 0 l0 65 l221 0 l0 78 l-284 0 l0 65 l284 0 l0 78 l-213 0 l0 64 l213 0 l0 87 l-268 0 l0 64 l240 0 q-33 51 -62 82 l54 41 q18 -19 42.5 -50 q24.5 -31 36.5 -50 l-28 -23 l216 0 q22 26 47 63 q25 37 39 62 l62 -36 q-30 -48 -61 -89 l249 0 l0 -64 l-291 0 l0 -87 l203 0 l0 -142 l110 0 l0 -65 l-110 0 l0 -143 l-174 0 ZM534 638 l-138 0 l0 -87 l138 0 l0 87 ZM534 487 l-138 0 l0 -78 l138 0 l0 78 ZM736 409 l0 78 l-133 0 l0 -78 l133 0 ZM396 344 l0 -78 l138 0 l0 78 l-138 0 ZM603 266 l133 0 l0 78 l-133 0 l0 -78 Z" /><glyph glyph-name="uni517D" unicode="&#x517d;" d="M843 698 l0 -337 l-708 0 l0 337 l191 0 q-18 21 -37 41.5 q-19 20.5 -24 25.5 l52 47 q16 -15 43.5 -43.5 q27.5 -28.5 45.5 -49.5 l-22 -21 l180 0 q21 22 48 57.5 q27 35.5 42 59.5 l64 -42 q-23 -32 -60 -75 l185 0 ZM454 558 l0 80 l-250 0 l0 -80 l250 0 ZM523 558 l250 0 l0 80 l-250 0 l0 -80 ZM454 500 l-250 0 l0 -83 l250 0 l0 83 ZM523 500 l0 -83 l250 0 l0 83 l-250 0 ZM40 239 l0 61 l898 0 l0 -61 l-898 0 ZM242 -100 l-72 0 l0 277 l638 0 l0 -277 l-71 0 l0 50 l-495 0 l0 -50 ZM737 7 l0 108 l-495 0 l0 -108 l495 0 Z" /><glyph glyph-name="uni5180" unicode="&#x5180;" d="M53 612 q56 2 147 10.5 q91 8.5 157 17.5 l0 47 l-269 0 l0 50 l269 0 l0 66 l70 -2 l0 -252 l-70 0 l0 37 q-64 -8 -151.5 -16.5 q-87.5 -8.5 -145.5 -12.5 l-7 55 ZM543 639 l0 164 l67 -2 l0 -85 q59 8 135 26.5 q76 18.5 123 36.5 l16 -56 q-50 -18 -132.5 -37 q-82.5 -19 -141.5 -26 l0 -8 q0 -26 10 -34 q10 -8 41 -10 q42 -2 62 -2 q21 0 61 2 q31 2 44 7 q13 5 17 16 q7 16 10 50 l64 -21 q-8 -45 -19 -70 q-7 -16 -27 -23 q-20 -7 -68 -9 q-58 -2 -89 -2 q-29 0 -89 2 q-48 2 -66 18.5 q-18 16.5 -18 62.5 ZM679 172 l0 -63 l244 0 l0 -52 l-865 0 l0 52 l237 0 l0 63 l-192 0 l0 55 l192 0 l0 53 l-143 0 l0 240 l674 0 l0 -240 l-147 0 l0 -53 l197 0 l0 -55 l-197 0 ZM453 424 l0 49 l-225 0 l0 -49 l225 0 ZM525 424 l224 0 l0 49 l-224 0 l0 -49 ZM453 375 l-225 0 l0 -49 l225 0 l0 49 ZM525 375 l0 -49 l224 0 l0 49 l-224 0 ZM606 280 l-237 0 l0 -53 l237 0 l0 53 ZM606 172 l-237 0 l0 -63 l237 0 l0 63 ZM73 -44 q65 12 168.5 41 q103.5 29 154.5 51 l26 -58 q-55 -23 -158.5 -54 q-103.5 -31 -165.5 -43 l-25 63 ZM584 46 q68 -14 170 -41 q102 -27 156 -47 l-20 -67 q-49 23 -146 51.5 q-97 28.5 -179 47.5 l19 56 Z" /><glyph glyph-name="uni5185" unicode="&#x5185;" d="M853 648 l0 -610 q0 -49 -11.5 -72 q-11.5 -23 -41 -33 q-29.5 -10 -96.5 -18 l-49 -6 l-27 76 l64 6 q41 4 58 9.5 q17 5.5 22 18.5 q5 13 5 44 l0 512 l-250 0 q-2 -72 -14 -127 q58 -48 134 -126.5 q76 -78.5 114 -130.5 l-52 -66 q-32 49 -96 120 q-64 71 -125 128 q-28 -67 -82.5 -129 q-54.5 -62 -142.5 -129 l-49 64 q93 69 143 128.5 q50 59.5 70.5 122 q20.5 62.5 22.5 145.5 l-248 0 l0 -664 l-75 0 l0 737 l323 0 l0 152 l77 -3 l0 -149 l326 0 Z" /><glyph glyph-name="uni518C" unicode="&#x518c;" d="M939 419 l0 -72 l-121 0 l0 -323 q0 -45 -10.5 -67.5 q-10.5 -22.5 -36.5 -33 q-26 -10.5 -79 -14.5 l-50 -4 l-24 77 l59 4 q31 2 46 8 q15 6 20 19.5 q5 13.5 5 39.5 l0 294 l-137 0 q-1 -122 -10 -196.5 q-9 -74.5 -31 -132.5 q-22 -58 -66 -130 l-72 37 q46 64 67.5 116.5 q21.5 52.5 30 120 q8.5 67.5 10.5 185.5 l-100 0 l0 -307 q0 -43 -12 -67.5 q-12 -24.5 -39.5 -37 q-27.5 -12.5 -77.5 -15.5 l-48 -4 l-22 74 l56 4 q43 2 57.5 15.5 q14.5 13.5 14.5 48.5 l0 289 l-128 0 q-2 -120 -12.5 -194 q-10.5 -74 -34 -131 q-23.5 -57 -69.5 -130 l-73 36 q49 64 72.5 116 q23.5 52 34 119.5 q10.5 67.5 12.5 183.5 l-129 0 l0 72 l129 0 l0 2 l0 327 l269 0 l0 -329 l100 0 l0 2 l0 327 l278 0 l0 -329 l121 0 ZM241 677 l0 -258 l128 0 l0 258 l-128 0 ZM611 677 l0 -258 l137 0 l0 258 l-137 0 Z" /><glyph glyph-name="uni518D" unicode="&#x518d;" d="M940 206 l0 -69 l-129 0 l0 -103 q0 -46 -11 -68.5 q-11 -22.5 -37 -32 q-26 -9.5 -81 -15.5 l-56 -6 l-25 75 l59 5 q37 3 52 8 q15 5 19.5 17 q4.5 12 4.5 42 l0 78 l-492 0 l0 -229 l-73 0 l0 229 l-130 0 l0 69 l130 0 l0 366 l282 0 l0 103 l-372 0 l0 68 l820 0 l0 -68 l-373 0 l0 -103 l283 0 l0 -366 l129 0 ZM453 391 l0 114 l-209 0 l0 -114 l209 0 ZM736 391 l0 114 l-208 0 l0 -114 l208 0 ZM453 324 l-209 0 l0 -118 l209 0 l0 118 ZM528 324 l0 -118 l208 0 l0 118 l-208 0 Z" /><glyph glyph-name="uni5192" unicode="&#x5192;" d="M115 443 l0 315 l739 0 l0 -315 l-79 0 l0 253 l-582 0 l0 -253 l-78 0 ZM251 633 l467 0 l0 -56 l-467 0 l0 56 ZM718 456 l-467 0 l0 56 l467 0 l0 -56 ZM249 -101 l-74 0 l0 495 l617 0 l0 -493 l-75 0 l0 53 l-468 0 l0 -55 ZM717 265 l0 72 l-468 0 l0 -72 l468 0 ZM717 209 l-468 0 l0 -72 l468 0 l0 72 ZM249 81 l0 -72 l468 0 l0 72 l-468 0 Z" /><glyph glyph-name="uni5197" unicode="&#x5197;" d="M99 489 l0 247 l777 0 l0 -247 l-81 0 l0 174 l-616 0 l0 -174 l-80 0 ZM44 -44 q92 50 140.5 94.5 q48.5 44.5 68 100.5 q19.5 56 19.5 143 l0 190 l397 0 l0 -422 q0 -36 10 -46.5 q10 -10.5 42 -12.5 q26 -2 52 0 q25 2 36.5 6 q11.5 4 18 15 q6.5 11 12.5 36 q5 21 7.5 61.5 q2.5 40.5 2.5 69.5 l74 -27 q0 -24 -4 -64 q-4 -40 -9 -64 q-9 -43 -22.5 -64 q-13.5 -21 -37 -29.5 q-23.5 -8.5 -68.5 -11.5 q-30 -2 -44 -2 q-15 0 -45 2 q-55 4 -78.5 27 q-23.5 23 -23.5 82 l0 370 l-244 0 l0 -123 q0 -98 -21 -162 q-21 -64 -75 -117 q-54 -53 -159 -112 l-49 60 Z" /><glyph glyph-name="uni5199" unicode="&#x5199;" d="M116 533 l0 214 l758 0 l0 -210 l-77 0 l0 138 l-605 0 l0 -142 l-76 0 ZM309 465 l-12 -122 l536 0 q-2 -54 -7 -140.5 q-5 -86.5 -8 -133.5 q-5 -54 -22 -83.5 q-17 -29.5 -51.5 -43.5 q-34.5 -14 -97.5 -20 l-85 -8 l-26 71 l89 8 q43 4 65.5 12.5 q22.5 8.5 33.5 27 q11 18.5 15 54.5 q3 33 7 91.5 q4 58.5 6 94.5 l-539 0 l35 356 l77 -3 l-9 -92 l459 0 l0 -69 l-466 0 ZM64 157 l612 0 l0 -70 l-612 0 l0 70 Z" /><glyph glyph-name="uni519B" unicode="&#x519b;" d="M805 679 l-623 0 l0 -99 l-74 0 l0 166 l771 0 l0 -166 l-74 0 l0 99 ZM926 122 l0 -69 l-372 0 l0 -155 l-77 0 l0 155 l-421 0 l0 69 l421 0 l0 121 l-299 0 l0 68 q44 55 109 161 l-184 0 l0 68 l224 0 q43 78 61 118 l69 -24 l-47 -94 l469 0 l0 -68 l-507 0 q-46 -82 -101 -161 l206 0 l0 115 l77 -3 l0 -112 l290 0 l0 -68 l-290 0 l0 -121 l372 0 Z" /><glyph glyph-name="uni519C" unicode="&#x519c;" d="M938 34 l-49 -74 q-122 66 -204.5 136.5 q-82.5 70.5 -139.5 161.5 q-57 91 -97 218 q-40 -82 -107 -161 l0 -300 l220 89 l14 -77 q-52 -19 -127.5 -48 q-75.5 -29 -120.5 -47 q-34 -14 -66 -34 l-33 70 q24 14 31.5 27.5 q7.5 13.5 7.5 32.5 l0 210 q-84 -79 -204 -157 l-46 71 q170 103 266 214.5 q96 111.5 138 252.5 l-238 0 l0 -147 l-72 0 l0 217 l327 0 q10 50 17 123 l82 -8 q-6 -59 -18 -115 l344 0 l0 -197 l-73 0 l0 127 l-288 0 l-12 -41 q38 -156 105 -261 q100 66 183 155 l51 -65 q-99 -93 -191 -151 q54 -68 127.5 -121.5 q73.5 -53.5 172.5 -100.5 Z" /><glyph glyph-name="uni51A0" unicode="&#x51a0;" d="M801 677 l-628 0 l0 -101 l-73 0 l0 172 l774 0 l0 -174 l-73 0 l0 103 ZM607 54 l-20 68 l56 2 q29 2 42.5 7.5 q13.5 5.5 17.5 17.5 q4 12 4 37 l0 235 l-218 0 l0 69 l218 0 l0 104 l72 -3 l0 -101 l126 0 l0 -69 l-126 0 l0 -251 q0 -42 -10.5 -64.5 q-10.5 -22.5 -36.5 -33.5 q-26 -11 -76 -14 l-49 -4 ZM462 481 l-330 0 l0 68 l330 0 l0 -68 ZM562 392 q20 -27 51.5 -78 q31.5 -51 47.5 -84 l-57 -42 q-13 36 -43 89.5 q-30 53.5 -53 83.5 l54 31 ZM928 121 q-9 -77 -20 -126 q-7 -32 -39.5 -49.5 q-32.5 -17.5 -102.5 -19.5 q-51 -2 -153 -2 q-103 0 -154 2 q-47 2 -72.5 12.5 q-25.5 10.5 -36.5 36.5 q-11 26 -11 76 l0 250 l-87 0 l-1 -42 q-1 -86 -17 -145 q-16 -59 -47.5 -106.5 q-31.5 -47.5 -87.5 -105.5 l-58 43 q60 58 89 101.5 q29 43.5 40 91 q11 47.5 13 123.5 l1 40 l-124 0 l0 72 l431 0 l0 -72 l-80 0 l0 -226 q0 -34 5 -49 q5 -15 19 -20.5 q14 -5.5 45 -6.5 q46 -2 138 -2 q91 0 137 2 q44 1 63 11 q19 10 25 34 q10 44 14 103 l71 -26 Z" /><glyph glyph-name="uni51A5" unicode="&#x51a5;" d="M810 685 l-640 0 l0 -92 l-69 0 l0 157 l777 0 l0 -157 l-68 0 l0 92 ZM780 595 l0 -308 l-581 0 l0 308 l581 0 ZM711 471 l0 62 l-445 0 l0 -62 l445 0 ZM266 410 l0 -62 l445 0 l0 62 l-445 0 ZM918 188 l0 -64 l-857 0 l0 64 l411 0 q-3 9 -7 20.5 q-4 11.5 -10 25.5 l-10 27 l66 13 q23 -56 33 -86 l374 0 ZM64 -43 q60 20 159 68.5 q99 48.5 151 84.5 l33 -64 q-52 -35 -153 -85 q-101 -50 -161 -72 l-29 68 ZM594 107 q64 -24 164.5 -69.5 q100.5 -45.5 152.5 -75.5 l-32 -72 q-53 38 -151.5 84.5 q-98.5 46.5 -162.5 68.5 l29 64 Z" /><glyph glyph-name="uni51AC" unicode="&#x51ac;" d="M943 301 l-31 -76 q-258 66 -424 165 q-159 -88 -419 -174 l-35 70 q230 68 387 148 q-90 64 -160 143 q-73 -78 -144 -134 l-46 57 q81 61 157 149.5 q76 88.5 119 166.5 l70 -29 q-23 -38 -48 -75 l433 0 l0 -68 q-101 -120 -243 -212 q139 -72 384 -131 ZM490 471 q137 81 213 175 l-383 0 l-10 -12 q80 -98 180 -163 ZM304 277 q82 -12 202 -37 q120 -25 183 -46 l-11 -77 q-74 28 -190 54 q-116 26 -199 36 l15 70 ZM200 105 q109 -12 283 -49 q174 -37 274 -72 l-15 -80 q-97 39 -270.5 77 q-173.5 38 -288.5 52 l17 72 Z" /><glyph glyph-name="uni51AF" unicode="&#x51af;" d="M215 450 q-22 56 -67.5 142.5 q-45.5 86.5 -78.5 137.5 l61 30 q35 -49 83.5 -134 q48.5 -85 69.5 -136 l-68 -40 ZM757 386 l127 0 q-3 -57 -8.5 -162 q-5.5 -105 -9.5 -162 q-6 -62 -23 -92.5 q-17 -30.5 -56 -44 q-39 -13.5 -118 -17.5 l-77 -4 l-28 76 l99 4 q52 2 77.5 10 q25.5 8 36.5 27 q11 19 14 58 q3 44 7.5 118 q4.5 74 6.5 117 l-436 0 l37 318 l74 -7 l-30 -239 l234 0 l34 289 l-383 0 l0 72 l464 0 l-42 -361 ZM249 356 l36 -13 q-19 -78 -70 -209 q-51 -131 -89 -208 l-80 31 q42 67 94 196.5 q52 129.5 74 215.5 l35 -13 ZM280 186 l458 0 l0 -72 l-458 0 l0 72 Z" /><glyph glyph-name="uni51B0" unicode="&#x51b0;" d="M887 1 q-97 101 -164.5 210 q-67.5 109 -110.5 241 l0 -422 q0 -48 -9.5 -71.5 q-9.5 -23.5 -39.5 -34.5 q-30 -11 -96 -16 l-58 -4 l-27 75 l69 4 q36 2 53.5 9 q17.5 7 24.5 22 q7 15 7 45 l0 741 l76 -3 l0 -121 q27 -126 62 -218 q75 59 168 168 l54 -57 q-40 -45 -93 -95.5 q-53 -50.5 -99 -86.5 q44 -95 105 -175 q61 -80 146 -152 l-68 -59 ZM171 447 q-14 54 -47.5 137.5 q-33.5 83.5 -59.5 132.5 l69 24 q26 -48 59.5 -129.5 q33.5 -81.5 47.5 -130.5 l-69 -34 ZM493 566 l0 -73 q-24 -147 -82 -263 q-58 -116 -164 -238 l-65 45 q102 108 158.5 218 q56.5 110 79.5 239 l-149 0 l0 72 l222 0 ZM207 360 l36 -10 q-19 -80 -65.5 -207 q-46.5 -127 -82.5 -197 l-77 29 q39 64 86.5 187.5 q47.5 123.5 68.5 206.5 l34 -9 Z" /><glyph glyph-name="uni51B2" unicode="&#x51b2;" d="M630 624 l234 0 l0 -437 l-234 0 l0 -293 l-73 0 l0 293 l-231 0 l0 437 l231 0 l0 180 l73 -4 l0 -176 ZM137 764 q29 -42 70 -119 q41 -77 68 -136 l-65 -47 q-22 60 -62.5 138.5 q-40.5 78.5 -72.5 129.5 l62 34 ZM399 550 l0 -286 l158 0 l0 286 l-158 0 ZM630 264 l158 0 l0 286 l-158 0 l0 -286 ZM271 352 q-17 -75 -61 -199.5 q-44 -124.5 -78 -195.5 l-76 29 q37 66 83 189 q46 123 64 201 l68 -24 Z" /><glyph glyph-name="uni51B3" unicode="&#x51b3;" d="M585 278 q39 -102 126 -175 q87 -73 231 -128 l-43 -76 q-146 69 -229 138 q-83 69 -129 163 q-34 -85 -111 -156.5 q-77 -71.5 -210 -144.5 l-46 66 q147 72 219 144.5 q72 72.5 92 168.5 l-216 0 l0 71 l224 0 q1 7 1 22 l2 202 l-187 0 l0 72 l187 0 l0 161 l78 -4 l0 -157 l245 0 l0 -296 l102 0 l0 -71 l-336 0 ZM185 459 q-15 54 -51.5 137 q-36.5 83 -65.5 132 l66 32 q29 -46 67.5 -128 q38.5 -82 55.5 -133 l-72 -40 ZM571 349 l176 0 l0 224 l-174 0 l-1 -198 q0 -17 -1 -26 ZM222 367 l30 -8 q-16 -83 -57 -211.5 q-41 -128.5 -74 -195.5 l-74 24 q33 68 74 194.5 q41 126.5 56 206.5 l45 -10 Z" /><glyph glyph-name="uni51B5" unicode="&#x51b5;" d="M199 461 q-16 54 -57 139.5 q-41 85.5 -72 134.5 l61 33 q31 -45 74 -129 q43 -84 62 -137 l-68 -41 ZM946 123 q-3 -71 -16 -131 q-7 -34 -29 -47 q-22 -13 -79 -15 q-12 -1 -37 -1 q-24 0 -37 1 q-54 2 -76.5 22 q-22.5 20 -22.5 70 l0 316 l-132 0 q0 -27 -2 -49 q-5 -103 -29.5 -170.5 q-24.5 -67.5 -75.5 -118 q-51 -50.5 -143 -106.5 l-48 59 q86 47 133 91.5 q47 44.5 68.5 102 q21.5 57.5 25.5 146.5 q2 22 2 45 l-110 0 l0 400 l514 0 l0 -400 l-130 0 l0 -292 q0 -26 10 -35 q10 -9 40 -11 l35 0 q32 3 43.5 10.5 q11.5 7.5 15.5 30.5 q8 47 10 104 l70 -22 ZM778 668 l-366 0 l0 -259 l366 0 l0 259 ZM269 338 q-37 -122 -70 -215 q-33 -93 -75 -181 l-69 39 q87 165 146 388 l68 -31 Z" /><glyph glyph-name="uni51B7" unicode="&#x51b7;" d="M623 802 q49 -99 135 -185.5 q86 -86.5 197 -152.5 l-46 -64 q-95 65 -185.5 151.5 q-90.5 86.5 -137.5 173.5 q-91 -165 -291 -316 l-47 63 q106 74 178.5 154.5 q72.5 80.5 121.5 175.5 l75 0 ZM199 474 q-19 55 -60 139 q-41 84 -71 128 l62 33 q30 -45 73 -126.5 q43 -81.5 62 -129.5 l-66 -44 ZM610 357 q-18 33 -56 80.5 q-38 47.5 -64 72.5 l54 46 q26 -26 64.5 -71.5 q38.5 -45.5 56.5 -73.5 l-55 -54 ZM233 346 l31 -9 q-14 -73 -54 -190.5 q-40 -117.5 -71 -179.5 l-73 23 q32 62 72 178.5 q40 116.5 55 190.5 l40 -13 ZM313 271 l0 69 l521 0 l0 -71 q-95 -122 -202 -225 q85 -55 122 -82 l-39 -71 q-60 49 -170.5 121 q-110.5 72 -195.5 121 l41 56 q65 -35 180 -106 q84 80 168 188 l-425 0 Z" /><glyph glyph-name="uni51BB" unicode="&#x51bb;" d="M873 301 l-225 0 l0 -279 q0 -44 -12 -67.5 q-12 -23.5 -41 -34 q-29 -10.5 -85 -13.5 l-53 -4 l-26 76 l65 4 q34 2 51 8 q17 6 23.5 19.5 q6.5 13.5 6.5 39.5 l0 251 l-241 0 l0 73 q31 50 107 229 l-146 0 l0 69 l175 0 q34 84 50 134 l70 -17 q-12 -37 -44 -117 l355 0 l0 -69 l-384 0 q-70 -167 -105 -229 l163 0 l0 172 l71 -3 l0 -169 l225 0 l0 -73 ZM201 464 q-19 52 -60 133.5 q-41 81.5 -71 131.5 l59 33 q30 -46 73 -126 q43 -80 63 -128 l-64 -44 ZM232 355 l31 -10 q-21 -81 -67 -207 q-46 -126 -80 -193 l-74 27 q37 64 84.5 187.5 q47.5 123.5 70.5 208.5 l35 -13 ZM474 213 q-72 -133 -187 -275 l-67 45 q52 53 101.5 123.5 q49.5 70.5 84.5 139.5 l68 -33 ZM758 246 q39 -46 98 -125 q59 -79 90 -129 l-55 -55 q-28 54 -85.5 134.5 q-57.5 80.5 -101.5 130.5 l54 44 Z" /><glyph glyph-name="uni51C0" unicode="&#x51c0;" d="M934 380 l0 -64 l-103 0 l0 -184 l-237 0 l0 -99 q0 -40 -12 -62.5 q-12 -22.5 -42 -33.5 q-30 -11 -87 -14 l-56 -3 l-24 70 l71 4 q36 2 52 7 q16 5 21 17 q5 12 5 37 l0 77 l-230 0 l0 66 l230 0 l0 118 l-262 0 l0 64 l262 0 l0 111 l-195 0 l0 27 l-6 -6 l-53 47 q68 68 114 132 q46 64 76 131 l77 -13 q-26 -51 -44 -80 l269 0 l0 -56 l-96 -118 l167 0 l0 -175 l103 0 ZM168 481 q-14 54 -50 137.5 q-36 83.5 -65 132.5 l63 29 q28 -46 67.5 -129 q39.5 -83 55.5 -132 l-71 -38 ZM451 666 q-44 -62 -89 -111 l216 0 l92 111 l-219 0 ZM762 491 l-168 0 l0 -111 l168 0 l0 111 ZM212 367 l31 -10 q-14 -79 -51 -201.5 q-37 -122.5 -68 -186.5 l-71 23 q31 64 69 186 q38 122 52 200 l38 -11 ZM594 198 l168 0 l0 118 l-168 0 l0 -118 Z" /><glyph glyph-name="uni51C6" unicode="&#x51c6;" d="M925 43 l0 -66 l-495 0 l0 -74 l-74 0 l0 561 q-38 -66 -85 -127 l-49 64 q70 87 120 192.5 q50 105.5 78 220.5 l76 -13 q-15 -65 -48 -152 l183 0 q-10 34 -24.5 76 q-14.5 42 -22.5 60 l68 20 q9 -20 26 -70.5 q17 -50.5 28 -85.5 l204 0 l0 -68 l-218 0 l0 -132 l198 0 l0 -65 l-198 0 l0 -132 l198 0 l0 -66 l-198 0 l0 -143 l233 0 ZM197 472 q-16 52 -55 131.5 q-39 79.5 -72 131.5 l61 33 q32 -46 74 -125 q42 -79 60 -130 l-68 -41 ZM430 449 l189 0 l0 132 l-189 0 l0 -132 ZM430 252 l189 0 l0 132 l-189 0 l0 -132 ZM229 317 l31 -15 q-37 -124 -65 -202.5 q-28 -78.5 -70 -166.5 l-70 33 q44 84 76.5 172 q32.5 88 60.5 195 l37 -16 ZM619 186 l-189 0 l0 -143 l189 0 l0 143 Z" /><glyph glyph-name="uni51C9" unicode="&#x51c9;" d="M913 698 l0 -69 l-618 0 l0 69 l271 0 q-18 60 -34 103 l74 14 q13 -31 41 -117 l266 0 ZM191 465 q-15 54 -51.5 136 q-36.5 82 -64.5 128 l64 34 q29 -48 66.5 -127.5 q37.5 -79.5 52.5 -126.5 l-67 -44 ZM845 254 l-202 0 l0 -238 q0 -38 -11.5 -59 q-11.5 -21 -38.5 -30.5 q-27 -9.5 -78 -12.5 l-49 -4 l-23 72 l58 3 q30 2 43.5 7.5 q13.5 5.5 18 16.5 q4.5 11 4.5 34 l0 211 l-216 0 l0 279 l494 0 l0 -279 ZM771 463 l-345 0 l0 -139 l345 0 l0 139 ZM234 360 l31 -14 q-18 -78 -63.5 -201.5 q-45.5 -123.5 -80.5 -189.5 l-70 29 q36 65 82 188 q46 123 65 202 l36 -14 ZM781 205 q36 -39 83 -97.5 q47 -58.5 92 -125.5 l-55 -57 q-46 73 -94.5 136.5 q-48.5 63.5 -83.5 99.5 l58 44 ZM463 164 q-33 -60 -82 -126 q-49 -66 -98 -121 l-59 49 q49 51 98 115 q49 64 80 123 l61 -40 Z" /><glyph glyph-name="uni51CC" unicode="&#x51cc;" d="M253 323 q43 18 113.5 64.5 q70.5 46.5 114.5 83.5 l-207 0 l0 64 l278 0 l0 102 l-234 0 l0 65 l234 0 l0 102 l74 -3 l0 -99 l245 0 l0 -65 l-245 0 l0 -102 l292 0 l0 -64 l-431 0 l34 -50 q-41 -38 -115.5 -88.5 q-74.5 -50.5 -121.5 -72.5 l-31 63 ZM182 466 q-14 53 -47.5 135 q-33.5 82 -60.5 130 l60 28 q27 -47 62 -127 q35 -80 49 -128 l-63 -38 ZM886 263 q-41 36 -118 81.5 q-77 45.5 -128 66.5 l36 58 q47 -20 123.5 -64.5 q76.5 -44.5 118.5 -75.5 l-32 -66 ZM204 367 l30 -9 q-11 -81 -45 -210.5 q-34 -129.5 -63 -197.5 l-69 21 q29 67 63.5 195 q34.5 128 46.5 210 l37 -9 ZM913 -102 q-195 55 -319 128 q-125 -68 -337 -126 l-31 62 q199 46 309 102 q-69 49 -116 108 q-60 -60 -127 -107 l-41 56 q71 49 136.5 118.5 q65.5 69.5 101.5 131.5 l57 -31 q-24 -40 -28 -46 l302 0 l0 -56 q-68 -107 -167 -176 q116 -57 291 -94 l-31 -70 ZM592 97 q80 54 138 136 l-257 0 l-10 -13 q51 -72 129 -123 Z" /><glyph glyph-name="uni51CF" unicode="&#x51cf;" d="M949 127 q-6 -46 -18 -97 q-24 -106 -93 -106 q-32 0 -58 21 q-26 21 -52 79 q-7 15 -19 49 q-60 -85 -152 -157 l-50 53 q113 78 179 184 q-39 163 -55 444 l-281 0 l0 -360 q0 -99 -24 -186 q-24 -87 -69 -155 l-69 32 q47 66 71 139.5 q24 73.5 24 169.5 l0 428 l345 0 q-5 117 -5 146 l69 -4 l5 -142 l135 0 q-17 22 -44.5 51.5 q-27.5 29.5 -49.5 47.5 l44 39 q23 -18 51.5 -47.5 q28.5 -29.5 47.5 -53.5 l-42 -37 l67 0 l0 -68 l-205 0 l0 -7 q12 -207 34 -342 q24 57 41 124 q17 67 32 154 l63 -17 q-21 -113 -48 -200 q-27 -87 -67 -161 q17 -62 33 -97 q15 -33 24.5 -43.5 q9.5 -10.5 23.5 -10.5 q16 0 24 13 q8 13 16 47 q10 37 15 91 l57 -21 ZM167 474 q-16 61 -47 144.5 q-31 83.5 -51 122.5 l63 26 q24 -47 55 -127 q31 -80 47 -137 l-67 -29 ZM395 493 l208 0 l0 -65 l-208 0 l0 65 ZM189 371 l33 -7 q-19 -83 -54 -201.5 q-35 -118.5 -63 -193.5 l-73 21 q34 76 71 195 q37 119 52 195 l34 -9 ZM598 74 l-204 0 l0 271 l204 0 l0 -271 ZM541 280 l-91 0 l0 -142 l91 0 l0 142 Z" /><glyph glyph-name="uni51D1" unicode="&#x51d1;" d="M595 247 l-3 -60 l-1 -17 l229 0 l0 -58 l-238 0 q-4 -16 -7 -24 q71 -25 159 -63 q88 -38 139 -67 l-24 -68 q-48 35 -136.5 75.5 q-88.5 40.5 -168.5 69.5 q-33 -41 -102 -71 q-69 -30 -195 -63 l-34 61 q102 22 162.5 44.5 q60.5 22.5 90.5 47.5 q30 25 42 58 l-203 0 l0 58 l215 0 l2 19 q2 26 2 58 l-123 0 l0 27 q-66 -63 -170 -130 l-43 58 q-20 -70 -44 -139.5 q-24 -69.5 -43 -112.5 l-73 23 q35 64 74 187.5 q39 123.5 58 212.5 l68 -18 q-10 -52 -40 -153 q152 86 224 185 l-175 0 l0 58 l210 0 q16 31 31 74 l-175 0 l0 58 l191 0 q8 34 11 52 l4 20 l-236 0 l0 58 l244 0 l6 72 l2 22 l75 -5 l-2 -25 q-1 -27 -5 -64 l268 0 l0 -58 l-277 0 q-8 -47 -14 -72 l262 0 l0 -58 l-277 0 q-11 -36 -29 -74 l370 0 l0 -58 l-190 0 q43 -55 100 -96 q57 -41 134 -72 l-31 -62 q-112 56 -189 124 l0 -34 l-125 0 ZM186 471 q-20 53 -60 134.5 q-40 81.5 -70 128.5 l59 28 q29 -41 70.5 -120 q41.5 -79 63.5 -130 l-63 -41 ZM494 387 q-25 -40 -65 -84 l267 0 q-40 40 -68 84 l-134 0 Z" /><glyph glyph-name="uni51DD" unicode="&#x51dd;" d="M273 580 l0 223 l65 -2 l0 -117 q119 49 168 77 l23 -58 q-30 -16 -85.5 -38.5 q-55.5 -22.5 -105.5 -40.5 l0 -36 q0 -25 7.5 -33.5 q7.5 -8.5 28.5 -9.5 l32 -1 l32 1 q22 1 32 6.5 q10 5.5 15 18.5 q7 25 9 57 l55 -18 q-4 -42 -16 -80 q-6 -19 -24.5 -28.5 q-18.5 -9.5 -60.5 -12.5 q-16 -1 -49 -1 q-33 0 -50 1 q-41 2 -58.5 21.5 q-17.5 19.5 -17.5 70.5 ZM151 472 q-9 56 -36 142.5 q-27 86.5 -50 133.5 l58 22 q23 -50 51.5 -135 q28.5 -85 38.5 -135 l-62 -28 ZM878 2 q49 0 73 1 l-15 -67 q-46 -2 -69 -2 q-23 0 -69 2 q-76 3 -125 29.5 q-49 26.5 -75 85.5 q-22 -68 -80 -151 l-55 32 q47 64 70 113.5 q23 49.5 32 113 q9 63.5 10 174.5 l56 -5 q-2 -104 -8 -163 q9 -52 27.5 -85 q18.5 -33 48.5 -51 l0 376 l-158 0 l0 66 l173 0 q-24 35 -60 75 q-36 40 -64 64 l42 39 q36 -29 89 -88 q39 41 100 127 l-262 0 l0 68 l335 0 l0 -73 q-67 -99 -133 -169 q9 -10 18 -23 l-20 -20 l148 0 l0 -67 l-36 -102 l-53 15 l32 88 l-89 0 l0 -160 l144 0 l0 -64 l-144 0 l0 -174 q13 -2 43 -4 q25 -1 74 -1 ZM479 -14 q-11 18 -38 47 q-27 29 -53 53 q-21 -48 -59 -93 q-38 -45 -99 -93 l-52 50 q81 52 119.5 106.5 q38.5 54.5 52.5 117.5 l-130 0 l0 62 l138 0 q4 28 6 103 l-59 0 q-16 -39 -38 -81 l-50 28 q23 41 43.5 93.5 q20.5 52.5 32.5 95.5 l60 -12 q-7 -22 -23 -64 l203 0 l0 -60 l-107 0 q0 -47 -4 -103 l124 0 l0 -62 l-131 0 q-4 -20 -7 -29 q94 -82 114 -108 l-43 -51 ZM209 364 q-9 -78 -40 -204.5 q-31 -126.5 -58 -196.5 l-65 17 q27 68 58.5 194 q31.5 126 42.5 203 l62 -13 Z" /><glyph glyph-name="uni51E0" unicode="&#x51e0;" d="M50 -42 q84 73 122.5 127 q38.5 54 53.5 129 q15 75 15 211 l0 313 l456 0 l0 -671 q0 -26 3.5 -37 q3.5 -11 14.5 -15 q11 -4 36 -6 l21 -1 q27 0 40 3 q13 3 20 14 q7 11 11 36 q10 60 10 128 l73 -27 l-1 -27 q-1 -8 -3.5 -51 q-2.5 -43 -10.5 -81 q-8 -38 -28.5 -54 q-20.5 -16 -69.5 -17 q-15 -1 -45 -1 q-30 0 -45 1 q-58 2 -81.5 24.5 q-23.5 22.5 -23.5 82.5 l0 620 l-299 0 l0 -234 q0 -147 -16.5 -230.5 q-16.5 -83.5 -59 -146.5 q-42.5 -63 -132.5 -146 l-61 56 Z" /><glyph glyph-name="uni51E1" unicode="&#x51e1;" d="M38 -47 q79 74 116.5 129.5 q37.5 55.5 51.5 128 q14 72.5 14 199.5 l0 330 l482 0 l0 -670 q0 -28 5 -42 q5 -14 17.5 -18.5 q12.5 -4.5 36.5 -4.5 l34 0 q28 0 40 11 q12 11 18 43 q9 49 11 130 l69 -26 q-4 -76 -17 -162 q-6 -38 -30 -55.5 q-24 -17.5 -75 -19.5 q-13 -1 -38 -1 q-26 0 -39 1 q-58 2 -85.5 27 q-27.5 25 -27.5 90 l0 618 l-322 0 l0 -251 q0 -135 -17 -217.5 q-17 -82.5 -57.5 -146.5 q-40.5 -64 -121.5 -145 l-65 52 ZM373 517 q48 -42 119 -120.5 q71 -78.5 107 -130.5 l-56 -65 q-35 58 -104.5 140 q-69.5 82 -117.5 124 l52 52 Z" /><glyph glyph-name="uni51E4" unicode="&#x51e4;" d="M956 126 q-5 -35 -15 -73 q-10 -38 -21 -66 q-14 -38 -34 -56.5 q-20 -18.5 -50 -18.5 q-25 0 -47 24 q-22 24 -32 65 q-25 106 -25 335 l0 343 l-515 0 l0 -329 q0 -120 -27 -230 q-27 -110 -89 -219 l-66 39 q41 72 64 129 q23 57 35 124 q12 67 12 157 l0 404 l658 0 l0 -412 q0 -191 11 -267 q5 -31 15 -50 q10 -19 18 -19 q13 0 28 62 q6 24 11 52 q5 28 6 39 l63 -33 ZM662 497 q-49 -159 -122 -268 q109 -116 172 -194 l-50 -64 q-64 83 -166 198 q-89 -108 -247 -216 l-45 61 q158 106 241 211 q-97 107 -168 175 l46 49 q73 -68 165 -165 q57 86 102 213 l-327 0 l0 70 l399 0 l0 -70 Z" /><glyph glyph-name="uni51ED" unicode="&#x51ed;" d="M182 557 q-48 -56 -108 -112 l-46 58 q66 53 130 138 q64 85 101 169 l68 -18 q-32 -73 -74 -138 l0 -362 l-71 0 l0 265 ZM565 677 q-143 -15 -225 -18 l-12 62 q98 3 258 20.5 q160 17.5 259 35.5 l7 -62 q-87 -16 -212 -30 l0 -119 l276 0 l0 -65 l-276 0 l0 -115 l241 0 l0 -63 l-548 0 l0 63 l232 0 l0 115 l-268 0 l0 65 l268 0 l0 111 ZM923 108 q-5 -64 -18 -119 q-7 -30 -33 -44.5 q-26 -14.5 -84 -16.5 q-14 -1 -42 -1 q-29 0 -43 1 q-62 2 -85.5 22.5 q-23.5 20.5 -23.5 76.5 l0 143 l-254 0 l0 -22 q0 -61 -20 -101.5 q-20 -40.5 -70.5 -76.5 q-50.5 -36 -149.5 -79 l-39 66 q89 34 131 61.5 q42 27.5 58 63 q16 35.5 16 97.5 l0 59 l403 0 l0 -186 q0 -34 10 -43.5 q10 -9.5 44 -11.5 q9 -1 28 -1 q52 0 70.5 7 q18.5 7 24.5 33 q9 41 11 96 l66 -24 Z" /><glyph glyph-name="uni51EF" unicode="&#x51ef;" d="M389 741 l63 -2 l0 -215 l-374 0 l0 217 l62 -2 l0 -147 l95 0 l0 214 l63 -3 l0 -211 l91 0 l0 149 ZM942 139 q-1 -78 -12 -142 q-6 -36 -28 -51.5 q-22 -15.5 -65 -15.5 l-28 0 q-76 0 -76 88 l0 652 l-131 0 l0 -266 q0 -153 -9.5 -233 q-9.5 -80 -38.5 -139 q-29 -59 -94 -136 l-63 42 q64 73 91.5 127 q27.5 54 37 126.5 q9.5 72.5 9.5 212.5 l0 337 l265 0 l0 -705 q0 -18 4.5 -24 q4.5 -6 20.5 -6 l19 0 q17 0 23.5 8 q6.5 8 9.5 35 q6 56 6 113 l59 -23 ZM434 103 l3 -73 q-97 -26 -268 -74 q-12 -5 -26 -10 l-39 -16 l-28 63 q19 13 23.5 21 q4.5 8 4.5 23 l0 235 l256 0 l0 107 l-286 0 l0 68 l356 0 l0 -243 l-256 0 l0 -179 l260 78 Z" /><glyph glyph-name="uni51F0" unicode="&#x51f0;" d="M948 116 q-15 -80 -34 -131 q-11 -32 -29 -49.5 q-18 -17.5 -39 -17.5 q-20 0 -43 20.5 q-23 20.5 -32 55.5 q-32 124 -32 313 l0 387 l-537 0 l0 -360 q0 -101 -26.5 -210 q-26.5 -109 -84.5 -217 l-66 33 q60 108 84 206 q24 98 24 223 l0 389 l678 0 l0 -414 q0 -208 14 -278 q5 -28 9.5 -40.5 q4.5 -12.5 11.5 -12.5 q8 0 15.5 11.5 q7.5 11.5 11.5 32.5 q11 53 15 88 l60 -29 ZM510 673 q-10 -31 -23 -65 l171 0 l0 -281 l-370 0 l0 281 l130 0 q17 40 24 73 l68 -8 ZM352 492 l240 0 l0 65 l-240 0 l0 -65 ZM352 442 l0 -63 l240 0 l0 63 l-240 0 ZM682 86 l-175 0 l0 -71 l229 0 l0 -56 l-523 0 l0 56 l225 0 l0 71 l-172 0 l0 56 l172 0 l0 71 l-187 0 l0 58 l445 0 l0 -58 l-189 0 l0 -71 l175 0 l0 -56 Z" /></font>
</defs>
</svg>
